<svg width="280" height="71" viewBox="0 0 280 71" fill="none" xmlns="http://www.w3.org/2000/svg">
<path d="M0 32.9265C0.262517 31.6034 0.422513 30.2511 0.809298 28.9633C3.15952 21.1476 8.05725 15.7505 16.3382 14.0828C22.3745 12.8674 27.9216 14.1135 32.389 18.6568C32.4744 18.7429 32.5754 18.8168 32.7929 18.9968V14.412H42.6023V55.3966H32.8783V51.2641C32.5583 51.5226 32.3875 51.6364 32.243 51.7811C28.501 55.4966 23.8751 56.7966 18.7148 56.492C8.54811 55.8843 1.29394 47.6117 0.197276 38.3221C0.159996 38.0082 0.0667943 37.6975 0 37.3852V32.9265ZM31.4446 34.6835C31.4461 29.4556 28.3161 25.4047 23.7461 24.1478C19.2476 22.9092 14.4462 24.7785 12.0074 28.7187C9.54847 32.6896 10.0549 37.8144 13.3185 41.1714C15.5382 43.4561 17.8527 45.6531 20.1051 47.9086C20.5928 48.3979 20.9687 48.4625 21.4984 47.9517C23.7943 45.7393 26.1523 43.59 28.4264 41.3561C30.4442 39.3745 31.3949 36.9128 31.443 34.6851L31.4446 34.6835Z" fill="#2A2F32"/>
<path d="M72.3115 13.5406C73.5185 13.7898 74.7409 13.9883 75.9324 14.3006C83.6168 16.3238 89.2431 22.5948 90.1393 30.3781C90.4174 32.7921 90.1999 35.2645 90.1891 37.7092C90.1891 38.0215 90.0539 38.3323 89.9654 38.72H58.962C59.5802 41.2924 60.7359 43.394 62.7522 44.9725C65.6818 47.2664 69.0929 47.748 72.6828 47.3895C75.9495 47.0649 78.8216 45.8694 80.9652 43.5109C83.084 45.5956 85.1795 47.6587 87.3868 49.8327C86.7297 50.4312 85.9639 51.2173 85.1096 51.8912C80.4511 55.5698 75.0376 56.836 69.1986 56.5237C63.1017 56.196 57.8032 54.0036 53.6184 49.5219C49.0329 44.614 47.5464 38.7138 48.2531 32.2136C49.3187 22.4009 57.0467 15.216 66.2581 13.8391C66.8359 13.7514 67.4107 13.6391 67.987 13.5391H72.3099L72.3115 13.5406ZM80.0177 30.8166C79.8002 26.8349 76.3891 23.1856 72.2898 22.6732C70.755 22.4809 69.1473 22.4794 67.6142 22.6855C63.2958 23.2625 59.6315 26.8103 59.0645 30.8181H80.0192L80.0177 30.8166Z" fill="#2A2F32"/>
<path d="M119.668 13.5391C121.045 13.8021 122.441 13.9929 123.796 14.3376C127.662 15.3191 130.939 17.2884 133.642 20.147C131.252 22.4778 128.911 24.7625 126.57 27.0457C122.404 22.4609 113.537 22.364 109.318 26.9795C105.337 31.3351 105.376 38.8077 109.388 43.137C113.461 47.5326 121.79 47.9126 126.708 42.9663C129.023 45.1848 131.337 47.4034 133.706 49.6757C133.49 49.9281 133.324 50.1542 133.123 50.3496C128.496 54.9328 122.812 56.8806 116.366 56.5268C107.535 56.0421 100.803 52.0127 97.0965 44.0002C91.3615 31.6043 98.2258 16.4361 113.332 13.9006C114.005 13.7883 114.671 13.6591 115.342 13.5391H119.667L119.668 13.5391Z" fill="#2A2F32"/>
<path d="M159.161 13.5391C160.503 13.8021 161.858 14.0037 163.18 14.3406C166.634 15.2191 169.646 16.8946 172.18 19.3285C169.803 21.664 167.472 23.9548 165.134 26.2534C160.132 22.1655 151.845 22.7779 148.076 27.695C144.516 32.3413 145.064 39.7062 149.294 43.6648C153.466 47.568 161.37 47.6941 166.08 42.9263C168.405 45.1787 170.729 47.4326 173.093 49.7219C170.24 52.8205 166.785 54.8482 162.712 55.8775C153.17 58.2899 143.224 54.6728 138.021 46.8726C130.199 35.1429 135.483 16.9223 152.639 13.9129C153.308 13.7945 153.974 13.6652 154.641 13.5406H159.16L159.161 13.5391Z" fill="#2A2F32"/>
<path d="M182.469 22.9703C187.217 23.2026 190.81 25.3181 192.702 29.6798C194.585 34.0199 193.867 38.1478 190.593 41.614C188.166 44.1834 185.481 46.5142 182.921 48.9604C182.48 49.382 182.101 49.4005 181.664 48.9651C179.109 46.4219 176.407 44.0033 174.018 41.3171C170.885 37.7939 170.306 33.6661 172.294 29.409C174.251 25.2119 177.79 23.1841 182.469 22.9688V22.9703Z" fill="#2A2F32"/>
<path d="M251.612 33.6051V29.4727H253.201V40.21C252.603 40.1669 251.891 40.6531 251.598 39.993C250.484 40.0946 249.434 40.3592 248.44 40.2207C247.786 40.13 247.091 39.5622 246.63 39.0268C245.467 37.6745 245.56 35.4729 246.706 34.1005C247.859 32.722 249.451 32.5328 251.607 33.6051H251.609H251.612ZM247.554 36.6144C247.548 37.9299 248.376 38.8238 249.614 38.833C250.858 38.8422 251.711 37.9607 251.717 36.6514C251.727 35.3421 250.886 34.4421 249.651 34.4344C248.401 34.4282 247.562 35.3006 247.553 36.6114H247.554V36.6144Z" fill="#2A2F32"/>
<path d="M232.447 18.5607V14.3359H234.015V25.064C233.384 25.0409 232.629 25.581 232.334 24.5301C230.502 25.6163 228.724 25.441 227.556 24.0763C226.333 22.6439 226.35 20.3223 227.598 18.9023C228.772 17.5622 230.523 17.396 232.447 18.5622V18.5607ZM232.528 21.4547C232.511 20.1315 231.675 19.2853 230.412 19.3069C229.201 19.3284 228.325 20.2808 228.351 21.5454C228.379 22.8178 229.277 23.7194 230.502 23.6994C231.744 23.6778 232.547 22.7901 232.53 21.4577L232.528 21.4547Z" fill="#2A2F32"/>
<path d="M216.245 39.6207C216.048 40.7392 215.228 40.0823 214.602 40.3084V29.4727H216.122V33.3236C217.244 33.1989 218.299 32.8943 219.291 33.0343C219.972 33.1297 220.705 33.7282 221.172 34.2944C222.364 35.739 222.171 38.0607 220.888 39.3715C219.683 40.6007 217.977 40.7161 216.25 39.6238H216.248L216.245 39.6207ZM218.143 38.8284C219.359 38.8284 220.248 37.8976 220.251 36.6298C220.251 35.359 219.369 34.4375 218.148 34.4344C216.897 34.4344 216.076 35.3006 216.073 36.6252C216.073 37.9407 216.905 38.8284 218.143 38.8268V38.8284Z" fill="#2A2F32"/>
<path d="M205.291 23.4583C205.665 23.1199 206.021 22.7952 206.204 22.6291C207.198 22.9999 208.054 23.4753 208.963 23.6184C210.095 23.7953 210.853 23.2799 211.012 22.5506C211.179 21.7875 210.709 21.1521 209.618 20.7136C209.044 20.4829 208.444 20.3105 207.874 20.0675C206.406 19.4413 205.763 18.3643 205.971 16.932C206.16 15.6196 207.141 14.7227 208.641 14.4888C210.195 14.2472 211.54 14.6026 212.697 15.8781C212.273 16.2504 211.888 16.5889 211.475 16.9504C210.766 16.2119 209.865 15.8088 208.842 16.095C208.413 16.2135 207.858 16.6504 207.781 17.0273C207.703 17.4027 208.04 18.0443 208.391 18.2859C208.995 18.6966 209.752 18.8936 210.448 19.169C212.233 19.8751 212.992 21.0106 212.765 22.6383C212.559 24.1261 211.434 25.0599 209.569 25.2353C207.868 25.3969 206.407 24.9446 205.289 23.4568L205.291 23.4583Z" fill="#2A2F32"/>
<path d="M257.354 48.5388C258.152 48.3173 258.697 48.1634 259.387 47.9727V55.3729C258.8 55.2021 258.005 55.8622 257.722 54.8191C255.547 55.8729 253.901 55.6591 252.781 54.1621C251.689 52.699 251.779 50.4666 252.986 49.1312C254.183 47.805 255.873 47.6619 257.354 48.5388ZM257.891 51.8189C257.915 50.4897 257.11 49.5912 255.873 49.5681C254.64 49.545 253.741 50.4312 253.708 51.702C253.675 52.9605 254.555 53.9359 255.754 53.9698C256.981 54.0067 257.865 53.1144 257.89 51.8174H257.891V51.8189Z" fill="#2A2F32"/>
<path d="M244.52 40.2653C243.891 40.0914 243.09 40.7345 242.804 39.6945C240.732 40.7484 239.068 40.5391 237.928 39.0791C236.76 37.5806 236.873 35.2559 238.183 33.9097C239.394 32.6619 241.115 32.5419 242.765 33.6251C243.059 32.6112 243.82 33.0804 244.522 33.0527V40.2638H244.52V40.2653ZM240.968 34.442C239.722 34.422 238.854 35.2974 238.835 36.5913C238.815 37.8837 239.663 38.8114 240.884 38.836C242.106 38.8591 243.003 37.9544 243.025 36.6759C243.046 35.3928 242.187 34.4589 240.968 34.442Z" fill="#2A2F32"/>
<path d="M212.752 32.8898V40.2285C212.13 40.1439 211.391 40.707 211.028 39.6516C210.099 40.3285 209.059 40.6547 207.994 40.2562C207.321 40.0039 206.635 39.5731 206.176 39.0392C204.959 37.6192 205.105 35.3268 206.372 33.9621C207.556 32.6913 209.221 32.5528 210.669 33.3913C211.501 33.1913 212.073 33.0529 212.752 32.8913V32.8898ZM211.245 36.6099C211.234 35.2945 210.397 34.4252 209.145 34.436C207.907 34.4468 207.077 35.3406 207.085 36.6545C207.094 37.9576 207.949 38.8408 209.19 38.8346C210.423 38.8254 211.256 37.9253 211.245 36.6114V36.6099Z" fill="#2A2F32"/>
<path d="M220.079 51.7065C220.092 53.8651 218.428 55.5344 216.256 55.5405C214.136 55.5467 212.443 53.9035 212.416 51.8127C212.388 49.6588 214.047 48.0156 216.25 48.0156C218.453 48.0156 220.064 49.5864 220.078 51.705H220.079V51.7065ZM218.361 51.7327C218.352 50.4619 217.465 49.5772 216.219 49.5895C214.975 49.6049 214.13 50.5034 214.144 51.7927C214.159 53.0866 215.014 53.9405 216.284 53.9251C217.544 53.9128 218.372 53.0373 218.363 51.7296H218.361V51.7327Z" fill="#2A2F32"/>
<path d="M232.547 32.8829C234.705 32.8999 236.358 34.5215 236.354 36.6169C236.354 38.7385 234.624 40.4232 232.465 40.4017C230.29 40.3801 228.653 38.7093 228.684 36.54C228.715 34.4292 230.368 32.866 232.546 32.8829H232.547ZM232.532 38.7955C233.782 38.7832 234.636 37.8893 234.629 36.6031C234.619 35.3446 233.72 34.4492 232.476 34.4599C231.232 34.4707 230.355 35.3861 230.377 36.6554C230.399 37.937 231.278 38.8093 232.532 38.797V38.7955Z" fill="#2A2F32"/>
<path d="M222.998 55.3344H221.373V48.2295C221.991 48.2095 222.752 47.6649 223.119 48.7726C224.146 47.9664 225.267 47.7233 226.432 48.3034C227.692 48.9295 228.062 50.068 228.037 51.3896C228.014 52.6774 228.032 53.9651 228.032 55.3221H226.359C226.359 54.019 226.375 52.6774 226.355 51.3358C226.339 50.325 225.85 49.7157 225.013 49.5803C223.854 49.3957 223.027 50.0542 223.003 51.2404C222.975 52.5881 222.996 53.939 222.996 55.339V55.3344H222.998Z" fill="#2A2F32"/>
<path d="M267.826 55.3477H266.199C266.199 54.6784 266.205 54.0184 266.199 53.3569C266.19 52.5507 266.23 51.7399 266.139 50.9429C266.035 50.0183 265.379 49.5321 264.447 49.5536C263.534 49.5752 262.903 50.1137 262.849 51.046C262.788 52.0753 262.822 53.1092 262.816 54.1415V55.3369H261.213V48.1628C261.859 48.2474 262.631 47.6659 262.918 48.7213C264.706 47.7151 266.111 47.7643 267.083 48.9629C267.451 49.4152 267.759 50.0383 267.794 50.6014C267.891 52.1414 267.827 53.6892 267.827 55.3462L267.826 55.3477Z" fill="#2A2F32"/>
<path d="M242.472 18.003C241.965 19.0953 241.467 20.1676 240.967 21.24C240.097 23.1139 239.222 24.9847 238.355 26.8587C237.919 27.8002 237.128 28.1925 235.98 28.0341C236.468 27.0279 236.987 26.0694 237.392 25.0663C237.549 24.674 237.588 24.1247 237.436 23.7416C236.679 21.8292 235.842 19.9461 235.031 18.0476C236.53 17.6183 236.715 17.7045 237.24 19.0168C237.692 20.1415 238.147 21.2661 238.686 22.5985C239.241 21.2846 239.715 20.1646 240.188 19.0445C240.572 18.1322 241.333 17.786 242.47 18.006V18.0014L242.472 18.003Z" fill="#2A2F32"/>
<path d="M235.846 48.1914H237.52C237.52 49.6284 237.497 51.0038 237.53 52.3808C237.556 53.4531 238.11 53.9593 239.108 53.9208C240.004 53.887 240.498 53.4024 240.521 52.4131C240.555 51.033 240.531 49.6499 240.531 48.2006H242.183C242.183 49.7945 242.287 51.3407 242.155 52.8685C242.009 54.5439 240.681 55.5686 238.991 55.544C237.306 55.5178 235.999 54.4516 235.874 52.7962C235.76 51.2946 235.85 49.7792 235.85 48.196H235.849L235.846 48.1914Z" fill="#2A2F32"/>
<path d="M219.278 17.9023H220.838C220.838 19.2932 220.833 20.6671 220.838 22.0394C220.843 22.8671 221.136 23.5025 222.056 23.6456C223.137 23.8164 223.811 23.2702 223.841 22.1394C223.878 20.7609 223.85 19.3809 223.85 17.9331H225.635C225.542 19.7055 225.59 21.5055 225.31 23.2595C225.099 24.5826 223.685 25.3395 222.217 25.2734C220.718 25.2041 219.465 24.3749 219.32 23.001C219.146 21.3532 219.278 19.6732 219.278 17.9023Z" fill="#2A2F32"/>
<path d="M274.189 54.233C274.591 53.8452 274.894 53.556 275.013 53.4406C275.969 53.6606 276.763 53.9022 277.57 53.9945C277.816 54.0222 278.109 53.6406 278.384 53.4498C278.176 53.196 278.019 52.836 277.749 52.7083C277.163 52.4329 276.514 52.3006 275.907 52.0683C275.024 51.7282 274.546 51.0775 274.593 50.1282C274.641 49.1605 275.142 48.5066 276.081 48.1789C277.466 47.6958 278.973 48.082 279.99 49.2928C279.647 49.5466 279.288 49.8113 279.057 49.982C278.286 49.8297 277.558 49.6466 276.818 49.5712C276.638 49.5543 276.328 49.8666 276.255 50.0836C276.211 50.2174 276.474 50.5513 276.668 50.6344C277.233 50.8759 277.844 51.0128 278.42 51.2328C279.599 51.6836 280.093 52.4237 279.981 53.5068C279.874 54.5314 279.164 55.2391 277.985 55.4499C276.54 55.7069 275.293 55.3515 274.186 54.2345L274.189 54.233Z" fill="#2A2F32"/>
<path d="M229.68 53.4202C230.719 53.6618 231.511 53.9033 232.317 53.9956C232.555 54.0233 232.841 53.6341 233.105 53.4341C232.897 53.1818 232.74 52.8248 232.47 52.6971C231.884 52.4217 231.232 52.2925 230.627 52.0525C229.747 51.7063 229.274 51.0555 229.333 50.097C229.389 49.1693 229.871 48.537 230.759 48.2031C232.185 47.6692 233.768 48.0739 234.685 49.3032C234.371 49.5832 234.042 49.8755 233.924 49.9816C233.02 49.8047 232.319 49.6216 231.606 49.5555C231.406 49.5355 231.03 49.8293 230.995 50.0247C230.963 50.2032 231.233 50.5417 231.451 50.6432C231.949 50.874 232.499 50.9894 233.021 51.1755C234.289 51.6263 234.846 52.3663 234.741 53.4433C234.633 54.5649 233.902 55.2588 232.6 55.4741C231.185 55.7065 229.902 55.2541 228.967 54.1495C229.27 53.8387 229.576 53.5248 229.68 53.4171V53.4202Z" fill="#2A2F32"/>
<path d="M212.025 49.2666C211.671 49.6235 211.357 49.9435 211.057 50.2466C209.468 49.3527 208.319 49.3866 207.548 50.3112C206.907 51.0774 206.901 52.4098 207.536 53.1929C208.28 54.1129 209.471 54.1575 211.067 53.2729C211.359 53.5729 211.669 53.8914 211.974 54.2037C210.761 55.7976 208.237 55.976 206.64 54.6298C205.03 53.2713 204.894 50.6989 206.351 49.1681C207.83 47.6127 210.403 47.6173 212.027 49.2697L212.025 49.2666Z" fill="#2A2F32"/>
<path d="M246.416 49.5834V48.1818C246.939 48.148 247.447 48.1157 248.059 48.0757V45.2109H249.717V48.0726C250.352 48.1095 250.86 48.1372 251.444 48.1695V49.5711C250.946 49.5988 250.435 49.6265 249.815 49.6619V55.3113H248.139V49.6665C247.499 49.6357 247.019 49.6126 246.416 49.5849V49.5834Z" fill="#2A2F32"/>
<path d="M270.342 49.6529C269.711 49.6252 269.227 49.6036 268.674 49.579V48.1774C269.191 48.1451 269.707 48.1128 270.348 48.0743V45.1758H272.007V47.9882C272.644 48.102 273.238 48.0851 273.669 48.339C273.871 48.4574 273.758 49.0975 273.794 49.5544C273.174 49.5975 272.664 49.6313 272.031 49.6775V55.3331H270.344V49.6529H270.342Z" fill="#2A2F32"/>
<path d="M214.957 19.4146L213.219 19.3177V17.9238C213.78 17.8822 214.291 17.8438 214.906 17.7991V14.9375H216.53V17.7853L218.272 17.9345V19.3069C217.75 19.3438 217.216 19.3807 216.566 19.4254V25.0809H214.955V19.4146H214.957Z" fill="#2A2F32"/>
<path d="M223.26 40.2157V32.8555C223.873 33.0539 224.384 33.2524 224.913 33.3739C225.08 33.4124 225.304 33.2724 225.484 33.1816C226.567 32.6324 227.668 32.8047 228.523 33.7078C228.057 34.2571 227.73 34.8186 226.735 34.4848C225.784 34.1663 225.006 34.8078 224.913 35.8433C224.819 36.9002 224.863 37.9695 224.849 39.0311C224.844 39.4095 224.849 39.7865 224.849 40.2157H223.26Z" fill="#2A2F32"/>
<path d="M245.367 55.341H243.887V44.5898H245.367V55.341Z" fill="#2A2F32"/>
</svg>
