<svg width="244" height="71" viewBox="0 0 244 71" fill="none" xmlns="http://www.w3.org/2000/svg">
<g clip-path="url(#clip0_4660_88295)">
<path d="M212.421 31.5146V37.0708H201.06V56.4958H195.533V57.4875H202.037V38.0479H213.398V31.5H212.421V31.5146Z" fill="#2A2F32"/>
<path d="M193.36 37.0703H183.881V38.062H193.36V37.0703Z" fill="#2A2F32"/>
<path d="M223.474 28.7422H229.045L243.264 53.7234H236.774L232.006 44.6089H220.12L215.206 53.7234H209.445L223.46 28.7422H223.474ZM229.614 40.3797L226.07 33.613L222.322 40.3797H229.614Z" fill="#2A2F32"/>
<path d="M61.4256 28.7422H66.9965L81.2152 53.7234H74.7402L69.9861 44.6089H58.0131L53.1569 53.7234H47.3965L61.4111 28.7422H61.4256ZM67.5944 40.3797L64.0215 33.613L60.2152 40.3797H67.5798H67.5944Z" fill="#2A2F32"/>
<path d="M83.6504 28.7422H104.913C105.861 28.7422 106.59 28.7859 107.13 28.888C107.669 28.9901 108.165 29.1797 108.632 29.4568C109.332 29.8651 109.813 30.4047 110.075 31.1047C110.338 31.8047 110.469 32.8547 110.469 34.2547V40.2047C110.469 41.0505 110.44 41.7068 110.367 42.1734C110.294 42.6255 110.163 43.0776 109.973 43.5005C109.623 44.3026 109.069 44.8714 108.296 45.1922C107.523 45.513 106.4 45.6734 104.913 45.6734H89.4108V53.738H83.6504V28.7422ZM102.288 40.3797C103.163 40.3797 103.775 40.2339 104.155 39.9568C104.519 39.6651 104.709 39.1984 104.709 38.5568V36.1214C104.709 35.4797 104.519 35.013 104.155 34.7359C103.79 34.4589 103.163 34.3276 102.288 34.3276H89.4108V40.3797H102.288Z" fill="#2A2F32"/>
<path d="M116.143 28.7422H137.405C138.353 28.7422 139.082 28.7859 139.622 28.888C140.161 28.9901 140.657 29.1797 141.124 29.4568C141.824 29.8651 142.305 30.4047 142.568 31.1047C142.83 31.8047 142.961 32.8547 142.961 34.2547V40.2047C142.961 41.0505 142.932 41.7068 142.859 42.1734C142.786 42.6255 142.67 43.0776 142.465 43.5005C142.115 44.3026 141.547 44.8714 140.788 45.1922C140.015 45.513 138.893 45.6734 137.405 45.6734H121.903V53.738H116.143V28.7422ZM134.78 40.3797C135.655 40.3797 136.268 40.2339 136.647 39.9568C137.011 39.6651 137.201 39.1984 137.201 38.5568V36.1214C137.201 35.4797 137.011 35.013 136.647 34.7359C136.282 34.4589 135.655 34.3276 134.78 34.3276H121.903V40.3797H134.78Z" fill="#2A2F32"/>
<path d="M177.625 48.2255C177.625 49.2464 177.538 50.1068 177.348 50.8214C177.158 51.5214 176.852 52.0901 176.415 52.5276C175.992 52.9651 175.423 53.2714 174.723 53.4609C174.023 53.6505 173.177 53.738 172.156 53.738H153.563C152.542 53.738 151.696 53.6505 151.011 53.4609C150.325 53.2714 149.771 52.9651 149.333 52.5276C148.896 52.0901 148.59 51.5214 148.4 50.8214C148.211 50.1214 148.123 49.2609 148.123 48.2255V34.2547C148.123 32.2276 148.531 30.813 149.333 29.9818C150.136 29.1651 151.55 28.7422 153.548 28.7422H172.142C173.163 28.7422 174.008 28.8443 174.708 29.0484C175.408 29.2526 175.963 29.5589 176.4 29.9818C176.838 30.4047 177.144 30.9734 177.333 31.688C177.523 32.4026 177.611 33.263 177.611 34.2547V48.2255H177.625ZM171.865 48.1964V34.3276H153.883V48.1964H171.865Z" fill="#2A2F32"/>
<path d="M198.29 53.7263H192.501V34.3159H181.111V28.7305H209.68V34.3159H198.29V53.7263Z" fill="#2A2F32"/>
<path d="M54.207 70.4068V63.888H54.1924L51.4799 70.4068H50.8674L48.1695 63.888H48.1549V70.4068H47.4258V63.0859H48.5487L51.1883 69.313L53.8424 63.0859H54.9654V70.4068H54.2362H54.207Z" fill="#2A2F32"/>
<path d="M59.632 70.5401C58.1154 70.5401 56.832 69.2714 56.832 67.7401C56.832 66.2089 58.0716 64.8672 59.632 64.8672C61.1924 64.8672 62.4466 66.1651 62.4466 67.7109C62.4466 69.2568 61.1779 70.5401 59.632 70.5401ZM59.632 65.4943C58.4216 65.4943 57.5174 66.5443 57.5174 67.7401C57.5174 68.9359 58.4508 69.9276 59.632 69.9276C60.8133 69.9276 61.7466 68.8922 61.7466 67.6818C61.7466 66.4714 60.7987 65.4943 59.632 65.4943Z" fill="#2A2F32"/>
<path d="M67.0549 70.538C66.2237 70.538 65.4362 70.1589 64.9695 69.4589H64.9549V70.4068H64.2695V63.0859H64.9549V65.9443H64.9695C65.4508 65.2589 66.2237 64.8651 67.0549 64.8651C68.6299 64.8651 69.9424 66.0755 69.9424 67.6943C69.9424 69.3276 68.6737 70.538 67.0549 70.538ZM67.0549 65.4922C65.8299 65.4922 64.9112 66.513 64.9112 67.7234C64.9112 68.9339 65.8445 69.9255 67.0549 69.9255C68.2654 69.9255 69.257 68.9922 69.257 67.7234C69.257 66.4547 68.3383 65.4922 67.0549 65.4922Z" fill="#2A2F32"/>
<path d="M71.6621 64.3411V63.1016H72.3475V64.3411H71.6621ZM71.6621 70.4078V64.9974H72.3475V70.4078H71.6621Z" fill="#2A2F32"/>
<path d="M74.3613 70.4068V63.0859H75.0467V70.4068H74.3613Z" fill="#2A2F32"/>
<path d="M82.3803 67.9578H77.4949C77.5387 69.0224 78.5303 69.912 79.5803 69.912C80.4116 69.912 81.2137 69.4307 81.5053 68.6286H82.2345C81.8408 69.7516 80.7762 70.5245 79.5949 70.5245C78.0491 70.5245 76.7949 69.2557 76.7949 67.6953C76.7949 66.1349 78.0345 64.8516 79.5803 64.8516C81.1262 64.8516 82.3949 66.1786 82.3949 67.7536C82.3949 67.8266 82.3949 67.8849 82.3949 67.9578H82.3803ZM79.5803 65.4786C78.5158 65.4786 77.6553 66.2661 77.4949 67.3307H81.6803C81.5053 66.2661 80.6595 65.4786 79.5803 65.4786Z" fill="#2A2F32"/>
<path d="M91.2038 70.5375C89.1184 70.5375 87.4121 68.875 87.4121 66.7604C87.4121 64.6458 89.0892 62.9688 91.2038 62.9688C92.2975 62.9688 93.3475 63.45 94.0621 64.2812C94.2517 64.4854 94.4121 64.7187 94.5288 64.9667H93.7121C93.1579 64.1208 92.1954 63.6396 91.1892 63.6396C89.5267 63.6396 88.1413 65.1125 88.1413 66.775C88.1413 68.4375 89.5704 69.8812 91.2038 69.8812C92.2538 69.8812 93.1288 69.3271 93.7413 68.4958H94.5579C93.8871 69.7354 92.6184 70.5375 91.2038 70.5375Z" fill="#2A2F32"/>
<path d="M98.9191 70.5401C97.4025 70.5401 96.1191 69.2714 96.1191 67.7401C96.1191 66.2089 97.3587 64.8672 98.9191 64.8672C100.48 64.8672 101.734 66.1651 101.734 67.7109C101.734 69.2568 100.465 70.5401 98.9191 70.5401ZM98.9191 65.4943C97.7087 65.4943 96.8045 66.5443 96.8045 67.7401C96.8045 68.9359 97.7379 69.9276 98.9191 69.9276C100.1 69.9276 101.034 68.8922 101.034 67.6818C101.034 66.4714 100.086 65.4943 98.9191 65.4943Z" fill="#2A2F32"/>
<path d="M107.552 70.4078V67.4328C107.552 66.9224 107.421 66.3099 107.042 65.9453C106.721 65.6536 106.313 65.4786 105.875 65.4786C105.438 65.4786 105.015 65.6536 104.709 65.9453C104.329 66.2953 104.213 66.8787 104.213 67.3745V70.3932H103.527V64.9828H104.213V65.6828H104.227C104.577 65.1286 105.234 64.8516 105.875 64.8516C107.421 64.8516 108.238 65.9307 108.238 67.4182V70.3932H107.552V70.4078Z" fill="#2A2F32"/>
<path d="M111.549 65.6234V70.4068H110.863V65.6234H109.74V64.9964H110.863V63.0859H111.549V64.9964H112.832V65.6234H111.549Z" fill="#2A2F32"/>
<path d="M119.626 67.9578H114.741C114.785 69.0224 115.776 69.912 116.826 69.912C117.658 69.912 118.46 69.4307 118.751 68.6286H119.481C119.087 69.7516 118.022 70.5245 116.841 70.5245C115.295 70.5245 114.041 69.2557 114.041 67.6953C114.041 66.1349 115.281 64.8516 116.826 64.8516C118.372 64.8516 119.641 66.1786 119.641 67.7536C119.641 67.8266 119.641 67.8849 119.641 67.9578H119.626ZM116.826 65.4786C115.762 65.4786 114.901 66.2661 114.741 67.3307H118.926C118.751 66.2661 117.906 65.4786 116.826 65.4786Z" fill="#2A2F32"/>
<path d="M125.445 70.4078V67.4328C125.445 66.9224 125.314 66.3099 124.934 65.9453C124.614 65.6536 124.205 65.4786 123.768 65.4786C123.33 65.4786 122.907 65.6536 122.601 65.9453C122.222 66.2953 122.105 66.8787 122.105 67.3745V70.3932H121.42V64.9828H122.105V65.6828H122.12C122.47 65.1286 123.126 64.8516 123.768 64.8516C125.314 64.8516 126.13 65.9307 126.13 67.4182V70.3932H125.445V70.4078Z" fill="#2A2F32"/>
<path d="M129.457 65.6234V70.4068H128.771V65.6234H127.648V64.9964H128.771V63.0859H129.457V64.9964H130.74V65.6234H129.457Z" fill="#2A2F32"/>
<path d="M140.233 69.8089C139.577 70.2318 138.629 70.4068 137.87 70.4068H135.756V63.0859H137.87C138.643 63.0859 139.577 63.2609 140.233 63.6839C141.268 64.3401 141.881 65.5359 141.881 66.7609C141.881 67.9859 141.239 69.138 140.233 69.7943V69.8089ZM139.927 64.3255C139.212 63.8151 138.381 63.7568 137.535 63.7568H136.485V69.7505H137.695C138.556 69.7505 139.314 69.6776 140.029 69.1526C140.773 68.613 141.166 67.6505 141.166 66.7464C141.166 65.7839 140.714 64.8651 139.927 64.3255Z" fill="#2A2F32"/>
<path d="M143.705 64.3411V63.1016H144.39V64.3411H143.705ZM143.705 70.4078V64.9974H144.39V70.4078H143.705Z" fill="#2A2F32"/>
<path d="M147.642 70.5401C146.68 70.5401 145.994 69.8401 145.994 68.863V68.8047H146.68C146.68 69.4318 146.986 69.913 147.642 69.913C148.255 69.913 148.648 69.563 148.648 68.9505C148.648 67.5214 146.155 68.1776 146.155 66.3693C146.155 65.4797 146.811 64.8672 147.686 64.8672C148.502 64.8672 149.144 65.5089 149.144 66.3401H148.459C148.43 65.8734 148.138 65.4943 147.657 65.4943C147.19 65.4943 146.84 65.8443 146.84 66.3109C146.84 67.5505 149.334 66.9089 149.334 68.9068C149.334 69.9422 148.663 70.5547 147.642 70.5547V70.5401Z" fill="#2A2F32"/>
<path d="M152.265 65.6234V70.4068H151.58V65.6234H150.457V64.9964H151.58V63.0859H152.265V64.9964H153.549V65.6234H152.265Z" fill="#2A2F32"/>
<path d="M155.691 67.2443V70.4089H155.006V64.9984H155.691V65.7859H155.706C155.998 65.1005 156.523 64.9109 157.223 64.8672V65.5964C156.275 65.6693 155.691 66.2818 155.691 67.2443Z" fill="#2A2F32"/>
<path d="M158.695 64.3411V63.1016H159.381V64.3411H158.695ZM158.695 70.4078V64.9974H159.381V70.4078H158.695Z" fill="#2A2F32"/>
<path d="M164.223 70.538C163.392 70.538 162.604 70.1589 162.138 69.4589H162.123V70.4068H161.438V63.0859H162.123V65.9443H162.138C162.619 65.2589 163.377 64.8651 164.223 64.8651C165.798 64.8651 167.11 66.0755 167.11 67.6943C167.11 69.313 165.842 70.538 164.223 70.538ZM164.223 65.4922C163.013 65.4922 162.079 66.513 162.079 67.7234C162.079 68.9339 163.013 69.9255 164.223 69.9255C165.433 69.9255 166.425 68.9922 166.425 67.7234C166.425 66.4547 165.506 65.4922 164.223 65.4922Z" fill="#2A2F32"/>
<path d="M172.857 70.4094V69.5635H172.842C172.536 70.2198 171.836 70.526 171.121 70.526C170.407 70.526 169.721 70.2781 169.269 69.7094C168.89 69.2281 168.803 68.5719 168.803 67.974V64.9844H169.488V67.9594C169.488 69.0823 169.896 69.899 171.121 69.899C171.574 69.899 171.924 69.7823 172.259 69.4615C172.726 69.0094 172.813 68.4698 172.813 67.8427V64.9844H173.499V70.3948H172.842L172.857 70.4094Z" fill="#2A2F32"/>
<path d="M176.851 65.6234V70.4068H176.166V65.6234H175.043V64.9964H176.166V63.0859H176.851V64.9964H178.135V65.6234H176.851Z" fill="#2A2F32"/>
<path d="M179.607 64.3411V63.1016H180.293V64.3411H179.607ZM179.607 70.4078V64.9974H180.293V70.4078H179.607Z" fill="#2A2F32"/>
<path d="M184.872 70.5401C183.37 70.5401 182.072 69.2714 182.072 67.7401C182.072 66.2089 183.312 64.8672 184.872 64.8672C186.433 64.8672 187.687 66.1651 187.687 67.7109C187.687 69.2568 186.418 70.5401 184.872 70.5401ZM184.872 65.4943C183.662 65.4943 182.758 66.5443 182.758 67.7401C182.758 68.9359 183.691 69.9276 184.872 69.9276C186.054 69.9276 186.987 68.8922 186.987 67.6818C186.987 66.5005 186.039 65.4943 184.872 65.4943Z" fill="#2A2F32"/>
<path d="M193.505 70.4078V67.4328C193.505 66.9224 193.374 66.3099 192.995 65.9453C192.674 65.6536 192.266 65.4786 191.828 65.4786C191.391 65.4786 190.968 65.6536 190.662 65.9453C190.297 66.2953 190.166 66.8787 190.166 67.3745V70.3932H189.48V64.9828H190.166V65.6828H190.18C190.53 65.1286 191.187 64.8516 191.828 64.8516C193.374 64.8516 194.191 65.9307 194.191 67.4182V70.3932H193.505V70.4078Z" fill="#2A2F32"/>
<path d="M203.642 67.038C203.088 67.4172 202.417 67.4609 201.775 67.4609H200.477V70.4068H199.748V63.0859H201.775C202.417 63.0859 203.102 63.1297 203.642 63.5089C204.225 63.9172 204.546 64.5589 204.546 65.2734C204.546 65.988 204.225 66.6297 203.642 67.038ZM202.971 63.9464C202.563 63.7422 202.183 63.7568 201.731 63.7568H200.477V66.8047H201.731C202.183 66.8047 202.563 66.8047 202.971 66.6151C203.511 66.3526 203.817 65.8859 203.817 65.2734C203.817 64.6609 203.511 64.1943 202.971 63.9464Z" fill="#2A2F32"/>
<path d="M206.193 70.4068V63.0859H206.879V70.4068H206.193Z" fill="#2A2F32"/>
<path d="M213.661 70.4089V69.4609H213.647C213.18 70.1755 212.393 70.5401 211.561 70.5401C209.957 70.5401 208.674 69.3297 208.674 67.6964C208.674 66.063 209.986 64.8672 211.561 64.8672C212.407 64.8672 213.195 65.2172 213.647 65.9464H213.661V64.9984H214.347V70.4089H213.661ZM211.547 65.4797C210.278 65.4797 209.345 66.4422 209.345 67.7109C209.345 68.9797 210.293 69.913 211.547 69.913C212.801 69.913 213.69 68.9214 213.69 67.7109C213.69 66.5005 212.757 65.4797 211.547 65.4797Z" fill="#2A2F32"/>
<path d="M217.656 65.6234V70.4068H216.971V65.6234H215.848V64.9964H216.971V63.0859H217.656V64.9964H218.939V65.6234H217.656Z" fill="#2A2F32"/>
<path d="M221.462 65.6258V70.4091H220.777V65.6258H219.945V64.9987H220.777C220.777 64.7362 220.791 64.4591 220.864 64.182C221.112 63.2195 221.929 62.9716 222.833 62.957V63.5987C221.841 63.5987 221.462 64.007 221.462 64.9549V64.9987H222.833V65.6258H221.462Z" fill="#2A2F32"/>
<path d="M226.786 70.5401C225.27 70.5401 223.986 69.2714 223.986 67.7401C223.986 66.2089 225.226 64.8672 226.786 64.8672C228.347 64.8672 229.601 66.1651 229.601 67.7109C229.601 69.2568 228.318 70.5401 226.786 70.5401ZM226.786 65.4943C225.576 65.4943 224.672 66.5443 224.672 67.7401C224.672 68.9359 225.605 69.9276 226.786 69.9276C227.968 69.9276 228.901 68.8922 228.901 67.6818C228.901 66.5005 227.953 65.4943 226.786 65.4943Z" fill="#2A2F32"/>
<path d="M232.064 67.2443V70.4089H231.379V64.9984H232.064V65.7859H232.079C232.371 65.1005 232.896 64.9109 233.596 64.8672V65.5964C232.648 65.6693 232.064 66.2818 232.064 67.2443Z" fill="#2A2F32"/>
<path d="M242.579 70.4089V67.2734C242.579 66.3109 242.171 65.4797 241.121 65.4797C240.071 65.4797 239.663 66.3109 239.663 67.2734V70.4089H238.977V67.2734C238.977 66.3109 238.569 65.4797 237.519 65.4797C236.469 65.4797 236.06 66.3109 236.06 67.2734V70.4089H235.375V64.9984H236.06V65.6255C236.381 65.1151 236.935 64.8672 237.519 64.8672C238.277 64.8672 238.948 65.2318 239.327 65.9026C239.735 65.2464 240.348 64.8672 241.135 64.8672C242.506 64.8672 243.279 65.8734 243.279 67.2005V70.4089H242.594H242.579Z" fill="#2A2F32"/>
<path d="M17.2379 31.5856C15.1379 31.921 13.0671 32.3585 11.04 32.8689C9.28997 38.6148 8.23997 44.6377 7.96289 50.8064C15.8962 45.8773 24.9087 42.3918 34.6941 40.8314C36.24 40.5835 37.7712 40.3939 39.3171 40.2481C40.3671 37.4043 41.6941 34.7064 43.3858 32.2127C35.015 30.4627 26.1921 30.171 17.2525 31.5856H17.2379Z" fill="#2A2F32"/>
<path d="M10.7771 0.539062C5.46875 8.67656 1.76458 17.8786 0 27.6495C3.12083 26.7016 6.34375 25.9432 9.65417 25.4182C22.2833 23.3911 34.6792 24.7766 45.9083 28.8891C48.4458 25.9141 51.4792 23.3328 54.8771 21.2911C43.1521 9.66823 27.6354 2.14323 10.7771 0.539062Z" fill="#2A2F32"/>
<path d="M20.431 50.7477C19.6289 54.8456 19.5268 59.1622 20.2268 63.5372C20.606 65.9289 21.2039 68.2331 22.006 70.4206C25.0976 63.3477 30.3768 57.3539 37.0997 53.431C37.0414 50.2372 37.3914 47.1018 38.1206 44.0977C31.8351 45.556 25.9143 47.8164 20.431 50.7331V50.7477Z" fill="#2A2F32"/>
</g>
<defs>
<clipPath id="clip0_4660_88295">
<rect width="243.265" height="70" fill="white" transform="translate(0 0.539062)"/>
</clipPath>
</defs>
</svg>
