<svg width="246" height="71" viewBox="0 0 246 71" fill="none" xmlns="http://www.w3.org/2000/svg">
<g clip-path="url(#clip0_4660_88133)">
<path d="M99.2211 20.5531C98.4992 20.2469 97.6023 20.0719 95.8523 20.0719H89.4211V28.2313H95.5023C97.3398 28.2313 98.4336 28.0125 99.2867 27.5969C100.73 26.875 101.452 25.6281 101.452 23.9219C101.452 22.3906 100.643 21.1875 99.243 20.5531H99.2211ZM97.6461 8.30313C96.968 7.99688 96.1586 7.82188 94.8461 7.82188H89.3992V15.5438H94.5398C96.1586 15.5438 97.143 15.2813 97.8648 14.8656C99.0461 14.1875 99.6148 13.0719 99.6148 11.6281C99.6148 10.1844 98.9367 8.9375 97.6461 8.30313ZM84.3242 32.8031V3.25H95.218C97.5586 3.25 99.0898 3.6 100.359 4.19063C103.377 5.63438 104.734 8.36875 104.734 10.8844C104.734 13.7063 103.552 15.6313 101.168 17.075V17.1625C104.58 17.9281 106.659 20.2906 106.659 23.9C106.659 27.8813 104.23 30.9438 100.096 32.1906C98.6086 32.6281 96.9898 32.825 94.4305 32.825H84.3461L84.3242 32.8031Z" fill="#2A2F32"/>
<path d="M141.419 3.25H136.322V32.8031H141.419V3.25Z" fill="#2A2F32"/>
<path d="M178.345 3.25H173.27V32.8031H178.345V3.25Z" fill="#2A2F32"/>
<path d="M194.771 2.96875C197.965 2.96875 201.203 3.73438 202.996 4.63125L202.909 9.4875C200.35 8.24062 197.725 7.43125 194.618 7.43125C191.84 7.43125 189.434 8.28437 189.434 10.625C189.434 16.6844 204.703 14.2563 204.703 24.2531C204.703 29.7656 200.021 33.2656 193.218 33.2656C188.581 33.2656 185.387 31.975 183.178 30.6188L185.3 26.4844C187.115 27.6 189.981 28.825 193.415 28.825C196.478 28.825 199.321 27.6438 199.321 24.975C199.321 18.6531 184.206 21.4312 184.206 11.325C184.206 5.94375 188.515 2.99062 194.771 2.99062V2.96875Z" fill="#2A2F32"/>
<path d="M228.809 3.25H233.906V32.8031H228.809V20.0719H214.394V32.8031H209.297V3.25H214.394V15.3688H228.809V3.25Z" fill="#2A2F32"/>
<path d="M95.5461 38.0117C98.7836 38.0117 101.255 38.6461 103.793 39.7617L102.262 44.0711C100.818 43.393 98.9367 42.5836 96.093 42.5836C90.4711 42.5836 86.9492 47.3305 86.9492 53.1273C86.9492 58.9242 90.2305 63.7148 96.093 63.7148C98.9148 63.7148 100.818 62.9055 102.262 62.2273L103.793 66.5367C101.277 67.6523 98.7836 68.2867 95.5461 68.2867C86.6648 68.2867 81.5898 62.0961 81.5898 53.2148C81.5898 44.9242 86.6648 38.0117 95.5461 38.0117Z" fill="#2A2F32"/>
<path d="M206.847 38.0117C210.084 38.0117 212.556 38.6461 215.072 39.7617L213.541 44.0711C212.097 43.393 210.216 42.5836 207.372 42.5836C201.75 42.5836 198.228 47.3305 198.228 53.1273C198.228 58.9242 201.509 63.7148 207.372 63.7148C210.216 63.7148 212.097 62.9055 213.541 62.2273L215.072 66.5367C212.556 67.6523 210.084 68.2867 206.847 68.2867C197.966 68.2867 192.891 62.0961 192.891 53.2148C192.891 44.9242 197.988 38.0117 206.847 38.0117Z" fill="#2A2F32"/>
<path d="M127.505 53.1273C127.505 46.6742 123.809 42.5398 118.821 42.5398C113.834 42.5398 110.137 46.6742 110.137 53.1711C110.137 59.668 113.834 63.7586 118.821 63.7586C123.809 63.7586 127.505 59.6461 127.505 53.1273ZM132.865 53.0398C132.865 61.9211 127.199 68.2867 118.821 68.2867C110.443 68.2867 104.777 62.1398 104.777 53.2586C104.777 44.3773 110.443 38.0117 118.821 38.0117C127.199 38.0117 132.865 44.1586 132.865 53.0398Z" fill="#2A2F32"/>
<path d="M136.301 56.7141V38.2734H141.398V56.8891C141.398 61.8109 144.045 63.6703 148.288 63.6703C152.532 63.6703 155.179 61.8328 155.179 56.8891V38.2734H160.276V56.7141C160.276 64.7422 155.682 68.2859 148.223 68.2859C140.763 68.2859 136.345 64.7422 136.345 56.7141H136.301Z" fill="#2A2F32"/>
<path d="M169.813 46.3016H169.725C169.813 47.2859 169.857 48.8609 169.857 50.2391V67.8266H164.76V38.2734H170.25L184.01 58.4203H184.097C184.01 57.4359 183.966 55.8609 183.966 54.4609V38.2734H189.041V67.8266H184.535L169.769 46.3016H169.813Z" fill="#2A2F32"/>
<path d="M224.149 38.2734H219.074V67.8484H224.149V38.2734Z" fill="#2A2F32"/>
<path d="M233.884 63.2531H245.499V67.825H228.809V38.25H233.905V63.2313L233.884 63.2531Z" fill="#2A2F32"/>
<path d="M145.291 3.25V7.86563H154.785V32.8031H159.882V7.86563H169.375V3.25H145.291Z" fill="#2A2F32"/>
<path d="M120.462 7.82188H115.19V16.7906H120.221C123.875 16.7906 125.581 14.9094 125.581 12.2188C125.581 9.79063 124.006 7.82188 120.44 7.82188H120.462ZM127.156 32.8031C122.846 23.8781 121.709 21.3625 119.915 21.3625H115.19V32.8031H110.115V3.25H120.156C127.812 3.25 130.743 7.29688 130.743 11.7813C130.743 15.7188 128.446 18.3656 125.253 19.35V19.3938C126.609 20.1594 128.031 22.9375 132.996 32.8031H127.2H127.156Z" fill="#2A2F32"/>
<path d="M34.4281 17.4484C34.4281 26.7891 26.8375 34.3578 17.4531 34.3578C8.06875 34.3578 0.5 26.7891 0.5 17.4484C0.5 8.10781 8.09063 0.539062 17.475 0.539062C26.8375 0.539062 34.45 8.10781 34.45 17.4484H34.4281Z" fill="#2A2F32"/>
<path d="M70.741 17.4484C70.741 26.7891 63.1504 34.3578 53.766 34.3578C44.3816 34.3578 36.791 26.7891 36.791 17.4484C36.791 8.10781 44.4035 0.539062 53.766 0.539062C63.1285 0.539062 70.741 8.10781 70.741 17.4484Z" fill="#2A2F32"/>
<path d="M34.4281 53.6281C34.4281 62.9687 26.8375 70.5375 17.4531 70.5375C8.06875 70.5375 0.5 62.9687 0.5 53.6281C0.5 44.2875 8.09063 36.7188 17.475 36.7188C26.8594 36.7188 34.45 44.2875 34.45 53.6281H34.4281Z" fill="#2A2F32"/>
<path d="M70.741 53.6281C70.741 62.9687 63.1504 70.5375 53.766 70.5375C44.3816 70.5375 36.791 62.9687 36.791 53.6281C36.791 44.2875 44.3816 36.7188 53.766 36.7188C63.1504 36.7188 70.741 44.2875 70.741 53.6281Z" fill="#2A2F32"/>
</g>
<defs>
<clipPath id="clip0_4660_88133">
<rect width="245" height="70" fill="white" transform="translate(0.5 0.539062)"/>
</clipPath>
</defs>
</svg>
