<svg width="180" height="71" viewBox="0 0 180 71" fill="none" xmlns="http://www.w3.org/2000/svg">
<g clip-path="url(#clip0_4660_88003)">
<path d="M0.494141 32.7853C0.792472 31.0852 0.972189 29.3563 1.4089 27.6921C5.03201 13.8898 13.7106 4.91292 27.5812 1.59173C39.7768 -1.32868 50.6569 1.88647 59.7776 10.5021C65.5789 15.9835 68.9719 22.8146 70.0592 30.7401C72.1296 45.8364 64.4646 60.239 50.8043 66.9856C36.1124 74.2408 18.013 70.0965 7.95242 57.1712C3.76859 51.7976 1.31545 45.7322 0.657684 38.946C0.637915 38.7465 0.549853 38.5525 0.494141 38.3566C0.494141 36.5001 0.494141 34.6418 0.494141 32.7853ZM38.6158 35.251C38.5439 30.077 38.3858 25.1958 37.4908 20.3848C37.1493 18.5517 36.585 16.7347 35.8913 15.0041C35.3737 13.7137 34.3673 13.7317 33.776 14.9969C33.2135 16.2028 32.7822 17.4967 32.4947 18.7979C31.5278 23.1668 31.2582 27.6184 31.1432 32.079C30.9832 38.1966 31.1899 44.2944 32.3347 50.3186C32.642 51.9414 33.2135 53.5427 33.8731 55.0613C34.3457 56.1486 35.2695 56.127 35.8158 55.0721C36.319 54.1016 36.7162 53.0485 36.9768 51.9863C38.3445 46.3935 38.4846 40.6749 38.6158 35.2492V35.251ZM20.2649 34.9383C20.5057 37.6161 20.6243 40.3101 21.0287 42.9627C21.2893 44.6808 21.9003 46.3612 22.497 48.0056C22.6659 48.4747 23.3327 49.0569 23.7658 49.0534C24.2025 49.0498 24.7794 48.4603 25.0346 47.9876C25.4695 47.1843 25.802 46.2947 26.0015 45.4015C27.4644 38.8652 27.4823 32.2911 26.2585 25.726C25.9943 24.3116 25.4605 22.9116 24.8297 21.6123C24.2654 20.4513 23.3165 20.4944 22.6497 21.6195C22.2436 22.3042 21.9237 23.0644 21.7026 23.83C20.6585 27.4531 20.432 31.1786 20.2631 34.9383H20.2649ZM42.4923 36.04C42.681 37.8767 42.859 40.8061 43.3226 43.6906C43.5778 45.2811 44.1907 46.85 44.8682 48.3237C45.3894 49.4577 46.3491 49.4397 46.9799 48.3507C47.4813 47.4844 47.8911 46.5211 48.1139 45.5489C49.6541 38.8706 49.6433 32.1509 48.3583 25.4403C48.0995 24.087 47.5568 22.7535 46.9332 21.5188C46.4174 20.4962 45.5314 20.5304 44.9059 21.4973C44.507 22.1137 44.1979 22.8146 43.9732 23.5155C42.7871 27.2338 42.6703 31.0924 42.4923 36.04ZM16.5232 35.6752C16.3542 33.4161 16.3506 31.8777 16.0936 30.3825C15.8636 29.0472 15.4466 27.7227 14.9362 26.4646C14.6074 25.6541 13.8957 25.6757 13.432 26.4269C13.1229 26.9265 12.8659 27.4926 12.7329 28.0623C11.6852 32.5535 11.6654 37.0608 12.6682 41.5627C12.7904 42.1109 12.9719 42.6662 13.2469 43.1496C13.45 43.5073 13.8436 43.9727 14.1653 43.9835C14.4744 43.9943 14.8715 43.5288 15.1034 43.1874C15.3478 42.8279 15.5239 42.3804 15.5922 41.9491C15.9606 39.6272 16.2859 37.2962 16.5232 35.6752ZM57.9283 34.9635L57.7665 34.9293C57.6659 33.4682 57.6749 31.9892 57.4323 30.5532C57.2004 29.1856 56.8068 27.8233 56.2947 26.5347C55.937 25.6326 55.1804 25.6631 54.6862 26.5078C54.404 26.9912 54.1812 27.5304 54.0482 28.0731C53.0184 32.2911 53.0328 36.5414 53.8074 40.7899C53.9763 41.7119 54.325 42.6284 54.7473 43.4677C55.1516 44.2729 55.7753 44.2585 56.2389 43.4929C56.5427 42.9897 56.8284 42.4254 56.9219 41.8575C57.2993 39.5679 57.5994 37.2639 57.9283 34.9653V34.9635Z" fill="#2A2F32"/>
<path d="M147.828 50.5728C141.55 50.571 136.717 45.8031 136.725 39.6226C136.732 33.4619 141.604 28.6562 147.84 28.6562C154.116 28.6562 159.008 33.4889 159.002 39.6801C158.997 45.8175 154.116 50.5764 147.828 50.5728ZM152.905 39.4213C152.858 39.0763 152.808 38.5713 152.716 38.0735C152.301 35.8324 150.646 34.0837 148.545 33.6488C146.392 33.2031 144.399 33.9939 143.162 35.9815C141.753 38.2442 141.681 40.656 143.038 42.9528C144.853 46.026 148.98 46.4267 151.307 43.8568C152.409 42.6401 152.842 41.1862 152.905 39.4213Z" fill="#2A2F32"/>
<path d="M101.132 50.5746C94.8432 50.58 89.998 45.8265 89.998 39.655C89.998 33.4853 94.8576 28.6634 101.083 28.6563C107.368 28.6491 112.274 33.4673 112.276 39.6496C112.276 45.7995 107.411 50.5692 101.133 50.5728L101.132 50.5746ZM95.377 39.7646C95.4201 40.0827 95.4686 40.5895 95.5621 41.0873C96.0204 43.5189 98.0009 45.3215 100.429 45.5335C102.665 45.7276 104.879 44.2701 105.72 42.0075C106.408 40.151 106.324 38.2999 105.45 36.5279C103.779 33.1348 99.4135 32.4717 96.9927 35.2142C95.891 36.4614 95.4435 37.9459 95.377 39.7664V39.7646Z" fill="#2A2F32"/>
<path d="M178.955 35.2113C177.035 35.2113 175.245 35.2167 173.455 35.2023C173.299 35.2023 173.08 35.1214 172.994 35.0028C171.678 33.1913 169.789 33.4051 167.935 33.5956C167.417 33.6495 166.862 33.8382 166.436 34.1294C166.116 34.3468 165.783 34.8447 165.812 35.1879C165.841 35.533 166.252 36.0182 166.599 36.1314C167.642 36.4765 168.733 36.676 169.807 36.9204C171.667 37.3445 173.562 37.6519 175.38 38.209C177.537 38.8685 179.151 40.2128 179.445 42.621C179.753 45.1299 178.802 47.1481 176.757 48.602C174.122 50.4747 171.116 50.7964 168.01 50.4819C165.927 50.2716 163.984 49.6121 162.308 48.3001C160.685 47.0295 159.714 45.3797 159.348 43.2357C161.215 43.2357 163.001 43.2267 164.786 43.2501C164.951 43.2519 165.174 43.4082 165.269 43.5556C166.116 44.8837 167.404 45.5235 168.887 45.5612C170.172 45.5936 171.48 45.3743 172.749 45.1191C173.375 44.9933 173.921 44.411 173.711 43.7137C173.562 43.2195 173.112 42.5779 172.668 42.4503C171.098 41.9974 169.462 41.78 167.868 41.3936C166.335 41.0234 164.752 40.7268 163.321 40.0996C159.429 38.3923 158.773 33.9946 161.894 31.0904C163.596 29.5071 165.71 28.887 167.953 28.6947C170.37 28.4863 172.735 28.7415 174.92 29.9168C177.003 31.0364 178.385 32.7006 178.949 35.2077L178.955 35.2113Z" fill="#2A2F32"/>
<path d="M120.148 49.8219H114.492V29.2299H119.833V31.0019C120.098 30.8257 120.267 30.7377 120.407 30.6155C122.921 28.4247 125.787 28.1551 128.81 29.2101C131.794 30.2524 133.404 32.5313 133.995 35.5559C134.166 36.4293 134.189 37.3387 134.193 38.2337C134.213 42.0635 134.202 45.8933 134.202 49.7896H128.494C128.494 49.4966 128.494 49.1821 128.494 48.8676C128.494 45.1546 128.507 41.4417 128.485 37.7287C128.474 35.732 127.633 34.4489 126.075 33.9331C124.172 33.3023 121.954 33.8091 120.985 35.3331C120.489 36.113 120.209 37.1572 120.186 38.0899C120.096 41.6501 120.15 45.2157 120.15 48.7777C120.15 49.1012 120.15 49.4247 120.15 49.8183L120.148 49.8219Z" fill="#2A2F32"/>
<path d="M78.2012 29.1816H80.2895C80.5213 26.1893 81.2977 23.4809 83.918 21.7125C85.7152 20.4994 87.7316 20.2478 89.9152 20.4491V25.4057C88.7488 25.5207 87.3937 25.4201 86.6551 26.5828C86.2022 27.2963 86.0494 28.1985 85.699 29.1869H89.7606V33.838H85.9236V49.8077H80.3326V33.9117H78.203V29.1816H78.2012Z" fill="#2A2F32"/>
</g>
<defs>
<clipPath id="clip0_4660_88003">
<rect width="179.011" height="70" fill="white" transform="translate(0.494141 0.539062)"/>
</clipPath>
</defs>
</svg>
