<svg width="280" height="57" viewBox="0 0 280 57" fill="none" xmlns="http://www.w3.org/2000/svg">
<g clip-path="url(#clip0_4660_87991)">
<path d="M35.8233 24.1781C36.1192 23.896 36.36 23.6759 36.587 23.442C38.9468 21.089 41.286 18.7154 43.6596 16.3831C47.0514 13.0464 51.145 11.4433 55.8921 11.5809C63.5977 11.8011 70.2299 17.6903 71.4339 25.2651C72.8856 34.4017 66.8656 42.2586 58.8299 43.9511C53.2709 45.1275 48.2967 43.8135 44.1137 39.9469C41.5337 37.5665 39.1188 35.0071 36.6352 32.5235C36.4012 32.2896 36.188 32.0281 35.899 31.7048C35.5963 31.98 35.3555 32.1932 35.1285 32.4134C32.7686 34.7663 30.4157 37.1262 28.0628 39.4791C24.8636 42.6714 20.9833 44.3432 16.4907 44.3501C8.23475 44.3708 1.96024 38.6604 0.391617 31.5465C-1.56229 22.692 3.83159 14.0508 12.6517 12.0212C18.4377 10.6934 23.577 12.1657 27.877 16.2799C30.3263 18.626 32.6792 21.0684 35.0803 23.4626C35.3073 23.6896 35.5481 23.9167 35.8165 24.1712L35.8233 24.1781ZM32.0187 27.9621C31.8192 27.7419 31.6472 27.5355 31.4546 27.3498C29.0603 24.9555 26.6799 22.5407 24.265 20.1671C21.747 17.6834 18.7129 16.5964 15.1835 16.9611C7.78068 17.7247 3.23303 25.5747 6.23957 32.4065C9.36994 39.5341 18.6097 41.3092 24.1962 35.8396C26.6799 33.4041 29.1223 30.9273 31.5784 28.4643C31.7229 28.3198 31.8536 28.1547 32.0256 27.969L32.0187 27.9621ZM39.6555 27.9483C39.6967 28.024 39.7174 28.0859 39.7587 28.1272C42.4556 30.8241 45.0975 33.5761 47.8701 36.1905C50.3744 38.5503 53.4704 39.4103 56.8553 38.9287C63.4669 37.993 67.705 31.4846 65.9644 25.0381C64.7604 20.5661 60.6531 16.8303 55.1216 16.8716C52.1563 16.8991 49.5763 17.9999 47.4573 20.0983C44.9874 22.5476 42.5313 25.0175 40.0751 27.4805C39.9307 27.6318 39.7931 27.7901 39.6623 27.9414L39.6555 27.9483Z" fill="#2A2F32"/>
<path d="M82.6358 41.6483V55.2844C82.3056 55.3119 82.051 55.36 81.7896 55.36C72.7631 55.36 63.7366 55.4839 54.717 55.3325C45.4703 55.1743 38.1638 51.1151 32.7149 43.671C32.5911 43.499 32.481 43.3201 32.426 43.2376C33.7607 41.9029 35.061 40.6026 36.4026 39.261C41.0052 46.2785 47.5687 50.0831 56.1824 49.7942C62.34 49.5878 67.5412 47.0284 71.6279 42.3913C79.6224 33.3029 78.728 19.5086 69.6809 11.5692C66.3854 8.67961 62.5601 6.90458 58.2189 6.29915C53.8432 5.68683 49.6465 6.35419 45.6698 8.28057C41.7276 10.1863 38.6523 13.069 36.4026 16.7498C35.0541 15.4013 33.7538 14.101 32.3984 12.7457C32.6324 12.4085 32.9076 11.9751 33.2171 11.5761C37.7098 5.67307 43.6128 2.00606 50.9468 0.884633C65.0644 -1.28255 77.5171 7.33802 81.3974 19.8733C83.5439 26.8014 85.663 33.7432 87.7889 40.6782C87.8783 40.9603 87.9471 41.2493 88.0572 41.6483H82.6289H82.6358Z" fill="#2A2F32"/>
<path d="M162.497 23.4097H156.381V16.915H162.463C162.463 16.4884 162.463 16.1651 162.463 15.8417C162.449 14.0185 162.621 12.216 163.089 10.4479C164.368 5.64565 167.526 2.72167 172.239 1.4076C175.576 0.478812 178.988 0.341213 182.415 0.74713C183.736 0.905369 185.043 1.14617 186.357 1.35944C186.625 1.40072 186.887 1.48328 187.175 1.5452V7.58579C184.823 7.40692 182.532 7.20052 180.241 7.07668C178.238 6.9666 176.25 7.1386 174.31 7.68899C171.427 8.50771 169.838 10.441 169.405 13.3581C169.274 14.2525 169.267 15.1675 169.219 16.0688C169.205 16.3027 169.253 16.5366 169.274 16.8806H190.038V55.3051H183.398V23.5748C182.669 23.3615 170.705 23.2996 169.363 23.4716C169.343 23.4922 169.315 23.506 169.295 23.5335C169.274 23.5541 169.26 23.5817 169.253 23.6092C169.239 23.6642 169.226 23.7261 169.219 23.7881C169.219 23.8156 169.219 23.85 169.219 23.8775C169.219 23.9669 169.219 24.0564 169.219 24.1527C169.219 34.4176 169.219 44.6825 169.219 54.9405C169.219 55.0024 169.205 55.0574 169.198 55.1193C169.198 55.1469 169.184 55.1744 169.171 55.2019C168.551 55.3945 163.908 55.4496 162.504 55.2707V23.4097H162.497Z" fill="#2A2F32"/>
<path d="M280.001 55.3225H273.362C273.238 54.3043 273.32 53.2792 273.307 52.2679C273.293 51.2496 273.307 50.2245 273.307 49.0136C273.052 49.2888 272.908 49.4196 272.798 49.5709C268.903 54.8341 263.565 56.7054 257.214 56.3133C248.298 55.7629 241.287 48.3944 239.849 40.9022C238.191 32.2816 240.51 25.0095 247.596 19.5537C251.525 16.5265 256.065 15.5496 260.957 16.0174C264.005 16.3064 266.805 17.2627 269.275 19.1065C270.548 20.0559 271.642 21.1774 272.598 22.4433C272.777 22.6772 272.956 22.9111 273.293 23.1175V16.96H280.021V55.3294L280.001 55.3225ZM246.028 36.1069C246.103 36.8912 246.158 37.6755 246.255 38.4529C246.317 38.962 246.42 39.4712 246.557 39.9596C249.007 48.7247 258.556 52.2335 266.117 48.2912C272.901 44.755 274.731 37.1045 272.309 30.8919C269.64 24.0394 262.402 20.8747 255.261 23.09C249.708 24.81 246.076 30.0456 246.021 36.1069H246.028Z" fill="#2A2F32"/>
<path d="M205.827 55.3107H199.092V16.9206C201.28 16.8724 203.474 16.9 205.793 16.9068C205.869 18.6062 205.793 20.2574 205.841 22.0737C206.089 21.8191 206.24 21.6953 206.35 21.5439C208.992 17.8976 212.652 16.1982 217.062 15.9299C219.408 15.7923 221.734 15.9987 223.949 16.8312C228.586 18.5787 231.407 21.9774 232.576 26.7314C232.934 28.1899 233.127 29.7173 233.134 31.2171C233.189 38.9639 233.161 46.7176 233.161 54.4713V55.1731C232.501 55.3932 227.933 55.462 226.426 55.2625V54.2305C226.426 46.9034 226.44 39.5763 226.405 32.2491C226.405 31.107 226.281 29.9443 226.013 28.8367C225.146 25.2316 222.339 22.8442 218.631 22.4452C216.993 22.2732 215.356 22.287 213.76 22.7066C209.714 23.7661 207.258 26.3736 206.288 30.4191C205.944 31.8707 205.827 33.343 205.827 34.8291C205.827 41.2756 205.827 47.729 205.827 54.1755V55.3038V55.3107Z" fill="#2A2F32"/>
<path d="M151.924 55.3169H145.188V54.2162C145.188 46.9785 145.202 39.7408 145.175 32.503C145.175 31.4229 145.071 30.3221 144.858 29.2626C144.094 25.4442 141.322 22.9262 137.448 22.4652C135.818 22.2726 134.174 22.2863 132.577 22.6991C128.498 23.7518 126.007 26.3661 125.044 30.4597C124.666 32.0627 124.555 33.6933 124.555 35.3238C124.542 41.5915 124.555 47.8591 124.555 54.1267V55.1931C123.874 55.3926 118.996 55.4408 117.875 55.2619V17.0645C118.487 16.8649 123.29 16.8099 124.555 17.0094V19.4931C124.555 20.3324 124.555 21.1649 124.555 22.2038C124.817 21.9011 124.954 21.7635 125.071 21.6052C127.438 18.3235 130.665 16.5209 134.669 16.0462C137.29 15.7366 139.884 15.8536 142.381 16.7205C147.245 18.406 150.176 21.8942 151.367 26.8271C151.717 28.2856 151.903 29.8199 151.91 31.3197C151.965 39.039 151.938 46.7652 151.938 54.4845V55.3101L151.924 55.3169Z" fill="#2A2F32"/>
<path d="M108.806 55.3166H102.146V16.9609H108.806V55.3166Z" fill="#2A2F32"/>
<path d="M105.531 9.96311C102.951 9.98376 100.907 8.01609 100.914 5.49803C100.921 2.88365 103.102 0.943507 105.469 0.929748C108.021 0.915988 110.016 3.26893 109.975 5.44299C109.927 7.99545 108.062 9.94936 105.531 9.96999V9.96311Z" fill="#2A2F32"/>
</g>
<defs>
<clipPath id="clip0_4660_87991">
<rect width="280" height="55.8239" fill="white" transform="translate(0 0.539062)"/>
</clipPath>
</defs>
</svg>
