<svg width="280" height="71" viewBox="0 0 280 71" fill="none" xmlns="http://www.w3.org/2000/svg">
<g clip-path="url(#clip0_4660_88123)">
<path d="M0.00584021 37.3096C-0.185487 26.9341 4.324 15.3694 13.5582 8.05151C16.763 5.51963 20.3849 3.58365 24.2566 2.33255C41.4602 -3.18958 59.2802 4.39795 66.2185 20.1743C71.0522 31.1646 69.673 46.4341 57.6539 54.8898C55.0497 56.753 52.6449 58.8858 50.4791 61.2586C45.0635 67.1286 38.1358 70.1566 31.1763 70.5125C18.5221 71.1462 7.09293 60.0749 2.6366 49.7102C1.83408 47.847 1.21227 45.911 0.776465 43.9265C0.308776 41.7532 0.0510148 39.5368 0.00584021 37.3096ZM53.8619 45.2261C53.8646 43.8051 53.7583 42.3869 53.543 40.9848C53.1152 38.3369 51.3587 29.2421 44.1281 24.8606C36.8975 20.479 29.0531 24.0517 27.3072 32.4104C24.703 44.881 36.3421 58.2953 48.9033 57.1467C49.9291 57.0523 50.9947 55.9765 51.8264 54.9896C53.9496 52.4308 53.9124 48.9363 53.8672 45.2261H53.8619Z" fill="#2A2F32"/>
<path d="M180.969 48.3023L191.067 24.1133H196.308V55.1025H192.234V33.6476C192.234 33.1299 192.215 32.6122 192.205 32.0945L191.631 33.4427L182.543 55.0998H179.391L170 31.8653V55.0539H165.541V24.116H170.84L180.969 48.3023Z" fill="#2A2F32"/>
<path d="M109.612 36.9577C110.55 43.6824 107.361 52.1409 99.8542 54.8777C93.7663 57.0995 86.8068 54.9262 83.0599 50.1132C78.4813 44.2379 78.6089 34.5364 83.3389 28.7284C87.7368 23.3357 95.6052 21.7638 101.85 25.2232C108.278 28.8093 109.487 35.9951 109.612 36.9577ZM84.734 40.161C84.7287 40.7515 84.7659 41.3447 84.843 41.9298C85.494 45.9743 87.2957 49.2261 91.2976 50.6174C94.9594 51.8874 98.4512 51.4021 101.366 48.6221C106.136 44.068 105.78 34.2587 100.71 30.0362C100 29.443 99.2032 28.9684 98.3475 28.6233C91.2206 25.7921 84.7234 31.0635 84.734 40.161Z" fill="#2A2F32"/>
<path d="M155.853 46.0663H139.824C139.975 48.9029 141.264 50.7822 143.632 51.4078C146.605 52.1951 149.518 51.9228 151.529 48.7681L155.119 49.6606C153.35 54.5302 147.921 56.8922 142.542 55.2744C137.27 53.6889 134.204 47.9942 135.41 42.0218C136.582 36.2246 141.461 32.5603 146.93 33.3746C153.068 34.2994 156.342 38.7916 155.853 46.0663ZM139.8 42.3157H151.428C151.091 39.2742 149.202 37.5027 146.156 37.3005C142.808 37.0794 140.64 38.7053 139.8 42.3157Z" fill="#2A2F32"/>
<path d="M222.028 44.6734C221.983 51.239 217.511 55.7284 211.085 55.7041C204.801 55.6664 200.278 50.8965 200.36 44.3795C200.443 37.9082 205.122 33.1923 211.359 33.2705C217.596 33.3487 222.071 38.105 222.028 44.6734ZM211.306 37.2934C207.735 37.2503 205.133 40.2379 205.075 44.4496C205.016 48.6613 207.53 51.6542 211.149 51.6947C214.769 51.7351 217.375 48.8042 217.41 44.6087C217.444 40.4751 214.822 37.3339 211.306 37.2934Z" fill="#2A2F32"/>
<path d="M238.589 33.8086H243.053V55.126H238.711C238.631 54.3764 238.557 53.6699 238.512 53.2547C236.846 54.0879 235.323 55.312 233.636 55.6059C229.275 56.369 225.741 53.6268 225.451 49.0592C225.135 44.0655 225.379 39.0341 225.379 33.8652H229.934V46.3116C229.971 49.8815 230.978 51.4778 233.301 51.6531C235.894 51.8445 238.304 49.6443 238.506 46.5003C238.714 43.2647 238.576 40.0291 238.589 36.7935C238.591 35.8605 238.589 34.9411 238.589 33.8086Z" fill="#2A2F32"/>
<path d="M127.083 55.1126V43.6315C127.078 42.7822 127.027 41.9355 126.926 41.0916C126.871 40.5846 126.095 38.1094 124.003 37.5513C122.143 37.0551 120.522 38.4518 120.137 38.7808C119.082 39.7191 118.407 41.0242 118.245 42.4397L118.181 55.0856H113.717V33.868H118.014V36.1033C119.074 35.0356 120.368 34.2374 121.79 33.7764C122.667 33.5067 124.508 32.9162 126.573 33.5714C129.206 34.4127 131.242 36.8529 131.635 40.1721C131.704 40.9352 131.728 41.7036 131.712 42.4694V55.1126H127.083Z" fill="#2A2F32"/>
<path d="M260.789 55.1126V43.6315C260.782 42.7822 260.731 41.9355 260.633 41.0916C260.574 40.5846 259.801 38.1094 257.71 37.5513C255.85 37.0551 254.229 38.4518 253.843 38.7808C252.788 39.7218 252.116 41.0242 251.951 42.4397C251.93 46.6541 251.909 50.8685 251.89 55.0856H247.426V33.868H251.723V36.1033C252.783 35.0356 254.077 34.2374 255.501 33.7764C256.378 33.5067 258.22 32.9162 260.285 33.5714C262.918 34.4127 264.954 36.8529 265.347 40.1721C265.419 40.9352 265.442 41.7036 265.424 42.4694V55.1126H260.789Z" fill="#2A2F32"/>
<path d="M271.85 37.596H268.422V33.8831H271.592V28.1992H276.261V33.8184H279.774V37.5933H276.434V49.6406C276.418 49.8267 276.354 50.8621 277.026 51.4283C277.449 51.7842 277.98 51.8031 278.671 51.8274C279.118 51.8435 279.564 51.8058 280 51.7114V53.3832C280 54.184 279.987 54.9713 279.963 55.7505C278.849 55.9366 277.712 55.9663 276.59 55.8368C275.474 55.7047 274.73 55.6103 273.933 55.0549C273.266 54.5561 272.743 53.8847 272.421 53.1081C271.983 52.1752 271.778 51.1506 271.823 50.1179C271.823 48.6537 271.815 47.1896 271.802 45.7255L271.85 37.596Z" fill="#2A2F32"/>
</g>
<defs>
<clipPath id="clip0_4660_88123">
<rect width="280" height="70" fill="white" transform="translate(0 0.539062)"/>
</clipPath>
</defs>
</svg>
