<svg width="172" height="71" viewBox="0 0 172 71" fill="none" xmlns="http://www.w3.org/2000/svg">
<g clip-path="url(#clip0_4660_88112)">
<path d="M2.09944 29.6232C1.21373 27.366 0.499442 25.0803 0.342299 22.6517C0.342299 22.5517 0.356585 22.4375 0.285156 22.3517V19.2089C0.456585 18.866 0.428013 18.4946 0.470871 18.1375C1.17087 13.3803 3.25659 9.33745 6.78516 6.02317C9.87087 3.12317 13.5423 1.32317 17.7566 0.75174C23.7137 -0.0482604 29.0423 1.45174 33.6566 5.23745C37.228 8.18031 39.5137 11.9375 40.528 16.3946C41.6423 21.3232 41.028 26.0517 38.6994 30.566C38.628 30.7089 38.5566 30.866 38.4852 31.0089L38.3994 31.1089C38.3994 31.1089 38.3852 31.1517 38.3709 31.1803C38.3566 31.2375 38.328 31.2803 38.2994 31.3375C38.2137 31.4517 38.128 31.5803 38.0423 31.7089C36.3852 34.4089 34.2137 36.6089 31.528 38.3232C30.1994 39.1803 28.7566 39.8232 27.2709 40.3803C25.5137 40.966 23.7137 41.3232 21.8566 41.4375C21.7566 41.2803 21.7566 41.1089 21.7137 40.9375C21.5566 40.2232 21.3994 39.5089 21.228 38.766C20.6423 39.1946 20.1137 39.5946 19.5709 39.9803C18.9709 40.4089 18.4137 40.8946 17.7566 41.266C17.4852 41.2232 17.228 41.1803 16.9566 41.1232C15.5423 40.866 14.1994 40.4375 12.8566 39.9232C12.7994 39.8946 12.7423 39.8517 12.6709 39.8232C8.7423 38.1089 5.65659 35.4375 3.39944 31.8517C2.97087 31.166 2.59944 30.4517 2.21373 29.7517C2.18516 29.6803 2.17087 29.6089 2.07087 29.6089L2.09944 29.6232ZM6.09944 20.066C6.09944 25.1232 7.71373 28.9375 10.828 31.7517C14.7137 35.266 19.2994 36.4517 24.3994 35.1089C30.4994 33.5232 34.8566 28.2375 35.1994 22.0089C35.5137 16.3089 33.2709 11.7089 28.3852 8.58031C24.2137 5.92317 19.6566 5.52317 15.0994 7.48031C9.19944 10.0375 6.37087 14.7375 6.09944 20.0517V20.066Z" fill="#2A2F32"/>
<path d="M120.458 55.1963C120.686 54.182 120.9 53.2535 121.115 52.3249C121.958 48.5392 122.8 44.7535 123.643 40.9535C124.415 37.4677 125.2 33.9963 125.958 30.4963C126.029 30.1535 126.158 30.082 126.486 30.0963C128.672 30.0963 130.872 30.0963 133.072 30.0963C133.343 30.0963 133.415 30.1249 133.358 30.4392C132.015 36.3963 130.686 42.3392 129.343 48.282C128.186 53.4106 127.043 58.5392 125.886 63.6677C125.472 65.5106 125.058 67.3535 124.658 69.1963C124.615 69.4392 124.515 69.5106 124.258 69.5106C122.1 69.5106 119.943 69.5106 117.786 69.5106C117.486 69.5106 117.386 69.4249 117.3 69.1535C116.6 66.6392 115.886 64.1249 115.172 61.6106C113.672 56.3535 112.186 51.0963 110.686 45.8249C110.529 45.282 110.372 44.7249 110.186 44.0677C110.029 44.6392 109.886 45.1249 109.743 45.5963C108.186 51.2106 106.629 56.8106 105.072 62.4249C104.443 64.6963 103.8 66.9535 103.172 69.2249C103.115 69.4249 103.043 69.5106 102.815 69.5106C100.629 69.5106 98.4432 69.5106 96.2718 69.5106C96.0432 69.5106 95.9718 69.4249 95.9289 69.2249C94.7861 64.1535 93.6575 59.082 92.5147 53.9963C90.9718 47.182 89.4432 40.3677 87.9004 33.5535C87.6718 32.5106 87.429 31.4535 87.1861 30.4106C87.129 30.1392 87.1861 30.082 87.4575 30.082C89.6861 30.082 91.9147 30.082 94.1432 30.082C94.4147 30.082 94.5004 30.182 94.5432 30.4249C95.5575 34.9677 96.5861 39.4963 97.6004 44.0392C98.4147 47.6392 99.229 51.2535 100.043 54.8535C100.058 54.9249 100.086 54.982 100.129 55.1392C100.372 54.2392 100.6 53.4249 100.829 52.5963C102.115 47.9963 103.386 43.4106 104.672 38.8106C105.458 35.9963 106.243 33.1963 107 30.382C107.058 30.1392 107.158 30.082 107.415 30.082C109.243 30.082 111.072 30.082 112.9 30.082C113.229 30.082 113.372 30.1677 113.458 30.482C114.372 33.7677 115.3 37.0392 116.229 40.3106C117.5 44.8249 118.772 49.3392 120.058 53.8392C120.186 54.2677 120.3 54.682 120.443 55.182L120.458 55.1963Z" fill="#2A2F32"/>
<path d="M43.1426 48.6388C43.1711 44.3245 44.9712 39.4959 48.7854 35.4816C51.8712 32.2245 55.6711 30.1673 60.1711 29.4102C63.9426 28.7816 67.614 29.1102 71.1569 30.5388C74.0426 31.7102 76.4569 33.5388 78.5426 35.7959C81.314 38.8102 83.0569 42.3388 83.6569 46.3673C84.2712 50.5816 83.9712 54.7245 82.0997 58.6245C79.2426 64.5816 74.6426 68.6102 68.014 70.0245C63.2283 71.053 58.5569 70.5245 54.1569 68.2816C51.2997 66.8102 48.9997 64.6959 47.1283 62.1388C44.4426 58.4816 43.1426 54.4388 43.1426 48.653V48.6388ZM50.6712 49.7388C50.6712 52.0816 50.9997 54.2245 52.0426 56.1673C54.1426 60.0816 57.414 62.4816 61.8997 63.0959C66.1854 63.6816 69.8426 62.3673 72.814 59.253C74.9569 56.9959 76.1283 54.3245 76.3712 51.253C76.6426 47.853 75.9997 44.6673 73.9283 41.8816C70.8854 37.7673 66.7712 35.953 61.6283 36.6102C57.6854 37.1102 54.7426 39.2102 52.6569 42.4816C51.214 44.7388 50.6854 47.2673 50.6712 49.753V49.7388Z" fill="#2A2F32"/>
<path d="M159.999 37.2086H150.685C149.185 37.2086 147.856 37.6372 146.856 38.7943C146.442 39.2943 146.185 39.8657 146.113 40.5086C145.971 41.7657 146.799 42.8372 148.185 43.2657C149.356 43.6229 150.556 43.8372 151.756 44.0514C154.856 44.6229 157.985 44.98 161.071 45.5943C163.156 46.0086 165.228 46.6086 166.928 47.9229C170.656 50.8086 172.328 54.58 171.513 59.2372C170.942 62.5943 168.985 65.08 166.199 66.9943C164.471 68.18 162.585 69.0372 160.485 69.3514C159.856 69.4372 159.213 69.5086 158.585 69.5086C152.728 69.5086 146.871 69.5086 141.013 69.5086C140.699 69.5086 140.599 69.4372 140.599 69.1086C140.599 66.8514 140.599 64.58 140.599 62.3229C140.599 61.98 140.656 61.88 141.028 61.88C146.871 61.88 152.713 61.88 158.571 61.88C159.471 61.88 160.385 61.88 161.228 61.5372C163.128 60.7372 164.285 59.3514 164.442 57.2943C164.542 55.8372 163.756 54.8229 162.556 54.08C161.713 53.5657 160.771 53.3372 159.828 53.1372C157.813 52.6943 155.756 52.48 153.728 52.1515C151.056 51.7229 148.371 51.28 145.828 50.3229C142.842 49.2086 140.571 47.3229 139.485 44.28C138.428 41.3229 138.813 38.4515 140.313 35.7657C142.313 32.2086 145.513 30.3229 149.585 29.8372C149.871 29.8086 150.156 29.8086 150.442 29.8086C156.842 29.8086 163.228 29.8086 169.613 29.8086C169.956 29.8086 170.042 29.88 170.042 30.2229C170.028 32.4229 170.028 34.6086 170.042 36.8086C170.042 37.1086 169.985 37.1943 169.656 37.1943C166.442 37.1943 163.228 37.1943 160.013 37.1943L159.999 37.2086Z" fill="#2A2F32"/>
<path d="M17.7561 41.2669C18.399 40.8954 18.9561 40.4097 19.5704 39.9811C20.1133 39.5954 20.6561 39.1954 21.2276 38.7669C21.399 39.5097 21.5561 40.224 21.7133 40.9383C21.7418 41.1097 21.7561 41.2811 21.8561 41.4383C21.8561 41.4954 21.8561 41.5526 21.8561 41.6097C22.2133 43.1954 22.5704 44.7954 22.9418 46.3811C23.1133 47.124 23.2847 47.8668 23.4704 48.6954C23.5418 48.524 23.5847 48.4383 23.6276 48.3383C24.4561 46.524 25.299 44.7097 26.1133 42.8954C26.4847 42.0526 26.9133 41.2383 27.2418 40.3668C28.7276 39.824 30.1561 39.1669 31.499 38.3097C34.1847 36.5954 36.3561 34.3954 38.0133 31.6954C38.0847 31.5669 38.1847 31.4526 38.2704 31.324C37.9561 32.1811 37.5276 33.0097 37.1418 33.8526C35.4561 37.5383 33.7704 41.224 32.0704 44.9097C29.6847 50.124 27.299 55.3383 24.899 60.5526C23.4276 63.7668 21.9561 66.9811 20.4704 70.2097C20.4418 70.2668 20.4133 70.324 20.3418 70.4811C18.9704 63.624 17.6276 56.8668 16.2561 50.024C14.5847 51.524 12.9561 52.9526 11.3133 54.424C10.8847 53.2954 10.4847 52.1954 10.0704 51.1097C8.14184 45.9526 6.22756 40.8097 4.29899 35.6669C3.61327 33.8097 2.91327 31.9383 2.22756 30.0811C2.1847 29.9811 2.12756 29.8669 2.15613 29.7383C2.54184 30.4383 2.91327 31.1526 3.34184 31.8383C5.59899 35.424 8.6847 38.0954 12.6133 39.8097C12.6704 39.8383 12.7418 39.8669 12.799 39.9097C13.2276 41.1526 13.6704 42.3954 14.099 43.6526C14.1704 43.8669 14.2418 43.8383 14.3847 43.724C14.6276 43.5383 14.8704 43.3669 15.1276 43.1811C15.999 42.5383 16.8561 41.8954 17.7133 41.2669H17.7561Z" fill="#2A2F32"/>
<path d="M38.3848 31.1078L38.4705 31.0078L38.3848 31.1078Z" fill="#2A2F32"/>
<path d="M2.09961 29.625C2.19961 29.625 2.2139 29.6964 2.19961 29.7679C2.1139 29.7679 2.14247 29.6679 2.09961 29.625Z" fill="#2A2F32"/>
<path d="M38.2852 31.3525C38.2852 31.3525 38.328 31.2525 38.3566 31.1953C38.3566 31.2525 38.3566 31.3239 38.2852 31.3525Z" fill="#2A2F32"/>
</g>
<defs>
<clipPath id="clip0_4660_88112">
<rect width="171.429" height="70" fill="white" transform="translate(0.285156 0.539062)"/>
</clipPath>
</defs>
</svg>
