<svg width="200" height="71" viewBox="0 0 200 71" fill="none" xmlns="http://www.w3.org/2000/svg">
<g clip-path="url(#clip0_4660_88070)">
<path d="M158.889 4.94134H164.134V2.98047H145.848V4.94134H151.123V42.1979H145.848V44.1432H164.134V42.1979H158.889V4.94134Z" fill="#2A2F32"/>
<path d="M192.177 44.1432V42.2135H186.574V4.52115C195.134 4.0854 196.597 5.9529 197.702 13.8275H199.585L198.915 2.98047H166.374L165.705 13.8275H167.635C168.74 5.9529 170.187 4.10097 178.762 4.52115V42.2135H173.16V44.1432H192.161H192.177Z" fill="#2A2F32"/>
<path d="M142.378 4.92962V2.98431H127.391L118.583 31.1368L110.07 2.98431H95.1456V4.92962H100.39V42.2173H94.7099C89.4342 42.3418 89.3564 37.7976 89.3875 36.8483C89.4653 26.8105 87.2555 23.1533 77.7624 21.6748V21.5348C83.4271 20.9278 90.6637 19.2938 90.6637 12.3374C90.6637 3.778 82.7735 2.96875 76.1283 2.96875H56.5352V4.91406H61.7797V42.2173H56.5352V44.1471H74.8055V42.2173H69.5609V22.5463C72.938 22.4063 76.7352 23.2778 78.4471 24.7718C80.0345 26.1257 80.8904 30.3587 80.8904 35.4632C80.8904 41.7504 84.0963 44.1471 90.2435 44.1471H107.86V42.2173H102.725V5.56768H102.849L114.941 44.1471H116.995L129.165 5.56768H129.352V42.2173H124.123V44.1471H142.378V42.2173H137.133V4.92962H142.378ZM69.5609 20.6322V4.92962H74.8522C80.2679 4.92962 82.2755 6.31468 82.2755 13.2244C82.2755 18.7491 80.0345 20.6322 74.5565 20.6322H69.5765H69.5609Z" fill="#2A2F32"/>
<path d="M24.1799 0.539062H18.1105V5.53462H8.0105V15.9459H0.416016V31.2438H8.0105V41.6551H18.1105V46.6351H23.464C35.9607 46.6351 46.9789 36.4106 46.9789 23.6493C46.9789 10.8881 36.7077 0.539062 24.1799 0.539062Z" fill="#2A2F32"/>
<path d="M61.7637 56.5955C61.7637 56.2532 61.5769 56.0975 61.2657 56.0975H60.3008V54.1367H62.5729C63.5845 54.1367 64.0202 54.5724 64.0202 55.5995V64.5324C64.0202 66.9601 65.5298 68.3919 67.833 68.3919C70.1363 68.3919 71.6458 66.9446 71.6458 64.5013V55.584C71.6458 54.5568 72.0971 54.1211 73.1087 54.1211H75.3653V56.082H74.4004C74.0891 56.082 73.9024 56.2376 73.9024 56.58V64.6102C73.9024 68.1273 71.4902 70.5239 67.8486 70.5239C64.207 70.5239 61.7637 68.1273 61.7637 64.6102V56.58V56.5955Z" fill="#2A2F32"/>
<path d="M76.9062 68.2986H77.8711C78.1824 68.2986 78.3691 68.1118 78.3691 67.8006V54.1367H80.4234L87.5043 64.3613C88.0957 65.2328 88.8427 66.5556 88.8427 66.5556H88.8893C88.8893 66.5556 88.7337 65.2794 88.7337 64.3613V55.6152C88.7337 54.588 89.1539 54.1523 90.1966 54.1523H92.4532V56.1132H91.4883C91.177 56.1132 90.9903 56.2688 90.9903 56.6112V70.275H88.9516L81.8396 60.066C81.2482 59.1945 80.5323 57.8717 80.5323 57.8717H80.4856C80.4856 57.8717 80.6257 59.179 80.6257 60.066V68.8121C80.6257 69.8393 80.1899 70.275 79.1784 70.275H76.9062V68.3141V68.2986Z" fill="#2A2F32"/>
<path d="M94.8965 68.2986H96.4527V56.0976H94.8965V54.1367H100.157V56.0976H98.6004V68.2986H100.157V70.2594H94.8965V68.2986Z" fill="#2A2F32"/>
<path d="M102.615 56.5956C102.475 56.191 102.257 56.0976 101.868 56.0976H101.557V54.1367H102.817C103.938 54.1367 104.327 54.3857 104.685 55.4595L108.186 65.404C108.482 66.2754 108.793 67.6138 108.793 67.6138H108.84C108.84 67.6138 109.136 66.2599 109.447 65.404L112.948 55.4595C113.337 54.3857 113.695 54.1367 114.816 54.1367H116.076V56.0976H115.765C115.361 56.0976 115.158 56.191 115.018 56.5956L110.007 70.2594H107.61L102.599 56.5956H102.615Z" fill="#2A2F32"/>
<path d="M118.861 56.0976H117.398V54.1367H126.767C127.779 54.1367 128.214 54.5725 128.214 55.5996V57.6383H126.16V56.6112C126.16 56.2688 125.973 56.1132 125.662 56.1132H121.133V61.171H126.705V63.1318H121.133V67.8161C121.133 68.1274 121.32 68.3141 121.631 68.3141H126.285C126.596 68.3141 126.783 68.1274 126.783 67.8161V66.789H128.852V68.8277C128.852 69.8548 128.432 70.2906 127.405 70.2906H120.324C119.313 70.2906 118.877 69.8548 118.877 68.8277V56.1132L118.861 56.0976Z" fill="#2A2F32"/>
<path d="M137.194 61.8868C138.906 61.8868 139.917 60.7663 139.917 58.9611C139.917 57.1558 138.906 56.0976 137.241 56.0976H134.268V61.8868H137.21H137.194ZM131.996 56.0976H130.533V54.1367H137.49C140.291 54.1367 142.252 55.9264 142.252 58.8677C142.252 61.56 140.509 62.8984 139.388 63.1318V63.1785C139.388 63.1785 139.793 63.3808 140.057 63.91L141.972 67.7694C142.205 68.2519 142.563 68.2986 143.092 68.2986H143.388V70.2594H142.283C141.038 70.2594 140.587 70.1038 140.073 69.0456L137.91 64.7036C137.505 63.9411 137.21 63.8321 136.322 63.8321H134.253V70.2594H131.996V56.082V56.0976Z" fill="#2A2F32"/>
<path d="M146.284 66.5233C146.284 66.5233 147.902 68.4686 150.268 68.4686C151.762 68.4686 153.007 67.5504 153.007 66.072C153.007 62.695 145.303 63.2085 145.303 58.1818C145.303 55.7541 147.404 53.8555 150.408 53.8555C152.104 53.8555 154.936 54.6336 154.936 56.8279V58.1507H152.867V57.3882C152.867 56.5478 151.668 55.9253 150.408 55.9253C148.696 55.9253 147.606 56.8902 147.606 58.104C147.606 61.3721 155.279 60.6407 155.279 65.9475C155.279 68.4219 153.38 70.5384 150.221 70.5384C146.828 70.5384 144.945 68.1418 144.945 68.1418L146.268 66.5233H146.284Z" fill="#2A2F32"/>
<path d="M157.645 68.2986H159.201V56.0976H157.645V54.1367H162.905V56.0976H161.348V68.2986H162.905V70.2594H157.645V68.2986Z" fill="#2A2F32"/>
<path d="M170.079 56.0975H166.873C166.561 56.0975 166.375 56.2532 166.375 56.5955V57.6227H164.367V55.4906C164.367 54.4635 164.71 54.1211 165.721 54.1211H176.693C177.704 54.1211 178.047 54.4635 178.047 55.4906V57.6227H176.039V56.5955C176.039 56.2532 175.868 56.0975 175.541 56.0975H172.335V70.2749H170.079V56.0975Z" fill="#2A2F32"/>
<path d="M184.49 63.2251L180.444 56.6578C180.148 56.1753 179.946 56.082 179.479 56.082H179.027V54.1211H180.07C181.159 54.1211 181.58 54.2767 182.218 55.3505L184.63 59.4123C185.143 60.2994 185.595 61.2176 185.595 61.2176H185.641C185.641 61.2176 186.062 60.2994 186.606 59.4123L189.003 55.3505C189.625 54.2767 190.077 54.1211 191.151 54.1211H192.193V56.082H191.757C191.291 56.082 191.057 56.1753 190.761 56.6578L186.746 63.2251V70.2594H184.49V63.2251Z" fill="#2A2F32"/>
</g>
<defs>
<clipPath id="clip0_4660_88070">
<rect width="199.169" height="70" fill="white" transform="translate(0.416016 0.539062)"/>
</clipPath>
</defs>
</svg>
