<svg width="101" height="71" viewBox="0 0 101 71" fill="none" xmlns="http://www.w3.org/2000/svg">
<g clip-path="url(#clip0_4660_88216)">
<path d="M17.7707 42.0318L15.3968 47.7738C15.3968 47.7738 19.1403 48.7782 22.5592 48.2507C25.9678 47.7231 31.0302 43.7362 31.4765 39.7492C31.9229 35.7623 29.4678 33.5912 28.2302 32.0898C27.0026 30.5883 27.1954 29.2492 28.7577 28.4072C30.32 27.5753 32.8157 27.7072 34.378 30.4666L36.1939 25.9521C36.1939 25.9521 31.4664 23.7507 26.4649 26.1449C21.4635 28.5391 21.4635 33.226 22.3867 35.0927C23.3099 36.9594 26.0186 37.6594 26.1099 39.8811C26.191 42.113 24.7099 43.8985 22.1128 43.868C19.5157 43.8376 19.0896 43.4217 17.7809 42.0318H17.7707ZM33.0592 49.9854C33.0592 49.9854 34.4693 46.5565 35.9099 42.5695C39.0142 34.1086 39.6838 33.4796 40.7997 33.4391C41.9157 33.3985 41.7229 34.5652 41.6823 35.6507C41.5403 39.2014 36.6707 44.3854 35.7881 45.0753C34.8142 45.7347 35.1186 45.7144 35.362 45.684C43.3867 44.4869 45.6794 37.8521 45.8823 36.6854C46.6939 31.3898 43.6403 31.0854 42.0476 31.1666C40.4548 31.2478 35.4736 31.8869 35.4736 31.8869L28.2302 50.6449L33.0592 49.9854ZM48.5302 43.7869C48.5302 43.7869 51.7461 35.6202 51.9997 34.9202C53.7041 32.2724 56.3113 32.9115 56.3113 32.9115L57.9852 28.6507C57.9852 28.6507 57.1736 28.4883 55.4389 28.9854C53.7041 29.4825 52.0809 31.6637 52.0809 31.6637L52.7505 29.5738L49.3113 29.9391L43.6302 44.3753L48.52 43.7869H48.5302ZM59.1823 28.5695L53.5316 43.0362L58.5128 42.5086L64.1635 27.9912L59.1823 28.5796V28.5695ZM68.191 25.0289L67.2679 27.6463L65.1679 27.7579L63.8794 31.2376L65.949 31.0956L61.5563 42.0217L66.4258 41.413L70.7577 30.3246L73.1113 30.0202L74.3693 26.6521L72.0157 26.9057L73.72 22.6449L68.1809 25.0391L68.191 25.0289ZM82.7287 34.8391C82.5157 35.1231 79.6548 38.3188 77.4128 37.6796C75.1708 37.0405 76.0128 34.555 76.7432 33.084C77.4736 31.6028 79.5635 27.4231 80.9635 27.7072C81.5519 27.9608 81.6026 28.9347 79.4215 31.7753C79.0055 32.384 78.4983 32.9217 76.9055 33.9159C76.7331 34.2507 76.7635 34.6362 80.0099 33.5304C83.2563 32.4144 84.565 30.0202 84.6563 28.1536C84.7374 26.2869 82.1403 25.6782 80.5171 26.0333C78.8939 26.3883 74.2577 27.6463 71.5084 34.0579C70.9505 35.2043 69.8041 40.1347 74.6939 40.5811C76.3983 40.7231 80.3447 39.7999 83.1447 35.4782C83.2563 35.1738 82.9519 34.5347 82.7287 34.8391ZM65.5635 22.1275C64.7418 21.3159 63.0171 21.7115 61.7084 23.0202C60.3997 24.3289 59.9939 26.0434 60.8157 26.8652C61.6374 27.6767 63.3621 27.2811 64.6707 25.9724C65.9794 24.6637 66.3852 22.9492 65.5635 22.1275ZM90.591 53.6275C47.3026 30.3854 21.7983 70.5391 21.7983 70.5391C16.7664 43.2289 0.65625 47.0738 0.65625 47.0738C27.3374 37.9333 17.1823 10.2376 17.1823 10.2376C51.5838 40.8347 82.8505 0.539062 82.8505 0.539062C82.8505 0.539062 77.6766 16.8724 83.8548 19.9362C90.0331 22.9999 100.077 19.4391 100.077 19.4391C76.9157 34.2405 90.591 53.6275 90.591 53.6275ZM92.8331 23.2231C92.8331 23.2231 74.8258 26.8449 78.9041 8.67529C78.9041 8.67529 53.2171 38.5927 20.1751 14.0825C20.1751 14.0825 27.4997 37.1927 3.33451 46.3536C3.33451 46.3536 20.1548 45.6434 23.4316 62.4028C23.4316 62.4028 48.9258 32.7492 88.136 50.584C88.136 50.584 78.6302 35.3666 92.8331 23.2231ZM81.8461 41.5246C81.8461 40.8956 81.3287 40.3782 80.6997 40.3782C80.0708 40.3782 79.5534 40.8956 79.5534 41.5246C79.5534 42.1536 80.0708 42.6709 80.6997 42.6709C81.3287 42.6709 81.8461 42.1536 81.8461 41.5246ZM81.6838 41.5246C81.6838 42.0724 81.2374 42.5086 80.6997 42.5086C80.1621 42.5086 79.7157 42.0623 79.7157 41.5246C79.7157 40.9869 80.1621 40.5405 80.6997 40.5405C81.2374 40.5405 81.6838 40.9869 81.6838 41.5246ZM81.349 41.1999C81.2983 41.4637 81.1258 41.5449 80.9331 41.5651L81.1563 42.1738H80.8012L80.7708 42.0825L80.5983 41.5753H80.4563L80.3345 42.1637H80.0403L80.1621 41.555L80.3345 40.7536H80.8621C81.2273 40.7536 81.42 40.855 81.349 41.1898V41.1999ZM80.791 41.0072H80.578L80.507 41.3521H80.7708C80.9128 41.3521 80.9939 41.3217 81.0345 41.1594C81.0548 41.0173 80.9128 40.997 80.791 40.997V41.0072Z" fill="#2A2F32"/>
</g>
<defs>
<clipPath id="clip0_4660_88216">
<rect width="99.4203" height="70" fill="white" transform="translate(0.65625 0.539062)"/>
</clipPath>
</defs>
</svg>
