<svg width="203" height="71" viewBox="0 0 203 71" fill="none" xmlns="http://www.w3.org/2000/svg">
<g clip-path="url(#clip0_4660_88189)">
<path d="M111.484 70.5421V40.2476H114.854V43.2291C115.204 42.8532 115.424 42.581 115.684 42.3477C118.678 39.4828 122.204 39.068 125.924 40.3514C129.904 41.7254 132.017 44.7717 132.548 48.9588C132.963 52.1736 132.237 55.1421 130.15 57.6439C127.921 60.3014 125.03 61.3902 121.621 61.1051C119.145 60.8977 117.071 59.8606 115.476 57.9032C115.373 57.7736 115.282 57.6439 115.191 57.5014C115.113 57.3847 115.036 57.281 114.893 57.0606C114.88 57.3199 114.854 57.4625 114.854 57.5921C114.854 61.7791 114.854 65.9662 114.854 70.1662C114.854 70.2958 114.88 70.4125 114.893 70.5421C113.752 70.5421 112.611 70.5421 111.471 70.5421H111.484ZM114.815 50.4106C114.88 51.0069 114.906 51.6032 115.023 52.1865C115.58 54.9347 117.123 56.8662 119.78 57.6569C122.541 58.4736 125.108 57.9291 127.13 55.7384C128.815 53.9106 129.23 51.6551 128.945 49.218C128.348 44.1754 123.63 41.7125 119.261 43.3588C116.5 44.4088 114.867 47.0791 114.815 50.4106Z" fill="#2A2F32"/>
<path d="M106.337 0.540307C106.337 3.14586 106.324 5.76438 106.324 8.36994C106.324 13.0496 106.324 17.7292 106.324 22.4088V23.1477C106.518 22.9792 106.635 22.8885 106.739 22.7718C109.798 19.6607 112.87 16.5366 115.917 13.4125C116.176 13.1533 116.422 13.0236 116.798 13.0366C118.185 13.0625 119.559 13.0366 120.972 13.0366C117.641 16.4459 114.335 19.8292 110.978 23.2644C114.322 26.6607 117.628 30.0181 121.011 33.4533C120.013 33.4533 119.067 33.3625 118.133 33.4792C116.837 33.6218 115.93 33.1551 115.035 32.1959C112.248 29.1885 109.344 26.2977 106.493 23.3551C106.441 23.381 106.402 23.407 106.35 23.4329V33.4273H102.928V32.857C102.928 23.3681 102.928 13.8792 102.928 4.40327C102.928 3.96253 103.07 3.66438 103.381 3.36623C104.354 2.4329 105.287 1.47364 106.246 0.527344C106.285 0.527344 106.324 0.527344 106.35 0.527344L106.337 0.540307Z" fill="#2A2F32"/>
<path d="M202.744 55.8384C202.653 56.1496 202.575 56.4477 202.472 56.7588C201.797 58.807 200.294 59.9996 198.349 60.6088C195.809 61.3996 193.255 61.3866 190.727 60.5181C189.081 59.9607 187.927 58.794 186.916 57.3551C187.81 56.6422 188.679 55.9681 189.522 55.307C190.157 55.8903 190.714 56.5125 191.375 56.9792C193.385 58.3662 195.523 58.3403 197.649 57.2773C198.583 56.8107 199.101 55.994 199.114 54.8662C199.114 53.7384 198.544 52.9607 197.61 52.5718C196.483 52.1051 195.277 51.8588 194.098 51.4959C192.97 51.1459 191.829 50.8736 190.753 50.407C186.89 48.7736 187.085 43.9125 189.47 41.7347C192.231 39.2199 197.572 38.9866 200.449 41.3588C201.11 41.9033 201.603 42.6422 202.225 43.3422C201.175 44.0422 200.268 44.6644 199.399 45.2347C198.842 44.6903 198.375 44.1199 197.792 43.6792C196.353 42.5903 193.864 42.5514 192.386 43.5884C191.946 43.8996 191.57 44.3533 191.31 44.8329C190.883 45.6366 191.142 46.4922 191.855 47.0625C192.853 47.8533 194.059 48.1384 195.251 48.4236C196.042 48.6181 196.846 48.7736 197.649 48.9681C200.164 49.6033 202.16 50.8218 202.718 53.6477C202.718 54.3736 202.718 55.0996 202.718 55.8255L202.744 55.8384Z" fill="#2A2F32"/>
<path d="M84.6382 51.4958H68.3827C68.7456 54.244 69.9123 56.4347 72.4401 57.4329C75.9141 58.8069 78.8827 57.7829 81.3327 54.9051C82.1623 55.5662 82.9919 56.2143 83.8734 56.9143C83.5234 57.3162 83.2123 57.7051 82.8752 58.0681C80.9827 60.1162 78.5845 60.9199 75.8882 61.1273C69.8734 61.6069 65.1938 57.5106 64.8049 51.3662C64.5975 48.1255 65.3364 45.1958 67.579 42.8106C70.003 40.231 73.0493 39.4014 76.4586 39.8032C80.9178 40.3218 83.7956 43.5366 84.4049 48.0995C84.5475 49.2014 84.5604 50.3292 84.6382 51.4958ZM80.9438 48.5403C80.8271 46.3366 79.9975 44.5995 78.0401 43.5495C76.8215 42.8884 75.4864 42.8106 74.1382 42.9014C71.4678 43.0829 69.4067 44.768 68.6549 47.3866C68.5512 47.7625 68.4864 48.1384 68.3956 48.5403C72.6345 48.5403 76.7697 48.5403 80.9438 48.5403Z" fill="#2A2F32"/>
<path d="M154.922 51.4972H138.718C138.679 53.8823 140.481 56.5397 142.776 57.499C145.044 58.4583 148.933 58.2897 151.603 54.9064C152.42 55.5546 153.25 56.2027 154.092 56.8638C154.04 56.9675 154.001 57.0712 153.937 57.149C152.148 59.4694 149.814 60.7527 146.937 61.0509C144.94 61.2583 142.983 61.1546 141.116 60.3638C138.55 59.262 136.761 57.3694 135.801 54.7249C134.738 51.7694 134.751 48.8009 135.905 45.8583C137.383 42.112 140.922 39.7657 145.057 39.7009C147.611 39.662 149.931 40.3101 151.837 42.112C153.535 43.7323 154.39 45.7935 154.688 48.1009C154.831 49.1897 154.844 50.3046 154.922 51.4842V51.4972ZM151.214 48.5416C151.163 47.0379 150.709 45.7675 149.776 44.6527C147.766 42.2675 142.879 42.3453 140.74 44.4194C139.574 45.5472 138.9 46.8953 138.705 48.5416H151.214Z" fill="#2A2F32"/>
<path d="M99.6227 24.3287H83.5357C83.3931 25.9362 84.7153 28.9306 87.1523 30.1491C90.082 31.6269 93.4005 30.7843 96.382 27.738C97.2116 28.3991 98.0542 29.0602 98.8968 29.7343C97.1727 32.1195 94.9171 33.4806 92.0782 33.8436C90.1338 34.0899 88.1894 34.0769 86.3357 33.3769C83.7171 32.3917 81.7986 30.6028 80.7486 27.9584C79.4005 24.575 79.4394 21.1917 81.0597 17.9121C82.9653 14.0621 86.8412 12.2862 90.8079 12.5584C94.4245 12.8047 97.1338 14.4899 98.6505 17.925C99.3634 19.5195 99.6227 21.2047 99.6357 22.9547C99.6357 23.3825 99.6357 23.8232 99.6357 24.3287H99.6227ZM95.9542 21.3991C96.0449 19.0269 94.5931 16.8491 92.4412 16.0973C91.0283 15.6047 89.5764 15.5787 88.1245 15.9028C85.5968 16.4602 83.5357 18.9232 83.4968 21.3991H95.9542Z" fill="#2A2F32"/>
<path d="M0.520775 60.5182C1.98559 59.0404 3.46337 57.5756 4.92818 56.0978C6.66522 54.3478 8.38929 52.5978 10.1134 50.8478C14.1319 46.7515 18.1634 42.6682 22.1819 38.5719C22.2726 38.4812 22.3504 38.3904 22.493 38.2219C22.0523 37.8071 21.6245 37.3923 21.1967 36.9775C19.7837 35.5515 18.3837 34.1256 16.9837 32.6997C11.7078 27.3201 6.43189 21.9534 1.15596 16.5997C0.974479 16.4052 0.728183 16.2756 0.520775 16.1071V15.8867C0.792998 15.9126 1.07818 15.9775 1.35041 15.9775C4.34485 15.9775 7.33929 15.9775 10.3337 15.9775C10.6967 15.9775 10.956 16.0682 11.2282 16.3404C14.9745 20.1515 18.7208 23.9497 22.4671 27.7608C24.3467 29.6663 26.1874 31.6108 28.0671 33.5163C29.6356 35.0978 31.23 36.6534 32.8245 38.2478C32.6819 38.3904 32.5652 38.533 32.4486 38.6497C30.9837 40.1404 29.5319 41.6312 28.0541 43.1089C26.8097 44.3534 25.5393 45.5719 24.3078 46.8164C22.4411 48.7349 20.6004 50.6793 18.7337 52.5849C17.5152 53.8293 16.2449 55.0219 15.0263 56.2664C13.7171 57.6015 12.4467 58.9626 11.1374 60.2978C10.9689 60.4793 10.6448 60.596 10.3986 60.596C7.27448 60.6089 4.16337 60.596 1.03929 60.6089C0.857813 60.6089 0.689294 60.6219 0.507812 60.6349C0.507812 60.596 0.507812 60.5701 0.507812 60.5312L0.520775 60.5182ZM37.4523 53.5182C39.656 55.7608 41.8597 58.0163 44.0763 60.233C44.2708 60.4275 44.6208 60.5701 44.906 60.583C47.9911 60.6089 51.0763 60.596 54.1486 60.596H54.6023C49.0541 54.9312 43.5189 49.2663 37.9967 43.6404C36.3504 45.3904 34.6911 47.1534 32.9411 48.9941C34.3411 50.4071 35.8967 51.9497 37.4393 53.5182H37.4523ZM54.5504 15.9775H54.0578C51.0763 15.9775 48.1078 15.9904 45.1263 15.9645C44.5948 15.9645 44.2319 16.1071 43.8689 16.483C40.33 20.1126 36.7652 23.7293 33.2134 27.346C33.0837 27.4756 32.9671 27.6052 32.8634 27.7219C34.5745 29.4849 36.2597 31.2219 37.906 32.9071C43.48 27.2423 49.0023 21.6293 54.5504 15.9904V15.9775Z" fill="#2A2F32"/>
<path d="M69.1214 15.979H64.8047V13.0883H69.1214V11.5327C69.1214 10.2624 69.1214 8.99198 69.1214 7.72161C69.1214 7.52717 69.1602 7.26791 69.2899 7.13828C70.3139 6.10124 71.351 5.09013 72.4788 3.98828V13.0494H78.3769V15.9531H72.5565C72.5436 16.1475 72.5047 16.2772 72.5177 16.4198C72.5177 20.192 72.5177 23.9642 72.5436 27.7364C72.5436 28.0735 72.5954 28.4235 72.6602 28.7605C72.9195 29.992 73.788 30.7309 75.0195 30.8087C76.1991 30.8864 77.3139 30.6531 78.4547 30.1346C78.4936 31.1457 78.5454 32.092 78.5714 33.0512C78.5714 33.1549 78.4028 33.3235 78.2862 33.3753C76.2121 34.1012 74.0991 34.2827 71.9991 33.5827C70.3788 33.0383 69.5751 31.729 69.3547 30.0698C69.2251 29.0975 69.1473 28.1253 69.1473 27.1401C69.1214 23.6401 69.1473 20.1401 69.1473 16.6401V15.979H69.1214Z" fill="#2A2F32"/>
<path d="M184.881 40.1952V43.1118H179.048C179.035 43.2804 179.009 43.41 179.009 43.5266C179.009 47.26 179.009 50.9933 179.035 54.7396C179.035 55.1285 179.074 55.5433 179.164 55.9192C179.501 57.4229 180.655 58.2007 182.314 57.9804C183.183 57.8637 184.051 57.6304 184.972 57.4489C185.011 58.3433 185.062 59.3026 185.088 60.2618C185.088 60.3526 184.894 60.5081 184.764 60.547C182.781 61.2341 180.746 61.4285 178.724 60.8192C176.857 60.2618 176.014 58.797 175.82 56.9174C175.716 55.8804 175.664 54.8174 175.651 53.7674C175.625 50.4489 175.651 47.1304 175.651 43.8118V43.1248H171.348V40.2081H175.651V38.3026C175.651 37.1359 175.651 35.9822 175.651 34.8155C175.651 34.647 175.664 34.4137 175.768 34.31C176.818 33.26 177.881 32.2229 179.009 31.1211V40.1692C180.979 40.1692 182.911 40.1692 184.907 40.1692L184.881 40.1952Z" fill="#2A2F32"/>
<path d="M98.9493 50.4348C95.7085 53.7404 92.4808 57.02 89.253 60.2996C89.1104 60.4422 88.903 60.5978 88.7215 60.5978C87.2697 60.6237 85.8048 60.5978 84.366 60.5978C87.6715 57.2404 90.9641 53.8959 94.2567 50.5515C90.8345 47.0774 87.5419 43.733 84.2363 40.3885L84.3011 40.2459C84.4437 40.233 84.5863 40.207 84.7289 40.207C85.9993 40.207 87.2567 40.207 88.5271 40.207C88.7345 40.207 88.9937 40.2848 89.1363 40.4274C92.39 43.707 95.6308 46.9996 98.8715 50.2922C98.8974 50.3181 98.9104 50.357 98.9363 50.4089L98.9493 50.4348Z" fill="#2A2F32"/>
<path d="M168.806 43.3315C168.236 43.2537 167.717 43.15 167.186 43.1371C163.906 43.0463 161.871 44.8223 161.352 48.2315C161.223 49.1 161.158 49.9945 161.145 50.876C161.119 54.0648 161.145 57.2667 161.145 60.4556C161.145 60.4945 161.132 60.5204 161.119 60.5982H157.723V40.2593H160.834V43.4352C160.834 43.4352 160.912 43.4482 160.963 43.4611C161.015 43.4093 161.067 43.3574 161.106 43.2926C162.804 40.5704 165.306 39.5593 168.365 39.7537C169.039 39.7926 169.065 39.8834 169.013 40.5574C168.949 41.4778 168.884 42.3982 168.832 43.3315H168.806Z" fill="#2A2F32"/>
<path d="M108.826 40.2471C106.312 42.8008 103.797 45.3545 101.282 47.9083C100.608 47.1694 99.8431 46.3657 98.9746 45.4194C99.1042 45.3286 99.3635 45.1731 99.5839 44.9657C101.036 43.5008 102.488 42.0231 103.939 40.5583C104.095 40.4027 104.354 40.2342 104.562 40.2342C105.949 40.2083 107.336 40.2342 108.736 40.2342C108.788 40.2342 108.826 40.2601 108.839 40.2601L108.826 40.2471Z" fill="#2A2F32"/>
<path d="M101.361 52.9492C103.836 55.464 106.364 58.0437 108.918 60.6363C107.414 60.6363 105.911 60.6363 104.394 60.6363C104.277 60.6363 104.135 60.5326 104.044 60.4418C102.346 58.7307 100.661 57.0066 98.9883 55.3085C99.779 54.5177 100.57 53.74 101.348 52.9622L101.361 52.9492Z" fill="#2A2F32"/>
</g>
<defs>
<clipPath id="clip0_4660_88189">
<rect width="202.222" height="70" fill="white" transform="translate(0.521484 0.539062)"/>
</clipPath>
</defs>
</svg>
