<svg width="162" height="71" viewBox="0 0 162 71" fill="none" xmlns="http://www.w3.org/2000/svg">
<g clip-path="url(#clip0_4660_88057)">
<path d="M51.0831 70.5219C50.0807 70.503 49.0972 70.4651 48.0948 70.4462C39.9618 70.3895 31.8478 70.3706 23.7149 70.276C16.8491 70.2003 9.96451 70.0301 3.0988 69.8788C2.45573 69.8788 1.81266 69.8221 1.16959 69.7464C0.980456 69.7275 0.791318 69.5573 0.621094 69.4627C0.810232 69.3492 0.980456 69.1979 1.16959 69.179C2.43682 69.1033 3.70404 69.0088 4.97127 68.9709C13.0853 68.8385 21.1804 68.6683 29.2944 68.6116C42.2882 68.4981 55.3009 68.4413 68.2947 68.4224C82.3098 68.3846 96.3061 68.4224 110.302 68.4414C117.017 68.4414 123.731 68.4981 130.445 68.5737C139.259 68.6872 148.092 68.8196 156.906 68.9709C158.4 68.9899 159.894 69.1601 161.388 69.2546V69.5762C161.048 69.6518 160.708 69.7842 160.367 69.7842C155.903 69.9166 151.459 70.1058 146.995 70.1436C135.949 70.276 124.904 70.3516 113.858 70.4462C112.799 70.4462 111.759 70.503 110.699 70.5219C90.8589 70.5219 70.9805 70.5219 51.121 70.5219H51.0831Z" fill="#2A2F32"/>
<path d="M140.224 55.8803C139.297 56.7504 138.484 57.5069 137.652 58.2824C136.309 59.5307 134.89 60.6655 133.226 61.4977C131.921 62.1597 130.559 62.5758 129.065 62.538C127.022 62.5002 125.585 61.5734 124.809 59.7388C124.507 59.0389 124.355 58.2824 124.109 57.488C123.901 57.6772 123.693 57.8852 123.485 58.0743C122.086 59.3983 120.61 60.6088 118.889 61.4788C117.565 62.1597 116.185 62.5569 114.69 62.538C112.667 62.5002 111.229 61.5734 110.473 59.7577C110.132 58.9444 109.962 58.0554 109.697 57.1476C109.602 57.2421 109.508 57.3745 109.394 57.5069C108.449 58.5472 107.503 59.6064 106.501 60.6088C106.066 61.0438 105.517 61.4221 104.969 61.7625C104.59 62.0084 104.136 62.1786 103.701 62.2921C102.207 62.6515 101.053 61.8004 101.167 60.3251C101.262 58.9822 101.526 57.6582 101.867 56.3532C102.434 54.1024 103.115 51.8895 103.739 49.6577C103.872 49.147 103.966 48.6174 104.004 48.1068C104.023 47.842 103.947 47.4259 103.777 47.3124C103.607 47.1989 103.172 47.3124 102.945 47.4826C102.34 47.9365 101.715 48.3905 101.243 48.9957C98.4433 52.4759 95.7387 56.0506 94.0743 60.2305C93.9419 60.5331 93.8284 60.8547 93.6771 61.1384C93.1853 62.1408 92.1072 62.6515 91.067 62.4056C89.9132 62.1219 89.3269 61.1006 89.6484 59.9846C90.0078 58.7552 90.3861 57.5448 90.6698 56.2586C90.5563 56.391 90.4428 56.5234 90.3104 56.6747C89.0999 58.1311 87.8138 59.5118 86.2629 60.6277C84.8632 61.6112 83.369 62.3678 81.5911 62.4434C78.9621 62.5569 77.2599 61.1195 77.014 58.5472C76.8627 57.0719 77.1464 55.6345 77.5436 54.2348C78.6028 50.679 80.3807 47.5394 83.1232 44.9671C84.3337 43.8322 85.7333 43 87.4166 42.7542C89.9321 42.3759 91.7479 44.3618 91.048 46.7261C90.9346 47.1043 90.6698 47.5015 90.3672 47.7474C89.3458 48.5418 88.2677 48.1446 88.0029 46.8774C87.9273 46.4991 87.9084 46.1019 87.8138 45.7425C87.6814 45.2319 87.3788 45.0806 86.887 45.3075C86.6033 45.4399 86.3196 45.6101 86.0737 45.7993C83.3123 47.8798 81.8559 50.7169 81.2129 54.0268C80.9859 55.2373 80.74 56.4478 80.967 57.6772C81.2507 59.2092 82.291 59.909 83.7662 59.3227C84.8632 58.8876 85.9602 58.2824 86.8114 57.5258C88.5136 55.9938 90.0645 54.3294 91.5966 52.665C92.0316 52.1732 92.2585 51.4545 92.4477 50.8304C93.6771 46.7071 94.8308 42.565 96.117 38.4607C97.4598 34.2051 99.0486 30.0252 101.148 26.0722C102.132 24.2375 103.191 22.4407 104.685 20.9465C105.233 20.3791 105.876 19.8684 106.557 19.4713C108.827 18.1662 111.513 19.5091 111.872 22.0625C112.061 23.4432 111.759 24.786 111.494 26.1289C110.473 31.4815 107.957 36.1722 104.609 40.4656C103.058 42.4515 101.394 44.3618 99.8808 46.3856C98.7838 47.8609 97.8381 49.4686 96.8168 51.0195C96.7033 51.1897 96.6276 51.3978 96.552 51.5869C96.552 51.6058 96.552 51.6436 96.5709 51.7382C96.7222 51.5491 96.8546 51.3978 96.987 51.2465C98.8405 49.2038 100.656 47.1232 102.548 45.1373C103.172 44.4753 103.947 43.9457 104.742 43.4918C106.103 42.6974 107.408 43.3594 107.673 44.8914C107.881 46.0452 107.673 47.1611 107.371 48.277C106.614 51.1519 105.82 53.989 105.063 56.8639C104.912 57.3934 104.779 57.9609 104.723 58.5094C104.704 58.812 104.855 59.1146 104.95 59.4172C105.233 59.3416 105.574 59.3037 105.82 59.1524C106.236 58.8498 106.633 58.5094 106.955 58.1122C107.938 56.8828 108.884 55.6345 109.811 54.3672C109.924 54.2159 109.981 53.989 110.019 53.7809C110.718 50.4521 112.156 47.5204 114.634 45.0995C115.749 44.0025 117.017 43.1703 118.624 42.8676C120.327 42.565 121.802 43.1892 122.729 44.6077C123.41 45.6669 123.693 46.8395 123.75 48.05C123.939 51.6626 122.785 54.8968 120.781 57.8663C120.667 58.0176 120.573 58.1878 120.516 58.3959C120.686 58.3013 120.856 58.2257 121.008 58.1122C121.953 57.4124 122.899 56.7504 123.826 56.0127C124.015 55.8614 124.166 55.5777 124.185 55.3129C124.639 51.3032 126.209 47.8041 129.14 44.9482C130.086 44.0214 131.183 43.3027 132.488 42.9433C134.607 42.357 136.422 43.1513 137.387 45.0995C138.011 46.3478 138.181 47.6717 138.143 49.0335C138.049 52.2678 136.971 55.1805 135.155 57.8474C135.042 57.9987 134.947 58.15 134.834 58.3391C134.909 58.3391 134.947 58.358 134.966 58.3391C136.895 57.0719 138.824 55.7858 140.205 53.8944C140.962 52.8541 141.548 51.7571 141.888 50.5088C143.439 44.8536 145.028 39.2173 147.09 33.7134C148.281 30.5737 149.548 27.4529 151.307 24.5969C152.083 23.3486 152.972 22.157 153.936 21.0411C154.466 20.417 155.185 19.8874 155.922 19.4713C158.098 18.2419 160.689 19.4902 161.143 21.9111C161.388 23.2351 161.086 24.5402 160.859 25.8263C159.781 31.9544 157.057 37.3637 153.274 42.3002C151.534 44.5699 149.719 46.7828 147.96 49.0525C146.787 50.5656 145.652 52.1354 144.933 53.9322C144.498 55.0481 144.196 56.2397 143.931 57.4124C143.818 57.8852 143.874 58.4337 143.969 58.9255C144.177 60.0792 144.952 60.571 146.068 60.1738C146.768 59.9279 147.468 59.5307 148.054 59.0957C150.173 57.5637 152.026 55.7858 153.464 53.6107C153.691 53.2702 153.974 53.2135 154.277 53.3648C154.617 53.535 154.636 53.8944 154.466 54.197C153.066 56.5802 151.629 58.9255 149.397 60.6466C147.506 62.103 145.369 62.8406 142.948 62.4813C140.735 62.1597 139.562 60.7034 139.713 58.5094C139.751 57.8663 139.921 57.2421 140.016 56.5991C140.054 56.3721 140.11 56.2019 140.148 55.8803H140.224ZM147.808 44.097C147.808 44.097 147.903 44.1538 147.941 44.1727C148.035 44.116 148.13 44.0592 148.206 44.0025C148.716 43.5296 149.265 43.1135 149.738 42.6028C154.258 37.9311 157.076 32.3894 158.362 26.0911C158.514 25.3724 158.608 24.5969 158.57 23.8593C158.514 22.8757 157.7 22.4218 156.811 22.8947C156.225 23.1973 155.658 23.6512 155.279 24.1619C154.561 25.1643 153.899 26.2235 153.35 27.3205C151.402 31.2356 150.078 35.3967 148.924 39.5766C148.508 41.0708 148.168 42.5839 147.789 44.097H147.808ZM98.5379 44.116C98.5379 44.116 98.6325 44.1727 98.6703 44.1916C99.1432 43.7755 99.6349 43.3783 100.07 42.9433C105.082 37.9122 108.033 31.8598 109.243 24.9563C109.319 24.5591 109.3 24.1051 109.205 23.708C109.016 22.8379 108.335 22.4407 107.522 22.8568C106.936 23.1595 106.368 23.5756 105.971 24.1051C105.309 24.9941 104.704 25.9398 104.212 26.9233C101.678 32.0111 100.07 37.3826 98.746 42.8676C98.6514 43.2837 98.5947 43.7188 98.519 44.1349L98.5379 44.116ZM126.871 56.164C127.003 56.6369 127.117 57.4313 127.419 58.1689C127.817 59.0768 128.668 59.3983 129.651 59.1524C130.654 58.9065 131.41 58.3013 132.091 57.6015C133.831 55.7669 134.871 53.5918 135.325 51.133C135.514 50.1116 135.552 49.0714 135.287 48.05C134.834 46.3856 133.547 45.8182 131.996 46.6126C131.486 46.8774 130.994 47.2178 130.578 47.6339C128.308 49.8847 127.136 52.6461 126.871 56.1451V56.164ZM112.515 55.9938C112.61 56.4478 112.648 57.1097 112.856 57.715C113.31 59.0768 114.463 59.6253 115.768 58.9822C116.563 58.585 117.319 58.0176 117.925 57.3745C119.589 55.5966 120.554 53.4783 120.989 51.1141C121.197 50.0171 121.234 48.9201 120.875 47.842C120.383 46.4045 119.23 45.8939 117.83 46.5558C117.282 46.8206 116.733 47.18 116.298 47.5961C113.99 49.8468 112.818 52.6272 112.553 55.9938H112.515Z" fill="#2A2F32"/>
<path d="M47.7924 53.4784C47.9247 50.0361 49.5135 47.2369 52.691 45.3455C53.5421 44.8348 54.4689 44.7403 55.4335 44.9294C55.6416 44.9672 55.9631 45.1564 55.982 45.3077C56.0199 45.5157 55.8118 45.7616 55.6983 45.9697C55.6416 46.0453 55.5281 46.1021 55.4335 46.1588C53.3152 47.2558 52.3506 49.1094 51.9912 51.3223C51.5373 54.1783 52.256 56.7316 54.3365 58.8121C56.209 60.6846 58.5165 61.3277 61.0698 60.5333C64.8904 59.3417 68.276 57.3747 71.0563 54.5187C71.7372 53.8189 72.2857 52.9678 72.7018 52.0788C73.326 50.7738 73.1179 49.4687 72.1155 48.4095C71.4346 47.6908 70.6591 46.991 69.8458 46.4236C68.7867 45.7049 67.6518 45.0807 66.517 44.5133C63.8123 43.1704 61.2779 41.5438 58.8569 39.8038C57.7788 39.0283 56.7386 38.1204 55.8496 37.1369C53.9772 35.0564 53.7124 32.7111 55.0363 30.2145C55.7929 28.7581 56.7953 27.4909 58.0247 26.3939C62.0155 22.7813 66.7629 21.0034 72.1533 20.9656C75.5578 20.9278 78.2625 22.2896 79.7756 25.4293C80.9293 27.7935 80.8348 30.1766 79.8323 32.5787C79.2838 33.9027 78.4895 35.0942 77.5249 36.1723C76.9007 36.8721 74.8202 37.3639 73.9691 37.0234C73.5908 36.8721 73.4773 36.6073 73.7043 36.2669C73.8745 36.021 74.0825 35.794 74.2717 35.5671C75.6902 33.7703 76.6548 31.8221 76.5602 29.4957C76.4279 26.2615 73.6475 23.2731 70.47 23.0461C69.6378 22.9894 68.7488 23.1218 67.9356 23.3298C65.0796 24.0864 62.5829 25.4671 60.5213 27.5665C59.8783 28.2285 59.3109 29.004 58.8569 29.8173C57.8923 31.5384 58.0247 33.2785 59.1217 34.9429C59.935 36.1723 61.0131 37.1369 62.2047 37.9691C65.1174 39.974 68.049 41.9221 71.1887 43.6054C72.3425 44.2296 73.4773 44.9105 74.5176 45.7049C77.3357 47.88 77.6762 50.3766 75.5956 53.2326C73.1747 56.5425 69.9593 58.9067 66.2901 60.7414C63.6043 62.0842 60.7861 62.9921 57.7221 63.0488C54.8661 63.1056 52.3128 62.349 50.3079 60.2496C48.5678 58.415 47.8113 56.1642 47.7734 53.4974L47.7924 53.4784Z" fill="#2A2F32"/>
<path d="M7.27944 33.1639C7.16595 32.7856 7.27944 32.6721 7.6388 32.6532C8.33861 32.6154 9.05733 32.5208 9.75714 32.4452C10.1543 32.3884 10.3056 32.1804 10.3056 31.7643C10.3056 25.4282 10.3056 19.0731 10.3056 12.7181C10.3056 12.2263 10.0976 11.9615 9.62475 11.9994C8.56557 12.075 7.48749 12.1128 6.44723 12.3209C5.19892 12.5857 4.27214 13.4179 3.83712 14.6095C3.51559 15.4795 3.38319 16.4252 3.15622 17.352C3.1184 17.5222 3.1184 17.6924 3.09948 17.8816H2.4375V11.2617H22.5429V17.8816H21.862C21.7485 17.2007 21.6728 16.5198 21.5026 15.8578C20.9352 13.399 19.4788 12.2074 16.9444 12.0372C16.3391 11.9994 15.7339 12.0372 15.1287 11.9994C14.7504 11.9804 14.5991 12.1318 14.6369 12.4911C14.6369 12.5668 14.6369 12.6613 14.6369 12.7559V31.5751C14.6369 32.256 14.6936 32.3506 15.3935 32.4641C16.1311 32.5776 16.8687 32.6154 17.6631 32.71C17.6631 32.8424 17.682 32.9937 17.7009 33.1828C14.2208 33.1828 10.7596 33.1828 7.27944 33.1828V33.1639Z" fill="#2A2F32"/>
<path d="M39.2239 21.4596V22.2728H30.8261C30.8261 22.4998 30.7883 22.67 30.7883 22.8403C30.7883 25.7719 30.7883 28.7225 30.7883 31.673C30.7883 32.2026 30.9963 32.3917 31.4881 32.4296C32.2447 32.4863 33.0201 32.562 33.7956 32.6376V33.1483H23.5821C23.5821 32.997 23.5443 32.8646 23.5443 32.6944C23.6578 32.6754 23.7334 32.6376 23.828 32.6376C24.5089 32.562 25.2087 32.5052 25.8896 32.4296C26.2868 32.3917 26.4381 32.1648 26.4381 31.7487C26.4381 25.3936 26.4381 19.0197 26.4381 12.6646C26.4381 12.1729 26.1922 12.0026 25.7761 11.9459C25.0574 11.8513 24.3198 11.7946 23.5632 11.7189C23.5632 11.5865 23.5443 11.4352 23.5254 11.2461H33.7956V11.7379C33.039 11.7946 32.3203 11.8513 31.6016 11.9081C30.8639 11.9648 30.7883 12.0405 30.7883 12.7781V21.4406C33.6065 21.4406 36.3868 21.4406 39.2239 21.4406V21.4596Z" fill="#2A2F32"/>
<path d="M47.2623 33.166H37.0677C36.9164 32.7688 37.0677 32.6553 37.446 32.6364C38.1269 32.5985 38.7889 32.5229 39.4698 32.4662C39.8859 32.4283 40.0561 32.2581 40.0561 31.8231C40.0561 25.4302 40.0561 19.0184 40.0561 12.6256C40.0561 12.2284 39.867 12.0392 39.5076 12.0203C38.6943 11.9447 37.881 11.869 37.0488 11.7744V11.2449C37.2001 11.2449 37.3325 11.207 37.4839 11.207H46.8084C46.8084 11.207 46.9029 11.207 46.9218 11.207C47.0542 11.2827 47.1866 11.3773 47.319 11.4718C47.1866 11.5664 47.0732 11.7366 46.9408 11.7555C46.3355 11.8312 45.7303 11.869 45.125 11.9068C44.6333 11.9636 44.4252 12.1905 44.4252 12.739C44.4252 18.9995 44.4063 25.26 44.3874 31.5205C44.3874 32.277 44.463 32.3338 45.2385 32.4094C45.8059 32.4662 46.3733 32.5229 46.9408 32.5796C47.319 32.6364 47.319 32.6553 47.3001 33.166H47.2623Z" fill="#2A2F32"/>
<path d="M72.02 6.28707C69.8828 8.02715 67.6131 9.29437 64.8706 9.84287C66.762 11.1858 67.3862 13.0771 67.5564 15.2333C66.2892 15.309 65.0976 15.1766 63.9249 14.8172C63.7925 14.7794 63.698 14.5713 63.6601 14.42C63.2629 12.8691 62.8658 11.3371 62.5064 9.78613C62.4686 9.61591 62.5631 9.3322 62.7144 9.21872C64.0573 8.08389 65.4191 6.98689 66.7809 5.9088C66.9133 5.79532 67.1214 5.68183 67.2916 5.66292C68.8614 5.4927 70.4124 5.70075 72.02 6.28707Z" fill="#2A2F32"/>
<path d="M68.4082 0.539062C68.2947 0.97408 68.2191 1.31453 68.1056 1.63606C67.5192 3.24374 66.5546 4.62444 65.3063 5.81602C65.2118 5.89167 65.1172 5.98624 65.0037 6.02407C64.0013 6.25103 62.9799 6.45908 61.9208 6.70496C61.656 5.53231 61.3912 4.37857 61.0885 3.11134C60.9562 3.33831 60.8805 3.45179 60.8238 3.58419C60.2563 4.79467 59.7078 6.00515 59.1215 7.21564C59.0269 7.40478 58.8189 7.61283 58.6108 7.68848C58.0056 7.91545 57.3625 8.1235 56.7195 8.29372C56.5303 8.33155 56.2466 8.29372 56.1331 8.16133C55.3198 7.32912 55.2064 6.28886 55.3766 5.22969C55.3766 5.1162 55.5657 4.98381 55.6981 4.96489C56.8708 4.73793 58.0434 4.71901 59.1593 5.49448C59.5187 3.71658 60.4077 2.26022 61.5425 0.917339C62.4503 1.50367 62.6395 2.05217 62.7151 4.35965C64.3039 2.67632 66.1764 1.52258 68.4082 0.57689V0.539062Z" fill="#2A2F32"/>
<path d="M52.1997 17.0122C52.8617 15.1019 53.883 13.3996 55.4151 11.8676C54.0154 12.1135 52.7671 12.1513 51.5566 11.1678C52.3888 10.5626 53.1643 10.0141 53.9398 9.44664C54.4315 9.08727 54.8855 9.04945 55.434 9.42772C56.096 9.88165 56.8147 10.2221 57.5523 10.6571C57.2686 11.2245 57.0227 11.7541 56.7579 12.2837C56.2284 13.3618 55.6988 14.4588 55.1313 15.5369C54.98 15.8206 54.7152 16.1232 54.4315 16.2556C53.7506 16.5961 53.013 16.8798 52.3132 17.1824C52.2754 17.1446 52.2565 17.0689 52.1997 17.0311V17.0122Z" fill="#2A2F32"/>
<path d="M58.2132 19.8482C57.0972 17.9379 57.0027 15.9898 57.5323 13.9849C57.5512 13.9093 57.6079 13.8336 57.6647 13.758C58.2699 13.1338 58.8941 12.4907 59.5371 11.8477C60.0856 12.3394 60.5963 12.7555 61.0691 13.2095C61.1637 13.2851 61.1826 13.4932 61.1637 13.6445C60.9178 16.0087 59.8397 18.0136 58.2321 19.8482H58.2132Z" fill="#2A2F32"/>
</g>
<defs>
<clipPath id="clip0_4660_88057">
<rect width="160.786" height="70" fill="white" transform="translate(0.601562 0.539062)"/>
</clipPath>
</defs>
</svg>
