<svg width="163" height="71" viewBox="0 0 163 71" fill="none" xmlns="http://www.w3.org/2000/svg">
<g clip-path="url(#clip0_4660_88085)">
<path d="M162.386 13.9429C162.184 14.6966 161.915 15.3965 161.349 15.9617C160.192 17.1192 158.496 17.348 157.137 16.527C155.737 15.6791 155.091 14.0236 155.535 12.4624C155.979 10.9012 157.393 9.85137 158.967 9.89175C160.569 9.93213 161.942 11.0761 162.292 12.6643C162.318 12.772 162.345 12.8796 162.386 12.9873V13.9294V13.9429ZM156.235 13.4853C156.235 14.9927 157.393 16.1771 158.873 16.1905C160.394 16.1905 161.538 15.0196 161.538 13.4315C161.538 11.8433 160.407 10.7397 158.913 10.7127C157.406 10.7127 156.235 11.9106 156.235 13.4718V13.4853Z" fill="#2A2F32"/>
<path d="M117.07 9.89453H118.066C120.772 9.89453 123.477 9.89453 126.182 9.89453C126.505 9.89453 126.64 9.98874 126.747 10.2983C129.237 17.0682 131.741 23.8245 134.23 30.5809C134.284 30.7424 134.352 30.904 134.446 31.1193C134.527 30.9309 134.594 30.7963 134.634 30.6482C137.191 23.8515 139.749 17.0547 142.306 10.2579C142.387 10.056 142.44 9.89453 142.723 9.89453C145.724 9.90799 148.726 9.89453 151.727 9.89453C151.781 9.89453 151.835 9.90799 151.942 9.93491C151.66 10.6617 151.391 11.3481 151.121 12.0614C146.922 22.6805 142.723 33.3131 138.537 43.9322C138.389 44.2956 138.228 44.3898 137.878 44.3898C135.576 44.3764 133.275 44.3764 130.987 44.3898C130.65 44.3898 130.502 44.2822 130.381 43.9726C126.397 33.6765 122.414 23.3939 118.416 13.0978C117.999 12.048 117.555 11.0251 117.084 9.90799L117.07 9.89453Z" fill="#2A2F32"/>
<path d="M116.371 16.0957C114.231 17.7781 112.118 19.447 110.059 21.089C109.291 20.5507 108.551 19.945 107.73 19.4739C105.954 18.4914 104.042 18.0338 102.024 18.3434C100.072 18.6395 98.5781 19.7835 97.4206 21.3313C94.9845 24.6018 94.6481 28.1281 96.4516 31.8023C98.2551 35.4632 102.575 37.1455 106.6 35.5439C107.865 35.0325 109.009 34.3461 110.018 33.4174C112.091 35.0998 114.15 36.7687 116.209 38.4511C112.764 42.5157 105.684 45.9746 98.5512 43.5386C91.4852 41.1294 86.7477 34.8441 86.7207 27.5089C86.7073 19.4336 91.3372 13.1482 98.0532 10.8198C105.159 8.37031 112.158 11.0083 116.371 16.0957Z" fill="#2A2F32"/>
<path d="M10.3138 0.539062V10.6602H15.1455V18.2107H10.3138V18.6952C10.3138 23.029 10.3138 27.3628 10.3138 31.71C10.3138 32.2349 10.3676 32.7598 10.4753 33.2847C10.879 35.2362 12.2788 36.2726 14.2303 36.138C15.2667 36.0572 16.2088 35.7611 17.0702 35.1959C17.3259 35.0344 17.5951 34.8728 17.8911 34.6844C18.8198 36.9052 20.1119 38.8432 21.7808 40.6871C20.8252 41.3197 19.8965 41.9926 18.9275 42.5579C16.7337 43.8231 14.3649 44.496 11.8481 44.3076C8.42951 44.0519 5.40124 42.8405 3.12668 40.1218C1.56544 38.2645 0.892494 36.0169 0.892494 33.6212C0.865576 23.0424 0.879035 12.4772 0.892494 1.88496C0.892494 1.8042 0.892494 1.70999 0.905953 1.5754C1.76733 1.49465 2.61524 1.40044 3.47661 1.30622C5.61659 1.07742 7.77002 0.835159 9.90999 0.606357C9.99075 0.606357 10.0715 0.56598 10.1523 0.539062C10.2061 0.539062 10.2599 0.539062 10.3138 0.539062Z" fill="#2A2F32"/>
<path d="M57.4192 70.5383C56.9078 69.8115 56.4098 69.0712 55.8849 68.3444C54.216 66.016 52.5202 63.7011 50.8513 61.3592C50.7436 61.2112 50.6897 60.9959 50.7032 60.8209C51.1877 57.3485 51.6722 53.8895 52.1568 50.4171C52.6144 47.1062 53.0854 43.7953 53.543 40.4844C54.0006 37.2004 54.4583 33.9299 54.9159 30.6325C55.0908 29.3673 55.2792 28.1156 55.4408 26.8505C55.4677 26.6486 55.4004 26.3929 55.2927 26.2179C54.1891 24.3068 53.0854 22.409 51.9683 20.5113C51.8607 20.3229 51.8203 20.1883 51.9683 19.9864C53.8122 17.7388 55.6561 15.4911 57.5134 13.2031C57.8634 13.6473 58.2133 14.0645 58.5767 14.4952C60.0706 16.3121 61.5377 18.1156 63.0316 19.9191C63.22 20.1614 63.1931 20.3095 63.0585 20.5517C61.9414 22.436 60.8243 24.3202 59.7476 26.2179C59.6265 26.4198 59.5727 26.7025 59.5996 26.9447C60.111 30.8478 60.6359 34.7374 61.1743 38.6271C61.8068 43.257 62.426 47.8868 63.0854 52.5167C63.4757 55.3027 63.9199 58.0753 64.3237 60.8613C64.3506 61.0362 64.2698 61.2785 64.1487 61.44C61.928 64.4817 59.6938 67.4965 57.4731 70.5383C57.4461 70.5517 57.4192 70.5517 57.3923 70.5517L57.4192 70.5383Z" fill="#2A2F32"/>
<path d="M17.7562 26.974C17.7024 18.4949 24.0954 9.86768 34.701 9.89459C44.0684 9.92151 51.5247 17.5124 51.4709 27.0951C51.417 36.9875 44.2838 44.4303 34.3242 44.3495C25.3874 44.2688 17.7427 37.149 17.7562 26.974ZM25.8047 27.0682C25.9258 32.2634 29.6135 36.0319 34.7145 36.1395C38.6849 36.2203 43.2878 33.0709 43.4359 27.3105C43.557 22.5325 39.7077 18.1449 34.876 18.2257C28.7522 18.3334 25.8316 22.8421 25.8047 27.0682Z" fill="#2A2F32"/>
<path d="M61.687 33.1376C62.1715 33.5818 62.5753 33.9586 62.9925 34.3085C66.7879 37.6194 73.975 36.7177 76.0746 30.3516C77.1648 27.0407 76.7341 23.8779 74.5268 21.1322C72.7906 18.9653 70.4084 18.1578 67.7166 18.2789C66.4784 18.3328 65.3209 18.6962 64.2307 19.3153C64.1769 19.3556 64.1096 19.3691 64.0558 19.3826C62.1446 17.0272 60.2604 14.6988 58.3223 12.3032C58.6318 12.1282 58.9414 11.9398 59.2509 11.7917C66.0073 8.35968 74.5941 9.65174 80.0854 14.968C83.154 17.9425 84.7556 21.6167 84.9979 25.9236C85.2267 29.9882 84.3788 33.7702 82.2119 37.2022C79.9643 40.7554 76.8283 43.0972 72.7637 44.0528C70.7987 44.5104 68.8068 44.4297 66.8283 44.2278C65.6978 44.1201 64.5807 43.9048 63.4501 43.7702C63.1809 43.7298 63.0733 43.6221 63.0329 43.353C62.6022 40.1363 62.1581 36.9196 61.7274 33.7029C61.7274 33.5548 61.7274 33.3933 61.7005 33.1511L61.687 33.1376Z" fill="#2A2F32"/>
<path d="M93.7049 57.1085C93.328 58.5217 93.005 59.8272 92.6685 61.1327C92.0494 61.2045 91.6501 60.9443 91.4707 60.3521C91.0534 58.9658 90.6497 57.593 90.2325 56.2067C90.1921 56.0721 90.1652 55.9375 90.1113 55.7626H91.04C91.4034 57.1085 91.7668 58.4544 92.1302 59.7868C92.1571 59.7868 92.184 59.7868 92.1975 59.7868C92.5474 58.4409 92.9108 57.1085 93.2607 55.7626H94.2163C94.5393 57.0546 94.8758 58.3602 95.2123 59.6657C95.2392 59.6657 95.2796 59.6657 95.3065 59.6657C95.4545 59.1408 95.616 58.6293 95.7641 58.1044C95.939 57.4988 96.1544 56.9066 96.2755 56.2875C96.3832 55.803 96.612 55.6549 97.0561 55.7357C97.1369 55.7491 97.2176 55.7491 97.3388 55.776C97.0158 56.8528 96.6927 57.9026 96.3697 58.9389C96.1813 59.5715 95.9525 60.1906 95.8045 60.8231C95.6833 61.3211 95.3469 61.0923 95.0777 61.1462C94.8085 61.2 94.7277 61.052 94.6604 60.7962C94.3644 59.5984 94.0413 58.4005 93.7049 57.095V57.1085Z" fill="#2A2F32"/>
<path d="M133.154 61.1465C132.607 61.1824 132.275 61.0119 132.158 60.6351C131.727 60.8235 131.324 61.0927 130.866 61.1869C130.435 61.2811 129.951 61.2542 129.507 61.1869C128.901 61.0792 128.538 60.6351 128.43 60.0159C128.322 59.3565 128.524 58.7508 129.13 58.4547C129.587 58.2259 130.099 58.1452 130.61 58.0375C131.014 57.9433 131.445 57.9029 131.849 57.7952C131.956 57.7683 132.091 57.5799 132.104 57.4453C132.131 56.9069 131.875 56.5974 131.351 56.4628C130.462 56.2474 129.964 56.4628 129.52 57.2569C129.48 57.3376 129.359 57.3914 129.264 57.3914C129.049 57.3914 128.834 57.3376 128.591 57.2972C128.713 56.5839 129.049 56.0859 129.695 55.8437C130.449 55.561 131.229 55.5341 131.997 55.7629C132.602 55.9379 132.966 56.3416 132.993 56.9877C133.033 57.7414 133.006 58.4951 133.033 59.2488C133.06 59.8814 133.114 60.5005 133.154 61.133V61.1465ZM132.064 58.522C131.364 58.6566 130.691 58.7777 130.032 58.9392C129.574 59.0469 129.359 59.3699 129.386 59.7602C129.412 60.1505 129.709 60.4601 130.153 60.5274C131.391 60.7158 132.198 59.8814 132.05 58.522H132.064Z" fill="#2A2F32"/>
<path d="M142.359 58.6828H138.47C138.443 59.7595 139.129 60.5267 140.071 60.4998C140.556 60.4863 140.973 60.2844 141.175 59.8537C141.35 59.4634 141.592 59.3827 141.942 59.4634C142.05 59.4903 142.157 59.5038 142.265 59.5173C142.225 60.3921 141.377 61.1727 140.381 61.2669C138.093 61.4688 136.774 59.423 137.703 57.1081C138.322 55.5469 140.475 55.1027 141.633 56.3006C142.265 56.9466 142.4 57.7676 142.359 58.7097V58.6828ZM141.363 57.8887C141.336 56.9735 140.731 56.3544 139.923 56.3813C139.116 56.4082 138.51 57.0543 138.524 57.8887H141.363Z" fill="#2A2F32"/>
<path d="M148.066 58.6943H144.136C144.136 59.8248 144.822 60.5516 145.791 60.5112C146.249 60.4843 146.652 60.3093 146.827 59.8921C147.016 59.4076 147.312 59.3941 147.716 59.4883C147.81 59.5018 147.904 59.5287 148.012 59.5422C147.904 60.0805 147.635 60.4843 147.245 60.8073C145.885 61.9244 143.651 61.1707 143.288 59.448C143.153 58.8154 143.18 58.1021 143.315 57.4695C143.57 56.2447 144.58 55.5583 145.791 55.6256C146.962 55.7064 147.81 56.487 147.998 57.7118C148.039 58.0079 148.039 58.3174 148.066 58.6943ZM144.176 57.8867H147.056C147.016 56.9984 146.464 56.3928 145.656 56.3793C144.862 56.3659 144.27 56.9446 144.176 57.8867Z" fill="#2A2F32"/>
<path d="M68.8066 53.7148H73.7057V54.5762H69.8161V56.8777H73.1808V57.7391H69.7891V61.1442H68.8066C68.8066 58.6677 68.8066 56.1913 68.8066 53.7148Z" fill="#2A2F32"/>
<path d="M87.1915 61.291C85.5898 61.2775 84.5939 60.0662 84.715 58.2493C84.8092 56.7822 85.4687 55.8939 86.6127 55.6651C88.322 55.3152 89.5872 56.3516 89.7083 58.182C89.8025 59.8105 89.143 60.8872 87.824 61.2102C87.6221 61.2506 87.4068 61.2641 87.2049 61.291H87.1915ZM85.6168 58.4377C85.6706 58.7876 85.6975 59.1241 85.8052 59.4471C85.9936 60.0797 86.532 60.4835 87.1376 60.4969C87.7836 60.5104 88.3355 60.147 88.5643 59.5144C88.8065 58.8145 88.82 58.1012 88.5777 57.4148C88.3624 56.8092 87.7971 56.4054 87.2049 56.3919C86.5858 56.3919 86.0071 56.7957 85.8052 57.4417C85.711 57.7647 85.6841 58.1012 85.6168 58.4511V58.4377Z" fill="#2A2F32"/>
<path d="M110.664 58.4131C110.678 59.436 110.462 60.3512 109.534 60.9164C107.932 61.872 106.048 61.0107 105.779 59.1399C105.698 58.5746 105.725 57.9689 105.846 57.4037C106.102 56.2058 107.219 55.479 108.457 55.6136C109.749 55.7482 110.624 56.6903 110.691 58.0228C110.691 58.1439 110.691 58.2785 110.691 58.3996L110.664 58.4131ZM106.573 58.4535C106.667 58.8303 106.707 59.2341 106.855 59.5975C107.098 60.2031 107.555 60.4992 108.201 60.4858C108.82 60.4858 109.264 60.1627 109.507 59.584C109.83 58.8169 109.83 58.0228 109.507 57.2556C109.264 56.6769 108.78 56.3673 108.174 56.3673C107.569 56.3673 107.071 56.6903 106.842 57.2825C106.721 57.6459 106.68 58.0497 106.586 58.44L106.573 58.4535Z" fill="#2A2F32"/>
<path d="M79.4796 58.4376C79.4661 58.7068 79.4661 58.949 79.4257 59.1913C79.2239 60.4834 78.2683 61.2774 76.9493 61.264C75.6572 61.264 74.7151 60.4699 74.5671 59.1509C74.4998 58.6126 74.4998 58.0338 74.594 57.4955C74.8362 56.2572 75.886 55.5035 77.1646 55.5978C78.4029 55.6785 79.3046 56.5668 79.4392 57.8185C79.4661 58.0338 79.4661 58.2492 79.4661 58.4241L79.4796 58.4376ZM78.5913 58.4376C78.5105 58.0877 78.4702 57.7108 78.3625 57.3743C78.1471 56.7687 77.5953 56.4053 77.0031 56.4053C76.4109 56.4053 75.8591 56.7687 75.6438 57.3609C75.3746 58.0877 75.3746 58.8414 75.6438 59.5816C75.886 60.2142 76.4109 60.5372 77.057 60.5237C77.6626 60.5103 78.1606 60.1334 78.3625 59.5143C78.4702 59.1644 78.5105 58.8144 78.5778 58.4511L78.5913 58.4376Z" fill="#2A2F32"/>
<path d="M100.449 55.7884C101.077 55.7345 101.49 55.9858 101.687 56.5421C102.078 57.6726 102.482 58.8032 102.885 59.9472C103.303 58.7897 103.706 57.6323 104.11 56.5017C104.298 55.9723 104.689 55.7435 105.281 55.8153C105.012 56.5555 104.743 57.2823 104.473 58.0226C103.989 59.3415 103.504 60.674 103.006 61.993C102.885 62.316 102.71 62.639 102.495 62.9216C102.145 63.3927 101.647 63.4465 101.122 63.3388C101.028 63.3254 100.907 63.1639 100.88 63.0562C100.826 62.8678 100.84 62.6659 100.813 62.4236C100.934 62.4371 101.028 62.4506 101.109 62.464C101.661 62.5448 101.943 62.3698 102.172 61.8584C102.36 61.4411 102.387 61.0643 102.212 60.6067C101.634 59.1531 101.109 57.6726 100.57 56.2056C100.53 56.0979 100.49 55.9768 100.449 55.8288V55.7884Z" fill="#2A2F32"/>
<path d="M111.686 55.773H112.588V58.1822C112.588 58.5456 112.588 58.9359 112.601 59.2993C112.628 60.026 112.938 60.4029 113.53 60.4702C114.163 60.5509 114.795 60.1472 114.957 59.5281C115.037 59.1781 115.051 58.8282 115.064 58.4648C115.078 57.5765 115.064 56.7017 115.064 55.773H115.939V61.1162H115.186C115.159 60.9143 115.145 60.7259 115.105 60.4836C114.486 61.197 113.745 61.4123 112.911 61.1835C112.13 60.9816 111.713 60.524 111.686 59.6492C111.632 58.3571 111.673 57.0785 111.673 55.7461L111.686 55.773Z" fill="#2A2F32"/>
<path d="M127.851 57.3361C127.568 57.3899 127.312 57.4303 127.03 57.4841C126.989 57.4034 126.936 57.3091 126.909 57.2284C126.72 56.7035 126.357 56.3939 125.805 56.3805C125.253 56.3805 124.769 56.6093 124.54 57.1342C124.15 57.9956 124.163 58.8838 124.54 59.7587C124.782 60.297 125.294 60.5528 125.899 60.4855C126.465 60.4316 126.801 60.0817 126.989 59.5568C127.03 59.4357 127.07 59.3145 127.111 59.1665C127.393 59.2069 127.676 59.2338 127.945 59.2742C127.891 60.297 127.151 61.1046 126.182 61.2526C124.984 61.4276 123.934 60.8892 123.571 59.8125C123.248 58.8569 123.248 57.8744 123.652 56.9188C124.029 56.0036 125.024 55.4922 126.088 55.6268C127.111 55.7614 127.703 56.2997 127.891 57.3361H127.851Z" fill="#2A2F32"/>
<path d="M83.6522 61.1463H82.7773V53.7305H83.6522V61.1463Z" fill="#2A2F32"/>
<path d="M150.017 61.1455H149.143V55.7754H149.91C149.91 55.9773 149.923 56.1657 149.937 56.2599C150.273 56.058 150.596 55.7485 150.973 55.6408C151.269 55.56 151.632 55.7485 152.009 55.8292C151.888 56.1926 151.794 56.4618 151.686 56.7444C151.538 56.6906 151.417 56.6502 151.283 56.6098C150.758 56.4752 150.314 56.7175 150.179 57.2424C150.071 57.6193 150.031 58.023 150.017 58.4268C150.004 59.3151 150.017 60.2034 150.017 61.132V61.1455Z" fill="#2A2F32"/>
<path d="M135.227 56.3402C136.035 55.4922 136.465 55.398 137.259 55.9364C137.152 56.2056 137.057 56.4747 136.95 56.7574C135.913 56.4075 135.375 56.7574 135.308 57.8879C135.254 58.7359 135.281 59.5972 135.281 60.4586V61.1315H134.393V55.7749H135.173C135.2 55.9768 135.214 56.1383 135.227 56.3402Z" fill="#2A2F32"/>
<path d="M119.95 56.7552C119.829 56.7148 119.761 56.6879 119.667 56.661C119.021 56.4591 118.537 56.7148 118.389 57.3877C118.294 57.805 118.267 58.2356 118.267 58.6529C118.254 59.4739 118.267 60.2814 118.267 61.1293H117.393V55.7861H118.146C118.16 55.9611 118.187 56.1495 118.187 56.2976C118.483 56.0822 118.765 55.7592 119.088 55.6785C119.438 55.5977 119.829 55.7592 120.273 55.813C120.152 56.1764 120.057 56.4456 119.95 56.7552Z" fill="#2A2F32"/>
<path d="M80.5293 53.7148H81.3638V61.1307H80.5293V53.7148Z" fill="#2A2F32"/>
<path d="M160.206 12.7048C160.085 12.7452 159.978 12.7856 159.829 12.8394C159.668 12.4222 159.399 12.1665 158.941 12.1934C158.511 12.2203 158.174 12.4222 158.08 12.8663C158.013 13.2163 158.026 13.6066 158.08 13.9565C158.147 14.4006 158.47 14.6429 158.914 14.6564C159.331 14.6833 159.641 14.4814 159.789 14.0642C159.803 14.0103 159.843 13.9565 159.883 13.8892C159.991 13.9161 160.112 13.943 160.233 13.97C160.233 14.0238 160.247 14.0642 160.233 14.1045C160.004 14.7506 159.601 15.0467 158.941 15.0467C158.268 15.0467 157.851 14.7237 157.649 14.0507C157.313 12.974 157.77 12.005 158.712 11.83C159.399 11.6954 159.951 12.0319 160.179 12.7183L160.206 12.7048Z" fill="#2A2F32"/>
</g>
<defs>
<clipPath id="clip0_4660_88085">
<rect width="161.507" height="70" fill="white" transform="translate(0.878906 0.539062)"/>
</clipPath>
</defs>
</svg>
