<svg width="180" height="71" viewBox="0 0 180 71" fill="none" xmlns="http://www.w3.org/2000/svg">
<g clip-path="url(#clip0_4660_88218)">
<path d="M69.0196 51.8531H68.4805L68.7673 51.1992L69.0196 51.8531Z" fill="#2A2F32"/>
<path d="M68.7673 51.1992L68.4805 51.8531H69.0196L68.7673 51.1992Z" fill="#2A2F32"/>
<path d="M86.6624 20.1551C86.3068 19.4324 85.5038 18.595 83.8519 18.595C83.198 18.5606 82.5556 18.6982 81.9705 19.0309L81.8673 19.0997C81.3281 19.5357 80.8922 20.0748 80.6398 20.6943L68.7667 48.8687L57.1459 20.7287C56.6067 19.3521 55.4825 18.595 53.9338 18.595C52.1672 18.595 51.3756 19.4668 51.043 20.224C50.5726 21.199 50.607 22.3921 51.1921 23.7687L65.6578 57.2774C66.4838 59.0899 67.826 59.4455 68.8011 59.4455H68.8699C69.5238 59.4455 70.1662 59.262 70.7512 58.9064L70.8201 58.8719C71.3592 58.436 71.7608 57.8969 72.0131 57.2774L86.6624 23.4131C87.2016 22.3233 87.2016 21.1646 86.6624 20.1551ZM69.019 51.8513H68.4799L68.7667 51.1974L69.019 51.8513Z" fill="#2A2F32"/>
<path d="M96.0125 33.5544V56.0847C96.0469 56.991 95.6913 57.9316 95.0718 58.5855C94.4638 59.2394 93.592 59.595 92.6857 59.595H92.5366C91.6303 59.595 90.7699 59.2279 90.116 58.5855C89.4622 57.9316 89.1065 57.0254 89.141 56.0847V33.52C89.1065 32.6137 89.4622 31.673 90.116 31.0191L90.1505 30.9847C91.5271 29.677 93.6493 29.677 95.0259 30.9847L95.0603 31.0191C95.7142 31.7074 96.0354 32.6137 96.001 33.5544H96.0125Z" fill="#2A2F32"/>
<path d="M126.825 37.2493C125.712 35.1155 124.014 33.2686 121.949 31.9608C118.083 29.6092 113.322 29.3912 109.25 31.307C108.206 31.8117 107.231 32.4656 106.359 33.1883V22.0379C106.394 21.1316 106.038 20.1909 105.418 19.537L105.384 19.5026C104.007 18.2752 101.92 18.2752 100.543 19.5026L100.509 19.537C99.8547 20.1909 99.4991 21.0972 99.5335 22.0034V44.6714C99.5335 47.2755 100.187 49.891 101.484 52.1739C102.711 54.3879 104.478 56.189 106.646 57.4623C108.275 58.403 110.11 59.0225 111.946 59.2748L111.877 59.3437L113.07 59.3781C113.357 59.3781 113.644 59.4125 113.93 59.3781H114.332C119.425 59.3781 124.152 56.6249 126.675 52.1739C127.972 49.891 128.626 47.287 128.591 44.7173C128.626 42.1477 128.018 39.5436 126.825 37.2607V37.2493ZM118.06 37.4328C119.219 38.1555 120.228 39.1765 120.871 40.404C121.594 41.7117 121.949 43.1916 121.915 44.7517C121.949 46.2316 121.559 47.7573 120.836 49.0995C119.54 51.6347 116.833 53.2293 114.011 53.1604H113.827C111.051 53.1604 108.447 51.5659 107.151 49.0651C106.462 47.7229 106.107 46.243 106.107 44.7173C106.072 43.1916 106.428 41.7117 107.151 40.404C108.481 37.8687 111.12 36.3086 113.976 36.3889H114.011C115.456 36.3201 116.856 36.6757 118.049 37.4443L118.06 37.4328Z" fill="#2A2F32"/>
<path d="M157.786 46.4822C158.36 45.8972 158.692 45.1056 158.692 44.2682C158.761 41.7674 158.222 39.2321 157.178 36.9493C156.169 34.85 154.586 33.0719 152.589 31.8444C150.421 30.5825 147.966 29.963 145.477 29.9975C142.884 29.963 140.349 30.6169 138.112 31.8788C135.979 33.1063 134.212 34.9188 133.03 37.0984C131.803 39.4157 131.149 42.0656 131.229 44.7041C131.195 47.3426 131.837 49.9925 133.145 52.3098C134.407 54.478 136.288 56.2905 138.491 57.4835C140.797 58.711 143.366 59.3649 145.959 59.3649H146.211C147.943 59.3305 149.641 59.0437 151.259 58.4242C152.842 57.9194 154.322 57.1164 155.664 56.1413C156.421 55.6366 156.857 54.7303 156.823 53.7896C156.754 52.8834 156.318 52.046 155.629 51.5068C155.021 51.002 154.264 50.7497 153.461 50.7841C152.739 50.8185 152.016 51.0709 151.408 51.5068C150.685 52.0115 149.894 52.4475 149.022 52.7343C148.116 53.0555 147.186 53.239 146.165 53.239C144.582 53.2734 143.022 52.8719 141.657 52.1148C140.395 51.3921 139.317 50.3367 138.594 49.0748C138.273 48.5356 138.02 47.9506 137.837 47.3311H155.48C156.352 47.3655 157.144 47.0443 157.786 46.4593V46.4822ZM138.411 40.2187C138.984 38.9912 139.925 37.9358 141.083 37.2131C142.414 36.456 143.894 36.0545 145.454 36.0889H145.523C148.116 35.9857 150.467 37.4311 151.546 39.8172C151.798 40.4022 152.016 40.9758 152.154 41.5953H137.894C138.043 41.0905 138.181 40.6546 138.399 40.2187H138.411Z" fill="#2A2F32"/>
<path d="M168.213 32.9477V57.8641C168.248 60.1126 167.709 62.3954 166.596 64.38C165.518 66.2614 164.003 67.8215 162.122 68.8769C160.206 69.9667 158.038 70.5059 155.881 70.5059H155.629C154.723 70.5403 153.828 70.1847 153.209 69.4964C152.589 68.8425 152.233 67.9707 152.268 67.0644C152.233 66.1581 152.589 65.2519 153.209 64.598C153.862 63.9441 154.757 63.5885 155.664 63.6229C156.707 63.6573 157.751 63.3705 158.658 62.9002C159.449 62.4299 160.172 61.7416 160.642 60.8697C161.147 59.9635 161.399 58.9539 161.365 57.8986V33.3033C161.331 32.3971 161.686 31.4908 162.34 30.8369C162.994 30.1831 163.854 29.8618 164.761 29.8618C166.562 29.793 168.122 31.1696 168.225 32.9362L168.213 32.9477Z" fill="#2A2F32"/>
<path d="M178.722 33.5544V56.0847C178.756 56.991 178.401 57.9316 177.781 58.5855C177.207 59.2394 176.336 59.595 175.441 59.595H175.257C174.351 59.595 173.491 59.2279 172.837 58.5855C172.183 57.9316 171.827 57.0254 171.862 56.0847V33.52C171.827 32.6137 172.183 31.673 172.837 31.0191L172.871 30.9847C174.248 29.677 176.37 29.677 177.747 30.9847L177.781 31.0191C178.435 31.7074 178.756 32.6137 178.722 33.5544Z" fill="#2A2F32"/>
<path d="M96.7688 22.7611C96.7688 23.8509 96.3329 24.9293 95.5414 25.7323C94.7842 26.5238 93.7403 27.0056 92.6505 27.0056H92.5473C91.4689 27.0056 90.3791 26.5697 89.622 25.7323C88.8305 24.9752 88.3945 23.8853 88.3945 22.7611C88.3945 21.6369 88.8305 20.593 89.6564 19.79C90.4135 18.9984 91.4919 18.5625 92.6161 18.5625C93.7403 18.5625 94.8187 18.9984 95.5758 19.8359C96.3329 20.5586 96.7688 21.6484 96.7688 22.7726V22.7611Z" fill="#2A2F32"/>
<path d="M169.086 22.7601C169.052 25.0774 167.205 26.9243 164.899 26.9588H164.83C163.752 26.9588 162.662 26.5228 161.905 25.6854C161.114 24.9283 160.678 23.8385 160.678 22.7142C160.678 21.59 161.114 20.5461 161.94 19.7431C162.697 18.9515 163.775 18.5156 164.899 18.5156H164.934C166.012 18.5156 167.102 18.986 167.859 19.7775C168.616 20.5346 169.086 21.6244 169.086 22.7487V22.7601Z" fill="#2A2F32"/>
<path d="M179.479 22.7611C179.479 23.8509 179.043 24.9293 178.251 25.7323C177.494 26.5238 176.45 27.0056 175.36 27.0056H175.291C174.213 27.0056 173.123 26.5697 172.366 25.7323C171.575 24.9752 171.139 23.8853 171.139 22.7611C171.139 21.6369 171.575 20.593 172.401 19.79C173.158 18.9984 174.236 18.5625 175.36 18.5625C176.484 18.5625 177.528 18.9984 178.32 19.8359C179.008 20.5586 179.479 21.6484 179.479 22.7726V22.7611Z" fill="#2A2F32"/>
<path d="M8.13896 4.87425V42.398C8.13896 44.4973 6.44116 46.241 4.3189 46.241C2.23106 46.2066 0.533261 44.4973 0.533261 42.3636V4.87425C0.521789 2.72905 2.21959 1.03125 4.34185 1.03125C6.4641 1.03125 8.12749 2.72905 8.12749 4.87425H8.13896Z" fill="#2A2F32"/>
<path d="M21.1257 5.73643L8.10538 40.5529C7.34825 42.549 5.14569 43.524 3.19551 42.8013C1.21092 42.0442 0.235828 39.8302 0.958541 37.88L13.9789 3.02912C14.736 1.03306 16.9041 0.0579662 18.8887 0.78068C20.8733 1.53781 21.8828 3.75184 21.1257 5.7479V5.73643Z" fill="#2A2F32"/>
<path d="M12.1421 51.5539C7.48464 47.6421 6.76193 40.7591 10.5935 36.1934C14.4135 31.6277 21.2391 31.0541 25.8966 34.9659C30.5541 38.8777 31.2424 45.7263 27.4453 50.3265C23.6597 54.9266 16.7996 55.4313 12.1421 51.5539ZM4.02021 32.0751C-1.57796 39.7152 -0.235777 50.5788 7.23227 56.8538C14.9871 63.3697 26.4702 62.429 32.814 54.7889C39.1693 47.1488 38.0107 35.7001 30.2214 29.1842C27.2962 26.7178 23.6941 25.238 19.897 24.9053L30.2903 12.3782C31.5866 10.7148 31.2998 8.28286 29.6364 6.98656C28.0877 5.71321 25.7705 5.93117 24.4397 7.4569L4.67409 31.2376L4.02021 32.0751Z" fill="#2A2F32"/>
</g>
<defs>
<clipPath id="clip0_4660_88218">
<rect width="178.958" height="70" fill="white" transform="translate(0.521484 0.539062)"/>
</clipPath>
</defs>
</svg>
