<svg width="220" height="71" viewBox="0 0 220 71" fill="none" xmlns="http://www.w3.org/2000/svg">
<g clip-path="url(#clip0_4660_88152)">
<path d="M158.84 27.9685C158.799 24.5364 159.348 21.4476 160.378 18.4274C160.899 16.8624 161.833 16.2446 163.576 16.1485C167.077 15.97 170.564 15.7504 174.078 15.5582C176.618 15.4209 179.171 15.2699 181.725 15.1738C183.647 15.1052 185.39 15.6406 186.942 16.8075C188.163 17.7273 189.413 18.5921 190.662 19.457C190.978 19.6767 191.088 19.8551 190.95 20.2395C190.236 22.2576 189.783 24.3442 188.877 26.2936C187.875 28.449 186.214 30.0689 184.347 31.4966C178.952 35.67 173.543 39.8296 168.134 43.9893C166.514 45.2248 164.867 44.964 163.714 43.2891C161.256 39.7473 159.705 35.8759 159.115 31.6202C158.909 30.3297 158.84 29.0255 158.854 27.9548L158.84 27.9685Z" fill="#2A2F32"/>
<path d="M186.847 55.0798C186.229 55.0524 185.611 55.0798 184.993 54.97C182.934 54.6131 182.097 53.4324 182.659 51.4281C183.785 47.3783 184.938 43.3422 186.119 39.2924C186.874 36.6703 187.492 33.9796 188.494 31.4262C189.373 29.2159 190.677 27.3214 192.763 26.0173C193.862 25.3309 194.891 24.5346 195.948 23.7658C196.237 23.5599 196.429 23.505 196.758 23.7384C198.323 24.8778 199.916 25.9898 201.481 27.1292C202.826 28.1177 203.691 29.4493 204.24 30.9731C205.531 34.5699 206.752 38.1942 208.07 41.7772C208.633 43.3148 208.427 44.6052 207.288 45.827C203.156 50.3299 198.09 53.2814 192.036 54.517C190.333 54.8876 188.604 55.0935 186.86 55.0798H186.847Z" fill="#2A2F32"/>
<path d="M29.4661 14.5004C28.7247 15.9556 27.9697 17.3971 27.2284 18.8385C24.3592 24.371 21.5037 29.9034 18.6208 35.4222C17.7422 37.097 16.7675 38.7032 15.2986 39.9387C12.0725 42.6706 5.19463 42.2862 3.4237 36.2733C2.91575 34.571 2.68238 32.8275 2.42154 31.0703C2.09206 28.7914 1.79004 26.5126 1.46057 24.2337C1.19973 22.3392 0.938897 20.4447 0.678062 18.5502C0.527052 17.4382 0.376042 16.3263 0.197575 15.228C0.115206 14.7063 0.170119 14.3906 0.815343 14.267C1.99597 14.0337 3.17659 13.814 4.38467 14.0886C6.07324 14.473 7.26759 15.9007 7.54215 17.8364C8.05009 21.4194 8.53058 25.0162 9.06598 28.5993C9.2719 29.9858 9.38173 31.3861 9.8073 32.7314C9.95831 33.2119 10.123 33.7061 10.6859 33.8022C11.3037 33.9121 11.6881 33.5414 11.9901 33.0609C13.2943 31.0154 14.2415 28.764 15.3809 26.6224C16.946 23.6708 18.4835 20.7055 20.0623 17.754C21.1056 15.8046 22.6706 14.418 24.9632 14.0886C26.4321 13.9101 27.9422 14.0474 29.4523 14.5004H29.4661Z" fill="#2A2F32"/>
<path d="M106.837 18.8114C110.571 18.8663 113.674 20.1704 115.65 23.424C117.312 26.1559 117.408 29.08 116.268 31.9904C114.291 37.0424 110.502 40.0626 105.107 41.0785C101.936 41.6825 98.9569 41.1334 96.3623 39.184C94.3168 37.6327 93.095 35.546 92.9028 33.0063C92.5047 27.5974 95.1405 23.7398 99.561 20.898C101.757 19.4978 104.187 18.7702 106.823 18.7976L106.837 18.8114ZM105.807 24.4948C105.299 24.4536 104.737 24.5497 104.229 24.7694C101.634 25.8127 100.11 27.6935 99.7532 30.4391C99.5335 32.1689 100 33.6927 101.442 34.791C102.815 35.8206 104.352 35.8068 105.903 35.1891C108.333 34.2144 110.118 31.5648 110.104 28.9702C110.104 26.403 108.292 24.4948 105.821 24.4948H105.807Z" fill="#2A2F32"/>
<path d="M47.7106 30.3715C49.0559 30.4264 50.2503 30.5362 51.4309 30.1381C52.9822 29.6164 54.1628 28.7104 54.5335 27.0493C54.9179 25.3195 53.902 23.7545 52.131 23.3976C49.4678 22.8622 46.983 24.2762 45.9259 26.9944C45.0199 29.3556 45.1571 31.6345 46.8045 33.68C47.8067 34.9018 49.2481 35.3823 50.7445 35.6706C53.9432 36.2883 56.9359 35.7118 59.709 33.982C59.7914 33.9271 59.8875 33.8996 60.0659 33.8035C59.9424 34.7782 59.5855 35.5882 59.0638 36.3295C57.3203 38.883 54.808 40.4068 51.8428 41.1344C48.4382 41.9581 45.1571 41.56 42.3017 39.4321C39.4599 37.2905 38.3617 34.3527 38.6774 30.8794C38.9795 27.4062 40.4072 24.4547 43.0704 22.1346C45.1709 20.295 47.6694 19.3066 50.4562 18.9908C52.3919 18.7712 54.3138 18.8124 56.1809 19.3752C58.6108 20.1303 60.4503 21.5168 61.1367 24.0428C62.0016 27.2277 60.821 29.9459 57.8832 31.5384C55.316 32.9112 52.6115 33.2407 49.8384 32.115C49.001 31.758 48.3009 31.2364 47.7243 30.3852L47.7106 30.3715Z" fill="#2A2F32"/>
<path d="M191.54 13.6785C190.291 13.6785 189.042 13.6373 187.806 13.6785C184.58 13.7883 181.601 13.047 178.773 11.4957C176.522 10.2602 174.202 9.13448 171.895 7.95386C171.813 7.89894 171.703 7.85776 171.621 7.80285C170.097 6.97916 170.07 5.71616 171.539 4.8101C175.149 2.54495 179.103 1.18586 183.358 0.705377C186.791 0.30726 190.195 0.568096 193.531 1.43297C195.343 1.89973 196.153 3.23136 195.618 5.01603C194.808 7.78912 193.888 10.5348 193.037 13.2804C192.954 13.5412 192.831 13.5824 192.598 13.5824C192.254 13.5824 191.884 13.5824 191.54 13.5824C191.54 13.6099 191.54 13.6373 191.54 13.6511V13.6785Z" fill="#2A2F32"/>
<path d="M148.751 19.3722C148.407 21.1569 147.776 22.7219 146.376 23.8888C145.36 24.74 144.165 25.1518 142.861 25.2205C142.367 25.2479 142.175 25.3166 142.092 25.8657C141.736 28.2544 141.255 30.6294 140.912 33.0181C140.596 35.1322 141.955 35.7362 143.808 35.6264C144.467 35.5852 145.126 35.5166 145.758 35.3381C146.087 35.242 146.211 35.3793 146.129 35.7088C145.25 39.6762 141.983 41.6805 138.564 41.2412C137.329 41.0765 136.176 40.7882 135.228 39.9645C133.787 38.7015 133.567 36.9992 133.773 35.2558C134.171 31.7413 134.926 28.2681 135.517 24.7812C135.846 22.8729 136.079 20.9647 136.56 19.084C137.26 16.352 139.127 14.8145 141.914 14.3203C142.518 14.2105 143.15 14.1693 143.754 14.1144C144.069 14.0732 144.193 14.1693 144.11 14.5262C143.822 15.9951 143.603 17.4915 143.314 18.9741C143.232 19.4134 143.493 19.3448 143.74 19.3448C145.277 19.3448 146.815 19.3448 148.352 19.3722C148.476 19.3448 148.586 19.3722 148.751 19.3722Z" fill="#2A2F32"/>
<path d="M131.191 35.2593C130.779 37.4283 129.846 39.1718 127.965 40.2838C125.59 41.6841 123.133 41.6292 120.717 40.3387C119.399 39.6248 118.836 38.403 118.712 36.9616C118.548 35.0945 118.946 33.2687 119.261 31.4429C119.783 28.4638 120.291 25.4711 120.826 22.5058C121.101 21.0094 121.225 19.4856 121.842 18.0579C122.776 15.9025 124.492 14.7494 126.771 14.3101C127.334 14.2003 127.924 14.1728 128.487 14.0904C129.022 14.0218 129.105 14.2414 129.022 14.7219C128.761 16.0947 128.555 17.4813 128.281 18.8541C128.212 19.266 128.35 19.3209 128.706 19.3209C130.175 19.3209 131.658 19.3483 133.127 19.3209C133.621 19.3209 133.676 19.417 133.566 19.9112C133.154 21.6272 132.413 23.1098 130.917 24.1669C129.942 24.8533 128.844 25.1691 127.677 25.2103C127.306 25.2103 127.128 25.3201 127.073 25.677C126.661 28.0657 126.194 30.427 125.824 32.8294C125.604 34.3532 126.002 35.3966 127.855 35.5888C128.761 35.6711 129.626 35.4789 130.505 35.3691C130.738 35.3417 130.93 35.3005 131.191 35.2456V35.2593Z" fill="#2A2F32"/>
<path d="M74.92 19.3478C75.6888 19.3478 76.4575 19.3752 77.2263 19.3478C77.6107 19.3478 77.6382 19.5125 77.5695 19.7871C76.9106 22.821 75.071 25.1273 71.4879 25.2509C71.1996 25.2509 71.1173 25.3332 71.0624 25.6215C70.7466 27.4611 70.4171 29.3007 70.1014 31.1403C70.0053 31.7168 69.9229 32.3072 69.8268 32.8837C69.4424 35.1489 70.8976 35.698 72.545 35.6294C73.2451 35.6019 73.9453 35.5195 74.6317 35.3274C75.0023 35.2175 75.1122 35.2999 75.0161 35.7392C74.3434 38.5397 72.7372 40.4617 69.8268 41.1069C67.7676 41.5599 65.7907 41.2717 64.0884 39.9126C63.0451 39.0614 62.6882 37.8808 62.6195 36.6041C62.5097 34.7233 62.9902 32.9249 63.2922 31.0991C63.7864 28.0926 64.3218 25.0999 64.8572 22.0797C65.0906 20.7618 65.2141 19.4164 65.7358 18.1671C66.6419 15.9432 68.3854 14.7351 70.7054 14.3095C71.3506 14.186 72.0096 14.1448 72.6686 14.0899C72.9431 14.0624 73.0667 14.0899 72.998 14.4605C72.7097 15.8471 72.4901 17.2611 72.2292 18.6613C72.1469 19.1281 72.1743 19.3889 72.7784 19.334C73.4785 19.2791 74.1924 19.334 74.8925 19.334C74.8925 19.334 74.8925 19.3432 74.8925 19.3615L74.92 19.3478Z" fill="#2A2F32"/>
<path d="M89.6921 18.51C89.5685 19.869 89.2527 21.338 89.0056 22.7931C88.5252 25.58 88.0309 28.3531 87.5779 31.1399C87.4269 32.0322 87.1112 32.9245 87.2896 33.8581C87.4818 34.7916 88.0309 35.3132 88.9919 35.4368C89.9666 35.5604 90.9276 35.4368 91.8886 35.2446C92.6299 35.0799 92.6299 35.0799 92.4514 35.7937C91.7376 38.5256 90.0627 40.3927 87.2347 40.983C85.148 41.4223 83.1025 41.1477 81.4002 39.7337C80.2059 38.7453 79.9176 37.3313 80.0549 35.9036C80.3706 32.7873 81.057 29.7259 81.5787 26.6508C82.2102 22.9304 82.8554 19.1964 83.4869 15.476C83.5144 15.3113 83.5693 15.1603 83.5967 14.9955C83.7157 14.2451 84.1504 13.9156 84.9009 14.0071C85.7383 14.1032 86.5758 14.2268 87.3583 14.57C89.0194 15.3113 89.6509 16.6704 89.7195 18.4962L89.6921 18.51Z" fill="#2A2F32"/>
<path d="M214.11 28.0655C214.151 29.5481 214.042 31.1131 213.726 32.6644C213.506 33.7077 212.641 34.1059 211.776 33.4744C209.717 32.0054 207.644 30.5503 205.736 28.8754C204.253 27.5575 203.553 25.8003 203.004 23.9607C202.62 22.6977 202.235 21.4485 201.81 20.1855C201.686 19.8285 201.755 19.6501 202.071 19.4304C204.006 18.0576 205.915 16.6436 207.836 15.2708C209.401 14.1451 210.788 14.5157 211.598 16.2592C213.136 19.5952 214.206 23.6587 214.124 28.0655H214.11Z" fill="#2A2F32"/>
<path d="M25.7175 36.0276C25.6763 34.3665 26.1293 32.7603 26.4039 31.1404C26.6373 29.7401 26.8157 28.3261 27.1864 26.9533C28.065 23.7271 30.5223 22.2582 33.6249 22.1621C34.7781 22.1209 34.7781 22.1621 34.5859 23.2604C34.0093 26.5826 33.4052 29.9048 32.8836 33.227C32.6777 34.5449 33.3229 35.5471 34.8193 35.6707C35.7528 35.7393 36.6726 35.6707 37.5923 35.451C38.1552 35.3137 38.265 35.4098 38.1827 35.9589C37.7296 38.8831 35.0801 41.2031 32.0736 41.3267C30.9891 41.3816 29.932 41.3267 28.8887 40.9697C26.9118 40.2833 25.7724 38.7732 25.7175 36.714V36.0413V36.0276Z" fill="#2A2F32"/>
<path d="M203.595 13.5677H199.915C199.682 13.5677 199.476 13.5677 199.394 13.2794C198.639 10.7122 197.842 8.14502 197.115 5.56412C196.772 4.32859 197.801 3.20288 199.407 3.72455C200.519 4.08148 201.439 4.80907 202.386 5.4543C204.528 6.93694 206.436 8.69415 208.111 10.6847C208.441 11.0829 208.77 11.4672 208.866 11.9889C209.017 12.689 208.688 13.2382 207.988 13.4304C207.15 13.65 206.285 13.5127 205.448 13.5402C204.844 13.5951 204.226 13.5814 203.608 13.5814L203.595 13.5677Z" fill="#2A2F32"/>
<path d="M91.8199 67.6009C91.8885 67.0792 91.9572 66.6125 92.0258 66.1045C91.7101 66.2281 91.6277 66.5027 91.4355 66.6811C90.4471 67.6421 89.3076 68.15 87.9486 67.6696C86.6581 67.2303 86.26 66.1045 86.2188 64.8827C86.1227 62.2332 87.7838 59.6386 90.351 58.9384C91.161 58.7188 91.9846 58.6501 92.7946 58.911C93.2202 59.0483 93.3025 58.9384 93.3163 58.554C93.3163 58.3893 93.3849 58.2383 93.4261 58.0736C93.481 57.8539 93.3986 57.7304 93.1378 57.7578C92.9182 57.7853 92.671 57.799 92.4514 57.7578C92.2592 57.7166 91.8474 57.9912 91.9435 57.5244C92.0121 57.1538 91.765 56.5635 92.5475 56.5635C93.7418 56.5635 93.783 56.5635 93.9203 55.4103C93.9752 54.9984 94.1262 54.9023 94.4969 54.9023C95.5128 54.9023 95.5128 54.9023 95.3206 55.8633C95.2291 56.3301 95.4304 56.5635 95.9246 56.5635C96.007 56.5635 96.1031 56.536 96.1717 56.5635C96.4051 56.6733 96.8719 56.2889 96.9131 56.8106C96.968 57.5382 96.7346 57.7578 96.0894 57.7578C95.0186 57.7578 94.9911 57.7578 94.7852 58.8149C94.2635 61.5331 93.5908 64.2101 93.3163 66.9694C93.2614 67.4911 93.0692 67.6833 92.5475 67.6009C92.3278 67.5735 92.0807 67.6009 91.8474 67.6009H91.8199ZM87.7975 64.3885V64.7592C87.825 65.4319 87.9623 66.0771 88.6212 66.434C89.3488 66.8184 90.0352 66.6399 90.6667 66.2006C91.2982 65.7613 91.7513 65.1436 92.067 64.4297C92.4926 63.4413 92.575 62.3842 92.7946 61.3546C93.028 60.1465 92.7946 59.8994 91.5591 59.9269C91.257 59.9269 90.955 59.9818 90.653 60.0779C88.9919 60.6133 87.825 62.3842 87.8113 64.4022L87.7975 64.3885Z" fill="#2A2F32"/>
<path d="M31.7182 20.4449H31.4162C30.4644 20.4449 30.0754 19.9919 30.2493 19.0858C30.3454 18.523 30.4415 17.9738 30.5788 17.411C31.073 15.3792 32.2124 14.432 34.3128 14.1849C35.4385 14.0476 36.5505 14.075 37.6625 14.0613C37.8821 14.0613 38.143 14.0064 38.0332 14.3908C37.8272 15.2968 37.6762 16.2166 37.4566 17.1227C36.9898 19.0858 35.7955 20.1154 33.75 20.3076C33.0086 20.3763 32.281 20.5136 31.7045 20.4449H31.7182Z" fill="#2A2F32"/>
<path d="M62.3726 60.4067C63.1414 59.6105 63.8278 59.0339 64.8025 58.8417C66.6146 58.4985 67.8501 59.487 67.7266 61.2991C67.6442 62.6307 67.2873 63.9074 67.0539 65.1979C66.9441 65.8431 66.7931 66.4746 66.697 67.1198C66.6283 67.4768 66.4911 67.6003 66.0929 67.6003C65.0359 67.5729 65.0496 67.6003 65.2555 66.557C65.585 64.9233 66.0243 63.3171 66.1341 61.6423C66.2028 60.5852 65.7909 60.0498 64.9398 59.9812C64.4593 59.94 64.0474 60.1185 63.6493 60.3793C62.5236 61.1206 61.9882 62.2189 61.7548 63.4819C61.5352 64.6762 61.2881 65.8706 61.1233 67.0786C61.0272 67.7376 60.5742 67.5729 60.1761 67.6003C59.6956 67.6415 59.4622 67.6415 59.5995 66.9688C60.3957 63.07 61.1371 59.1575 61.8647 55.2449C61.9333 54.8468 62.1667 54.9292 62.3863 54.9292C63.4022 54.9017 63.4297 54.9017 63.2512 55.8764C62.9766 57.3316 62.6746 58.7731 62.3726 60.4067Z" fill="#2A2F32"/>
<path d="M135.268 54.97C134.925 56.7272 134.595 58.4432 134.252 60.173C135.021 59.5278 135.804 58.9924 136.778 58.8002C138.288 58.5119 139.51 59.4454 139.524 60.9692C139.524 62.6715 138.989 64.2914 138.728 65.9663C138.7 66.1585 138.659 66.3781 138.632 66.5703C138.412 67.6823 138.412 67.6686 137.259 67.6137C136.916 67.6137 136.916 67.5176 136.984 67.2156C137.327 65.4858 137.643 63.7423 137.959 62.0126C138.082 61.3124 138.069 60.626 137.396 60.2142C136.71 59.7886 136.023 60.022 135.433 60.4338C134.28 61.2026 133.786 62.3695 133.552 63.6737C133.346 64.8543 133.127 66.0349 132.921 67.2156C132.866 67.4764 132.797 67.6686 132.44 67.6274C132.083 67.5862 131.699 67.6274 131.314 67.6274C132.056 63.7149 132.811 59.8435 133.552 55.9722C133.758 54.8602 133.758 54.8602 135.268 54.9837V54.97Z" fill="#2A2F32"/>
<path d="M54.6988 60.3271C54.9459 59.929 54.8773 59.5721 54.74 59.2014C54.5615 58.6797 54.74 58.3228 55.2205 58.1992C55.701 58.0757 56.1128 58.3228 56.2089 58.8582C56.3462 59.6682 55.9206 60.3134 55.4401 60.9037C55.2068 61.192 55.0832 61.4254 55.1244 61.8647C55.3715 64.2534 53.93 66.9304 51.5688 67.6168C48.7133 68.4542 46.4207 66.4773 46.8738 63.567C47.1209 61.9196 47.7798 60.5193 49.1801 59.5446C50.5804 58.5562 52.3925 58.5013 53.7241 59.3387C54.136 59.6133 54.3693 60.0114 54.7125 60.3408L54.6988 60.3271ZM48.3701 64.1024C48.3976 64.3632 48.3976 64.624 48.4388 64.8849C48.6447 66.0243 49.4409 66.6421 50.6078 66.6146C51.3766 66.6146 51.9395 66.2028 52.4062 65.6537C53.1887 64.7339 53.5594 63.6356 53.6143 62.455C53.6692 61.2744 53.0789 60.2997 52.214 60.0114C51.253 59.7093 50.0999 60.1486 49.4135 61.0822C48.7408 61.9882 48.3976 62.9904 48.3701 64.1024Z" fill="#2A2F32"/>
<path d="M149.203 60.6965C149.464 60.2846 149.478 59.8865 149.327 59.4884C149.203 59.1315 149.203 58.8157 149.533 58.5549C149.78 58.3627 150.041 58.3352 150.343 58.4725C150.727 58.651 150.809 58.9667 150.796 59.3374C150.796 60.1199 150.398 60.7377 149.876 61.2868C149.601 61.5751 149.45 61.8497 149.464 62.289C149.546 64.5816 148.174 66.7781 146.211 67.5194C144.851 68.0411 143.52 68.0136 142.353 67.0526C141.2 66.1054 141.035 64.7875 141.213 63.4284C141.392 62.1379 141.955 60.9985 142.902 60.0375C144.453 58.4862 147.707 57.9371 149.217 60.6828L149.203 60.6965ZM147.913 62.4537C147.913 61.177 147.46 60.367 146.581 60.065C145.593 59.7218 144.536 60.0924 143.767 61.0534C143.026 61.9869 142.71 63.0852 142.682 64.2384C142.655 65.3503 143.231 66.2289 144.11 66.531C145.016 66.8467 145.991 66.531 146.746 65.6524C147.528 64.7326 147.913 63.648 147.927 62.4537H147.913Z" fill="#2A2F32"/>
<path d="M46.488 57.1411C43.056 55.6448 39.3631 57.704 38.814 61.3832C38.6218 62.6187 38.6492 63.813 39.2807 64.9387C39.8024 65.886 40.6535 66.339 41.6694 66.4763C42.6716 66.5999 43.66 66.5449 44.6073 66.188C45.0466 66.0095 45.0878 66.2292 45.1564 66.5175C45.2662 67.0392 45.1839 67.3549 44.5524 67.4922C43.207 67.7805 41.8754 67.9452 40.5163 67.602C38.6218 67.1215 37.5235 65.8448 37.2352 64.019C36.8371 61.4381 37.4823 59.118 39.4317 57.251C40.5849 56.139 42.0126 55.5075 43.6463 55.4389C44.5524 55.3839 45.4584 55.3839 46.3507 55.6585C46.9136 55.8232 47.0783 56.0429 46.79 56.5371C46.6802 56.7293 46.5979 56.9489 46.5018 57.1411H46.488Z" fill="#2A2F32"/>
<path d="M112.988 64.1536C112.988 61.7786 114.402 59.6782 116.448 58.9918C119.001 58.1269 121.555 59.6233 121.266 62.822C121.115 64.4968 120.456 65.8833 119.111 66.9267C118.205 67.6406 117.134 67.9426 115.967 67.8053C113.867 67.5445 112.906 65.8696 113.002 64.1399L112.988 64.1536ZM119.729 62.7671C119.729 61.257 119.276 60.3921 118.452 60.0763C117.532 59.7057 116.599 59.9802 115.734 60.8726C114.869 61.7786 114.553 62.9043 114.498 64.1124C114.443 65.2656 114.979 66.2403 115.844 66.5011C116.887 66.8169 117.656 66.6247 118.493 65.6774C119.317 64.7714 119.674 63.6594 119.715 62.7533L119.729 62.7671Z" fill="#2A2F32"/>
<path d="M77.6101 62.4682C77.6101 64.8706 76.1824 66.9436 74.0683 67.6162C71.5011 68.4399 69.332 66.9161 69.3458 64.2666C69.3458 62.0426 70.2106 60.2305 72.2973 59.2009C74.9331 57.9104 77.7749 59.3931 77.6101 62.4682ZM76.0863 62.7427C76.0863 61.2875 75.6607 60.4227 74.8645 60.1069C73.9035 59.7225 73.0249 59.9559 72.3111 60.656C71.1716 61.768 70.746 63.1408 70.8833 64.6647C70.9657 65.5433 71.3638 66.2983 72.3111 66.5592C73.1897 66.8063 73.9859 66.5592 74.6448 65.9139C75.6195 64.9392 76.0177 63.7586 76.0863 62.729V62.7427Z" fill="#2A2F32"/>
<path d="M150.535 67.5997C151.002 64.8266 151.633 62.1633 152.018 59.4314C152.073 59.047 153.047 58.7587 153.377 59.0058C153.501 59.0882 153.404 59.1843 153.377 59.2804C153.336 59.6648 153.295 60.0355 153.253 60.4748C153.528 60.4061 153.597 60.159 153.761 59.9943C154.695 59.1019 155.766 58.5391 157.111 58.8686C158.141 59.1157 158.676 59.8433 158.717 60.9003C158.772 62.2045 158.36 63.4263 158.154 64.6893C158.031 65.4306 157.825 66.1582 157.729 66.8996C157.674 67.4761 157.44 67.6683 156.864 67.5997C156.631 67.5585 156.37 67.5997 156.109 67.5997C156.452 65.6777 156.795 63.8107 157.125 61.9437C157.235 61.2985 157.193 60.6395 156.589 60.2414C155.972 59.8158 155.326 59.9806 154.736 60.3649C153.487 61.1474 152.965 62.3555 152.718 63.7146C152.512 64.8678 152.292 66.0347 152.087 67.1878C152.032 67.4761 151.908 67.6546 151.565 67.6134C151.235 67.5585 150.906 67.6134 150.521 67.6134L150.535 67.5997Z" fill="#2A2F32"/>
<path d="M98.3118 63.7973C97.1312 63.7973 97.0626 63.8797 97.3646 65.0466C97.6666 66.241 98.6825 66.8313 100.055 66.5704C100.508 66.4881 100.934 66.3371 101.359 66.2272C101.524 66.186 101.771 65.9527 101.826 66.2272C101.895 66.5292 102.211 66.996 101.881 67.1882C100.701 67.8197 99.4101 67.9982 98.0922 67.7099C97.0351 67.4765 96.335 66.8038 95.9918 65.7605C95.1543 63.3306 96.8017 59.322 100 58.8277C100.989 58.663 101.922 58.8277 102.636 59.5828C103.24 60.2417 103.309 61.0517 103.034 61.8754C102.773 62.6304 102.156 63.056 101.456 63.3306C100.44 63.6875 99.4101 63.8385 98.3393 63.8248L98.3118 63.7973ZM98.3805 62.6854C99.1904 62.6854 99.9867 62.5755 100.742 62.2872C101.51 61.999 101.854 61.3812 101.661 60.7222C101.483 60.1182 100.852 59.8162 100.055 59.9397C98.9433 60.1182 98.2981 60.8458 97.8176 61.7656C97.3508 62.6579 97.3783 62.6991 98.3942 62.6854H98.3805Z" fill="#2A2F32"/>
<path d="M122.846 60.1067C122.887 59.9008 122.942 59.7635 122.942 59.6262C122.914 59.0908 123.175 58.8986 123.697 58.981C124.026 59.0222 124.424 59.0496 124.397 58.5691C124.315 57.3199 125.221 57.1277 126.195 56.9492C126.086 57.5121 125.989 58.0612 125.852 58.6103C125.784 58.9261 125.852 59.0222 126.182 59.0084C126.745 59.0084 127.294 59.0084 127.856 59.0084C127.774 59.7589 127.39 60.1342 126.703 60.1342C125.591 60.1342 125.578 60.1342 125.372 61.205C125.111 62.5366 124.85 63.882 124.63 65.2136C124.479 66.0922 124.699 66.6688 125.756 66.5452C125.893 66.5452 126.154 66.4354 126.113 66.71C126.058 67.0532 126.319 67.5748 125.907 67.6984C125.166 67.918 124.383 67.9592 123.697 67.4925C123.258 67.1904 123.093 66.7374 123.093 66.2157C123.065 64.9802 123.463 63.8133 123.656 62.6052C123.752 61.9463 123.862 61.2736 124.054 60.6421C124.177 60.1891 124.026 60.1067 123.628 60.1342C123.381 60.1342 123.148 60.1342 122.859 60.1342L122.846 60.1067Z" fill="#2A2F32"/>
<path d="M107.758 60.1067C107.758 59.9694 107.799 59.9008 107.799 59.8184C107.826 59.1457 108.142 58.83 108.842 58.9673C109.117 59.0222 109.282 58.9123 109.282 58.6103C109.282 57.4709 109.982 57.0041 111.107 56.9492C111.025 57.4434 110.943 57.9651 110.805 58.4868C110.709 58.8849 110.805 59.0084 111.217 58.9673C111.629 58.9261 112.055 58.9673 112.467 58.9673C112.755 58.9673 112.81 59.0359 112.782 59.3105C112.727 59.8459 112.604 60.1616 111.904 60.1204C110.49 60.0518 110.49 60.093 110.256 61.4521C110.05 62.564 109.844 63.6898 109.611 64.8017C109.556 65.0488 109.529 65.2822 109.529 65.5293C109.529 66.3256 109.735 66.5315 110.545 66.5315C110.723 66.5315 111.08 66.3393 111.011 66.7511C110.943 67.0806 111.355 67.616 110.641 67.7258C110.201 67.7808 109.776 67.8494 109.35 67.7533C108.444 67.5611 108.046 67.1081 108.005 66.1883C107.95 64.9116 108.376 63.7035 108.568 62.4542C108.664 61.7953 108.801 61.1363 108.966 60.4911C109.035 60.1753 108.966 60.0792 108.664 60.093C108.376 60.1204 108.087 60.093 107.785 60.093L107.758 60.1067Z" fill="#2A2F32"/>
<path d="M79.4084 67.5754C78.6671 67.7539 78.6808 67.4381 78.8044 66.8753C79.3123 64.4317 79.7791 61.9743 80.2321 59.517C80.3145 59.064 80.4929 58.9404 80.946 58.9541C81.8246 58.9953 81.852 58.9541 81.6873 59.819C81.2205 62.2489 80.74 64.6788 80.3007 67.1224C80.1909 67.7676 79.7516 67.5617 79.4084 67.5754Z" fill="#2A2F32"/>
<path d="M214.055 48.1328C214.055 46.5678 215.331 45.2911 216.924 45.2773C218.516 45.2773 219.821 46.5541 219.821 48.1603C219.821 49.7665 218.544 51.002 216.951 51.0157C215.359 51.0157 214.055 49.739 214.055 48.1328ZM216.979 50.5764C218.31 50.5764 219.395 49.4919 219.395 48.1603C219.395 46.8286 218.269 45.7441 216.951 45.7441C215.551 45.7441 214.453 46.8012 214.453 48.1465C214.453 49.4919 215.524 50.5764 216.979 50.5764Z" fill="#2A2F32"/>
<path d="M115.953 57.8423C116.612 57.0461 117.23 56.291 117.848 55.5772C118.232 55.1242 119.056 55.234 119.303 55.7556C119.646 56.4421 119.962 57.1422 120.305 57.8423C118.822 58.3503 118.96 56.95 118.41 56.3322C118.163 56.6205 117.861 56.8951 117.683 57.2246C117.298 57.8972 116.722 58.0071 115.953 57.8423Z" fill="#2A2F32"/>
<path d="M72.3398 57.8286C72.9988 57.0324 73.6166 56.2498 74.2755 55.4811C74.605 55.1104 75.4287 55.2889 75.6346 55.7419C75.9778 56.4283 76.321 57.1147 76.6505 57.8149C75.1678 58.3503 75.3189 56.9363 74.756 56.3597C74.0147 56.9088 73.8362 58.3365 72.3398 57.8286Z" fill="#2A2F32"/>
<path d="M102.869 57.8833C102.165 57.9199 101.533 57.4028 100.975 56.332C100.659 56.5105 100.481 56.8262 100.302 57.1008C99.8905 57.7597 99.3825 58.0892 98.5039 57.8284C99.1629 57.0184 99.7944 56.2084 100.481 55.4397C100.769 55.1239 101.579 55.3024 101.771 55.6868C102.128 56.4006 102.485 57.1145 102.856 57.8833H102.869Z" fill="#2A2F32"/>
<path d="M103.118 56.5784C103.516 56.0567 103.9 55.5899 104.134 55.0134C104.477 54.0798 104.134 53.6268 103.131 53.7504C103.035 53.7504 102.925 53.7915 102.843 53.8053C102.733 53.0502 102.761 53.0228 103.475 52.9953H103.722C105.465 52.858 105.534 54.0387 105.081 55.082C104.93 55.4115 104.71 55.7135 104.518 56.0155C104.202 56.5097 103.804 56.7843 103.104 56.5646L103.118 56.5784Z" fill="#2A2F32"/>
<path d="M120.43 56.2875C120.787 55.505 121.13 54.7774 121.446 54.0361C121.528 53.8439 121.652 53.8164 121.83 53.8164H123.203C122.612 54.6676 122.132 55.4775 121.542 56.2051C121.322 56.4934 120.855 56.2875 120.43 56.2875Z" fill="#2A2F32"/>
<path d="M81.6745 55.5606C82.1687 55.5606 82.5394 55.9724 82.5531 56.4804C82.5531 57.0432 82.0589 57.51 81.4823 57.4825C80.9744 57.4551 80.6449 57.0707 80.6586 56.5353C80.6586 55.9862 81.1391 55.5469 81.6745 55.5469V55.5606Z" fill="#2A2F32"/>
<path d="M72.5586 70.5387C72.0094 70.5387 71.7074 70.2092 71.7212 69.6464C71.7212 69.1247 72.1467 68.7266 72.6684 68.7266C73.1901 68.7266 73.5058 69.111 73.4921 69.6601C73.4646 70.2367 73.1352 70.5524 72.5586 70.5387Z" fill="#2A2F32"/>
<path d="M217.433 48.2583C217.899 48.6565 218.119 49.137 218.435 49.6037C218.105 49.7684 217.982 49.5625 217.845 49.3566C217.639 49.0409 217.405 48.7114 217.186 48.4094C216.966 48.1211 216.609 48.176 216.321 48.2309C216.005 48.2858 216.211 48.6016 216.142 48.7937C216.06 49.082 216.389 49.6312 215.909 49.6312C215.497 49.6312 215.744 49.1095 215.717 48.8212C215.676 48.176 215.717 47.517 215.703 46.8718C215.703 46.5835 215.772 46.46 216.074 46.4737C216.458 46.5011 216.856 46.4737 217.254 46.4737C217.721 46.4737 218.078 46.5972 218.188 47.0915C218.298 47.5857 218.16 47.9701 217.639 48.1622C217.57 48.1622 217.515 48.2172 217.419 48.2721L217.433 48.2583ZM216.815 47.819H217.186C217.515 47.819 217.776 47.6543 217.79 47.3248C217.79 46.9954 217.515 46.8443 217.186 46.8306C216.939 46.8306 216.691 46.8306 216.444 46.8306C216.252 46.8306 216.225 46.8993 216.197 47.0777C216.101 47.7504 216.156 47.8328 216.801 47.8328L216.815 47.819Z" fill="#2A2F32"/>
</g>
<defs>
<clipPath id="clip0_4660_88152">
<rect width="219.651" height="70" fill="white" transform="translate(0.169922 0.539062)"/>
</clipPath>
</defs>
</svg>
