<svg width="99" height="71" viewBox="0 0 99 71" fill="none" xmlns="http://www.w3.org/2000/svg">
<g clip-path="url(#clip0_4660_88010)">
<path d="M35.6485 5.59394C35.6485 5.59394 38.8138 6.64332 40.2957 9.77861C40.6555 10.4939 40.8697 11.1963 40.9896 11.8088C43.037 9.80431 42.7114 7.00739 42.2189 5.88948C41.6963 4.60881 40.7112 3.13111 37.3232 1.55062C33.9352 -0.0298721 30.6158 0.668286 29.6777 0.878162C29.6777 0.878162 31.4767 3.38382 31.4167 7.62845C31.4167 7.62845 31.0997 10.3825 33.6697 12.3656C35.0574 13.3593 37.2547 13.9804 39.4177 12.9225C39.3791 12.5198 38.9251 8.7121 35.6528 5.59394" fill="#2A2F32"/>
<path d="M2.94683 20.0841C2.33433 19.3859 1.3492 18.7863 0 18.2766V16.8203H13.1836V18.2766C12.0828 18.615 11.3119 18.9533 10.8707 19.2917C10.4253 19.6301 10.2068 20.0969 10.2068 20.688C10.2068 21.4076 10.5238 22.5255 11.1577 24.046L16.4174 37.2896C16.8415 38.3476 17.2398 38.8744 17.621 38.8744C18.0022 38.8744 18.4005 38.3262 18.8246 37.2254L21.3602 30.5693C23.0478 26.2176 23.8959 23.2194 23.8959 21.5704C23.8959 20.5552 23.6431 19.84 23.1335 19.4159C22.628 18.9962 21.7586 18.615 20.5336 18.2766V16.8203H32.0682V18.2766C30.2521 18.782 28.95 19.3945 28.1705 20.1141C27.3866 20.8337 26.62 22.14 25.8576 24.0418L17.304 45.3977H13.6291L5.07128 24.046C4.27033 22.1015 3.55932 20.7823 2.94683 20.0841Z" fill="#2A2F32"/>
<path d="M38.4072 40.3968V22.9686C38.4072 21.4909 38.133 20.4886 37.5848 19.9575C37.0365 19.4307 35.9358 19.2508 34.291 19.4178V17.9615L41.7694 16.3767C41.9365 16.3339 42.1507 16.3125 42.4034 16.3125C42.9516 16.3125 43.3756 16.4795 43.6712 16.8179C43.9667 17.1563 44.1166 17.6403 44.1166 18.2742V40.3925C44.1166 41.5747 44.4122 42.4228 45.0032 42.9282C45.5943 43.4336 46.6523 43.7505 48.1728 43.879V45.3996H34.3553V43.879C35.8758 43.7505 36.9337 43.4336 37.5248 42.9282C38.1159 42.4228 38.4114 41.5747 38.4114 40.3925" fill="#2A2F32"/>
<path d="M58.7182 44.0089C56.4567 42.8268 54.662 41.1135 53.3299 38.8777C51.9979 36.6376 51.334 34.0205 51.334 31.018C51.334 28.0155 52.0107 25.3342 53.3599 23.0984C54.7134 20.8583 56.5295 19.1579 58.8081 17.9972C61.0911 16.8364 63.5839 16.2539 66.2866 16.2539C69.4989 16.2539 72.0731 17.0249 74.0177 18.5668C75.9623 20.1088 76.9345 22.1047 76.9345 24.5547C76.9345 26.0324 76.5319 27.1974 75.731 28.0412C74.93 28.885 73.6708 29.5103 71.9618 29.9087C70.2528 30.3113 67.9142 30.5726 64.9588 30.7011L59.3821 31.018C58.791 31.0609 58.367 31.2193 58.1143 31.4935C57.8615 31.7676 57.7331 32.2002 57.7331 32.7913C57.7331 33.1725 57.7545 33.468 57.7973 33.6779C58.1785 36.2564 59.4335 38.3037 61.5665 39.8242C63.6995 41.3448 66.1624 42.1072 68.9507 42.1072C72.373 42.1072 74.99 40.925 76.8103 38.5564L78.0139 39.5715C77.213 41.0492 75.7738 42.4541 73.705 43.7862C71.6363 45.1183 69.1006 45.7821 66.0981 45.7821C63.4383 45.7821 60.9754 45.1911 58.7139 44.0089M68.3468 28.6409C69.3833 28.3667 70.12 27.9127 70.5655 27.2788C71.0109 26.6449 71.2294 25.7583 71.2294 24.6147C71.2294 22.7558 70.7239 21.2138 69.7088 19.9888C68.6937 18.7638 67.1732 18.1514 65.1472 18.1514C62.8643 18.1514 61.0825 18.8923 59.7933 20.37C58.504 21.8477 57.7331 23.8566 57.4803 26.3922C57.4375 26.6021 57.4161 26.8976 57.4161 27.2788C57.4161 28.1226 57.5746 28.6837 57.8915 28.9578C58.2085 29.2319 58.7482 29.3476 59.5063 29.3048L63.8152 29.1763C65.8026 29.0906 67.3102 28.9107 68.3468 28.6366" fill="#2A2F32"/>
<path d="M87.0121 43.7845C85.6587 42.4953 84.9819 40.5635 84.9819 37.9851V20.938C84.9819 20.1371 84.8663 19.5845 84.635 19.289C84.4037 18.9934 84.0311 18.8478 83.5256 18.8478H80.5488V17.3915C82.3649 16.7576 83.8769 15.9138 85.0804 14.8559C86.284 13.8022 87.3719 12.4059 88.3442 10.6712C88.5541 10.29 88.8925 10.1016 89.3593 10.1016H89.9932C90.2031 10.1016 90.383 10.1744 90.5329 10.3243C90.6785 10.4742 90.7556 10.6541 90.7556 10.864L90.6914 15.1728C90.6914 15.8496 90.8927 16.2908 91.2953 16.5049C91.6979 16.7191 92.5931 16.8219 93.9894 16.8219H98.7438V19.229L93.9894 18.9763C92.5974 18.9335 91.6979 19.0491 91.2953 19.3232C90.8927 19.5974 90.6914 20.1799 90.6914 21.0665V37.2912C90.6914 39.3171 90.9527 40.8419 91.4838 41.8528C92.0106 42.8679 93.0129 43.3733 94.4949 43.3733C95.677 43.3733 96.8592 42.9921 98.0456 42.234L98.7438 43.3133C97.2232 44.9195 95.1716 45.7205 92.5974 45.7205C90.2288 45.7205 88.3699 45.078 87.0207 43.7888" fill="#2A2F32"/>
<path d="M3.08827 69.0283C3.40094 68.7584 3.55942 68.313 3.55942 67.6876V58.4574C3.55942 57.6736 3.41379 57.1424 3.12254 56.864C2.83128 56.5856 2.24877 56.4914 1.375 56.5771V55.8061L5.33694 54.9666C5.42689 54.9452 5.53825 54.9323 5.67103 54.9323C5.96229 54.9323 6.18501 55.0223 6.34349 55.2022C6.49768 55.3821 6.57906 55.6391 6.57906 55.9731V56.8812C6.57906 56.9925 6.60476 57.0868 6.66473 57.1639C6.72041 57.241 6.79322 57.2838 6.88317 57.2838C7.01595 57.2838 7.16158 57.2067 7.32005 57.0482C8.66069 55.6176 10.1255 54.9023 11.7146 54.9023C12.8325 54.9023 13.6463 55.1893 14.1474 55.759C14.6529 56.3286 14.9013 56.9626 14.9013 57.6564C14.9013 58.1918 14.7385 58.6287 14.413 58.9628C14.0875 59.2969 13.6806 59.4682 13.188 59.4682C12.6954 59.4682 12.3442 59.344 12.0658 59.0999C11.7874 58.8557 11.6461 58.5516 11.6461 58.1918C11.6461 57.7464 11.4962 57.3652 11.192 57.0525C10.8879 56.7398 10.4939 56.5813 10.0013 56.5813C9.03761 56.5813 8.22809 57.0525 7.56848 57.9905C6.90887 58.9285 6.57906 60.1707 6.57906 61.7169V67.6919C6.57906 68.3173 6.74182 68.767 7.06735 69.0326C7.39287 69.3024 7.97966 69.4694 8.82773 69.538V70.3432H1.40927V69.538C2.2145 69.4694 2.7756 69.3024 3.08827 69.0326" fill="#2A2F32"/>
<path d="M19.6508 69.6026C18.4515 68.9773 17.5049 68.0692 16.7982 66.8828C16.0915 65.6963 15.7402 64.3086 15.7402 62.7195C15.7402 61.1305 16.1 59.7127 16.8153 58.5263C17.5306 57.3399 18.4943 56.4404 19.7022 55.8236C20.91 55.2068 22.2293 54.8984 23.6641 54.8984C25.3645 54.8984 26.7266 55.3053 27.7588 56.1234C28.7868 56.9415 29.3008 57.9995 29.3008 59.293C29.3008 60.0768 29.0866 60.6936 28.6626 61.139C28.2386 61.5845 27.5704 61.9186 26.6666 62.1284C25.7629 62.3426 24.525 62.4797 22.9574 62.5482L20.002 62.7152C19.6893 62.7367 19.4666 62.8223 19.3295 62.9679C19.1968 63.1136 19.1282 63.3449 19.1282 63.6575C19.1282 63.8588 19.1411 64.0173 19.1625 64.1287C19.3638 65.495 20.0277 66.5787 21.1585 67.3839C22.2892 68.1891 23.5913 68.5918 25.069 68.5918C26.8808 68.5918 28.2685 67.9664 29.2322 66.7114L29.8704 67.2468C29.4464 68.0307 28.684 68.7759 27.5875 69.4784C26.491 70.1851 25.1504 70.5363 23.5613 70.5363C22.1522 70.5363 20.8458 70.2237 19.6508 69.5983M24.752 61.4603C25.3003 61.3146 25.6901 61.0748 25.9256 60.7407C26.1612 60.4066 26.2769 59.9355 26.2769 59.3315C26.2769 58.3464 26.007 57.5326 25.4716 56.8815C24.9362 56.2305 24.1267 55.9093 23.0559 55.9093C21.848 55.9093 20.9015 56.299 20.2204 57.0829C19.5394 57.8667 19.1282 58.9289 18.9955 60.2695C18.974 60.3809 18.9612 60.5394 18.9612 60.7407C18.9612 61.1904 19.0468 61.486 19.2139 61.6316C19.3809 61.7772 19.6679 61.8372 20.0705 61.8158L22.3535 61.7472C23.4028 61.7044 24.2038 61.6059 24.752 61.4603Z" fill="#2A2F32"/>
<path d="M34.6332 69.4801C33.9179 68.799 33.5581 67.7754 33.5581 66.409V57.3801C33.5581 56.9561 33.4939 56.6648 33.3739 56.5063C33.2497 56.3521 33.057 56.2707 32.7871 56.2707H31.2109V55.4998C32.1704 55.1657 32.9713 54.7159 33.6095 54.1591C34.2477 53.6023 34.8217 52.8613 35.3356 51.9447C35.447 51.7434 35.6269 51.6406 35.871 51.6406H36.2051C36.3165 51.6406 36.4107 51.6792 36.4921 51.7606C36.5692 51.8377 36.6077 51.9319 36.6077 52.0475L36.5735 54.3305C36.5735 54.6902 36.6806 54.9215 36.8904 55.0372C37.1003 55.1485 37.58 55.2042 38.3167 55.2042H40.8352V56.4806L38.3167 56.3478C37.58 56.3264 37.1046 56.3864 36.8904 56.532C36.6763 56.6776 36.5735 56.986 36.5735 57.4529V66.045C36.5735 67.12 36.7148 67.9253 36.9932 68.4607C37.2716 69.0004 37.8027 69.2659 38.5866 69.2659C39.2119 69.2659 39.8373 69.0646 40.4669 68.662L40.8352 69.2316C40.03 70.084 38.9421 70.508 37.58 70.508C36.3251 70.508 35.3442 70.1654 34.6289 69.4844" fill="#2A2F32"/>
<path d="M44.4004 69.0283C44.7131 68.7584 44.8715 68.313 44.8715 67.6876V58.4574C44.8715 57.6736 44.7259 57.1424 44.4347 56.864C44.1434 56.5856 43.5609 56.4914 42.6914 56.5771V55.8061L46.6491 54.9666C46.739 54.9452 46.8504 54.9323 46.9832 54.9323C47.2744 54.9323 47.4971 55.0223 47.6556 55.2022C47.8098 55.3821 47.8912 55.6391 47.8912 55.9731V56.8812C47.8912 56.9925 47.9169 57.0868 47.9769 57.1639C48.0325 57.241 48.1053 57.2838 48.1953 57.2838C48.3281 57.2838 48.4737 57.2067 48.6322 57.0482C49.9728 55.6176 51.4377 54.9023 53.031 54.9023C54.1489 54.9023 54.9627 55.1893 55.4639 55.759C55.9693 56.3286 56.2177 56.9626 56.2177 57.6564C56.2177 58.1918 56.0549 58.6287 55.7294 58.9628C55.4039 59.2969 54.997 59.4682 54.5044 59.4682C54.0119 59.4682 53.6606 59.344 53.3779 59.0999C53.0995 58.8557 52.9582 58.5516 52.9582 58.1918C52.9582 57.7464 52.8083 57.3652 52.5042 57.0525C52.2043 56.7398 51.806 56.5813 51.3134 56.5813C50.3497 56.5813 49.5402 57.0525 48.8806 57.9905C48.221 58.9285 47.8912 60.1707 47.8912 61.7169V67.6919C47.8912 68.3173 48.0539 68.767 48.3795 69.0326C48.705 69.3024 49.2918 69.4694 50.1399 69.538V70.3432H42.7214V69.538C43.5266 69.4694 44.0877 69.3024 44.4004 69.0326" fill="#2A2F32"/>
<path d="M60.9633 69.6026C59.7683 68.9773 58.8174 68.0692 58.1107 66.8828C57.4082 65.6963 57.0527 64.3086 57.0527 62.7195C57.0527 61.1305 57.4125 59.7127 58.1278 58.5263C58.8431 57.3399 59.8068 56.4404 61.0147 55.8236C62.2225 55.2068 63.5418 54.8984 64.9766 54.8984C66.677 54.8984 68.0391 55.3053 69.0713 56.1234C70.0993 56.9415 70.6133 57.9995 70.6133 59.293C70.6133 60.0768 70.3991 60.6936 69.9751 61.139C69.5511 61.5845 68.8829 61.9186 67.9791 62.1284C67.0711 62.3426 65.8375 62.4797 64.2699 62.5482L61.3145 62.7152C61.0018 62.7367 60.7791 62.8223 60.642 62.9679C60.5093 63.1136 60.4407 63.3449 60.4407 63.6575C60.4407 63.8588 60.4493 64.0173 60.475 64.1287C60.6763 65.495 61.3402 66.5787 62.471 67.3839C63.6017 68.1891 64.9038 68.5918 66.3815 68.5918C68.1933 68.5918 69.581 67.9664 70.5448 66.7114L71.1829 67.2468C70.7589 68.0307 69.9965 68.7759 68.9 69.4784C67.8035 70.1851 66.4629 70.5363 64.8738 70.5363C63.4647 70.5363 62.1626 70.2237 60.9633 69.5983M66.0645 61.4603C66.6128 61.3146 67.0026 61.0748 67.2381 60.7407C67.4737 60.4066 67.5894 59.9355 67.5894 59.3315C67.5894 58.3464 67.3195 57.5326 66.7841 56.8815C66.2487 56.2305 65.4392 55.9093 64.3684 55.9093C63.1605 55.9093 62.214 56.299 61.5329 57.0829C60.8519 57.8667 60.4407 58.9289 60.308 60.2695C60.2865 60.3809 60.2737 60.5394 60.2737 60.7407C60.2737 61.1904 60.3593 61.486 60.5264 61.6316C60.6934 61.7772 60.9804 61.8372 61.383 61.8158L63.666 61.7472C64.7153 61.7044 65.5163 61.6059 66.0645 61.4603Z" fill="#2A2F32"/>
<path d="M74.6167 69.619C73.7772 69.0022 73.3574 68.0813 73.3574 66.852C73.3574 65.4429 74.0556 64.2907 75.4562 63.3955C76.8525 62.5003 79.2768 61.8536 82.7205 61.451C83.0331 61.4081 83.2601 61.3182 83.41 61.1811C83.5557 61.0483 83.6285 60.8128 83.6285 60.4744V59.7377C83.6285 58.5084 83.3501 57.5575 82.789 56.8851C82.2322 56.2126 81.367 55.8785 80.2062 55.8785C78.4159 55.8785 77.5207 56.6838 77.5207 58.2942C77.5207 58.8982 77.3708 59.3565 77.0667 59.6691C76.7625 59.9818 76.3685 60.1403 75.8759 60.1403C75.3834 60.1403 75.0107 59.9904 74.7537 59.6863C74.4967 59.3822 74.3683 58.9881 74.3683 58.4956C74.3683 57.3091 75.0321 56.4139 76.3642 55.81C77.6963 55.2061 79.2768 54.9062 81.1143 54.9062C83.0845 54.9062 84.498 55.3474 85.3589 56.234C86.2198 57.1164 86.6524 58.5684 86.6524 60.5815V67.9314C86.6524 68.7581 87.0122 69.1735 87.7275 69.1735C87.8389 69.1735 88.0273 69.1521 88.2971 69.105V69.5761C88.0958 69.8674 87.7832 70.103 87.3591 70.2829C86.9351 70.4628 86.4768 70.5527 85.9842 70.5527C85.2904 70.5527 84.7293 70.3471 84.3052 69.9316C83.8812 69.5205 83.6542 68.9208 83.6328 68.137C83.6328 67.9571 83.5771 67.8672 83.4657 67.8672C83.3544 67.8672 83.243 67.9443 83.1316 68.1027C82.5277 68.8394 81.7439 69.4348 80.7845 69.8802C79.8207 70.3257 78.8056 70.5527 77.7305 70.5527C76.5013 70.5527 75.4647 70.2443 74.6252 69.6275M82.4121 67.6958C83.2302 66.9377 83.6371 65.9954 83.6371 64.8775V63.5026C83.6371 63.0786 83.5428 62.7745 83.3501 62.5946C83.1573 62.4147 82.8061 62.359 82.2921 62.4275C78.4673 62.8301 76.5527 64.0937 76.5527 66.2181C76.5527 66.9548 76.7968 67.5759 77.2894 68.0813C77.7819 68.5867 78.4972 68.8351 79.4395 68.8351C80.6003 68.8351 81.594 68.4539 82.4078 67.6958" fill="#2A2F32"/>
<path d="M92.2562 69.4801C91.541 68.799 91.1812 67.7754 91.1812 66.409V57.3801C91.1812 56.9561 91.1212 56.6648 90.997 56.5063C90.8728 56.3478 90.68 56.2707 90.4102 56.2707H88.834V55.4998C89.7934 55.1657 90.5944 54.7159 91.2326 54.1591C91.8708 53.6023 92.4447 52.8613 92.9587 51.9447C93.0701 51.7434 93.2499 51.6406 93.4941 51.6406H93.8282C93.9395 51.6406 94.0338 51.6792 94.1151 51.7606C94.1965 51.8419 94.2351 51.9319 94.2351 52.0475L94.2008 54.3305C94.2008 54.6902 94.3079 54.9215 94.5178 55.0372C94.7276 55.1485 95.2074 55.2042 95.9441 55.2042H98.4626V56.4806L95.9441 56.3478C95.2074 56.3264 94.7319 56.3864 94.5178 56.532C94.3036 56.6776 94.2008 56.986 94.2008 57.4529V66.045C94.2008 67.12 94.3422 67.9253 94.6206 68.4607C94.899 69.0004 95.4301 69.2659 96.2139 69.2659C96.8393 69.2659 97.4646 69.0646 98.0942 68.662L98.4626 69.2316C97.6573 70.084 96.5694 70.508 95.2074 70.508C93.9524 70.508 92.9715 70.1654 92.2562 69.4844" fill="#2A2F32"/>
</g>
<defs>
<clipPath id="clip0_4660_88010">
<rect width="98.7359" height="70" fill="white" transform="translate(0 0.539062)"/>
</clipPath>
</defs>
</svg>
