<svg width="48" height="71" viewBox="0 0 48 71" fill="none" xmlns="http://www.w3.org/2000/svg">
<g clip-path="url(#clip0_4660_88213)">
<path d="M47.4842 0.539531V1.00953C47.4842 18.6695 47.4842 36.3295 47.4842 53.9795C47.4842 54.3395 47.3742 54.5195 47.0442 54.6295C46.5742 54.7895 46.1042 54.9695 45.6842 55.2195C44.7442 55.7795 43.7242 56.1595 42.7242 56.5595C41.1842 57.1795 39.6642 57.8495 38.1342 58.4895C36.8442 59.0295 35.5642 59.5895 34.2842 60.1295C32.7442 60.7895 31.2142 61.4495 29.6742 62.1095C28.1442 62.7595 26.6342 63.4295 25.1042 64.0795C23.3642 64.8195 21.6342 65.5595 19.8942 66.3095C18.1342 67.0695 16.3742 67.8195 14.6142 68.5795C13.1342 69.2095 11.6542 69.8395 10.1642 70.4795C9.91417 70.5895 9.83417 70.5395 9.77417 70.2795C9.44417 68.7595 9.09417 67.2395 8.75417 65.7195C8.37417 64.0095 7.99417 62.2995 7.61417 60.5995C7.03417 57.9395 6.44417 55.2795 5.85417 52.6195C5.28417 50.0195 4.69417 47.4195 4.12417 44.8195C3.68417 42.8495 3.27417 40.8795 2.83417 38.9095C2.38417 36.8795 1.91417 34.8395 1.46417 32.7995C1.14417 31.3595 0.844174 29.9195 0.514174 28.4895C0.474174 28.2895 0.514174 28.1795 0.694174 28.0795C2.34417 27.1095 3.98417 26.1395 5.63417 25.1695C7.24417 24.2195 8.84417 23.2695 10.4542 22.3195C12.0742 21.3695 13.6842 20.4195 15.3042 19.4595C16.9042 18.5195 18.4942 17.5795 20.0942 16.6295C22.2342 15.3695 24.3642 14.1095 26.5042 12.8495C28.2542 11.8195 30.0042 10.7795 31.7542 9.74953C33.7242 8.58953 35.7042 7.42953 37.6642 6.26953C39.0942 5.42953 40.4942 4.52953 41.9542 3.72953C43.4242 2.92953 44.8342 2.03953 46.2942 1.21953C46.6742 0.999531 47.0442 0.769531 47.4742 0.519531L47.4842 0.539531ZM33.6042 34.3395C33.6042 35.2395 33.6142 35.9695 33.6042 36.6895C33.5442 38.7795 35.2942 40.3395 37.1742 40.2095C37.9342 40.1595 38.7042 40.2895 39.4442 40.1095C40.6442 39.8195 41.8242 38.6295 41.9342 37.3095C42.0342 36.0995 41.9542 34.8995 41.9842 33.6795C41.9842 33.4995 41.9042 33.4495 41.7442 33.4495C40.2642 33.4495 38.7942 33.4495 37.3142 33.4495C37.0942 33.4495 37.0542 33.5395 37.0542 33.7295C37.0542 34.2595 37.0642 34.7895 37.0542 35.3295C37.0542 35.5595 37.1442 35.6195 37.3542 35.6095C37.7942 35.5995 38.2242 35.5995 38.6642 35.6095C39.0242 35.6095 39.4942 35.4595 39.7142 35.6695C39.9542 35.8995 39.7842 36.3795 39.7942 36.7495C39.7942 37.4895 39.2742 38.0195 38.5242 38.0295C38.0542 38.0295 37.5842 38.0295 37.1042 38.0295C36.3242 38.0295 35.8142 37.5095 35.8142 36.7395C35.8142 35.2595 35.8342 33.7895 35.8042 32.3095C35.7942 31.6195 36.3742 30.9695 37.1242 30.9995C38.2142 31.0395 39.2942 30.9995 40.3842 31.0095C40.6342 31.0095 40.7342 30.9495 40.7142 30.6795C40.6942 30.1495 40.7142 29.6195 40.7142 29.0795C40.7142 28.8795 40.6442 28.7895 40.4342 28.7995C39.1342 28.8295 37.8242 28.7395 36.5242 28.8595C35.1942 28.9795 33.8942 30.2095 33.6842 31.5095C33.5142 32.5095 33.6442 33.4995 33.5942 34.3095L33.6042 34.3395ZM24.0042 34.5395C24.0042 36.3195 24.0042 38.0895 24.0042 39.8695C24.0042 40.1295 24.0542 40.2295 24.3342 40.2195C24.8042 40.1995 25.2742 40.1895 25.7542 40.2195C26.1142 40.2395 26.2242 40.1595 26.2242 39.7795C26.2042 37.0095 26.2242 34.2395 26.2042 31.4695C26.2042 31.1095 26.3142 31.0195 26.6542 31.0295C27.3542 31.0495 28.0542 31.0295 28.7642 31.0295C29.7342 31.0295 30.1842 31.4695 30.1842 32.4295C30.1842 34.8995 30.1842 37.3595 30.1842 39.8295C30.1842 40.1395 30.2642 40.2195 30.5742 40.2095C31.0642 40.1895 31.5742 40.1895 32.0642 40.2095C32.3442 40.2195 32.4042 40.1395 32.4042 39.8695C32.4042 37.3595 32.4042 34.8595 32.4042 32.3595C32.4042 31.8495 32.3542 31.3495 32.1242 30.8795C31.4442 29.4895 30.3042 28.8395 28.7842 28.8295C27.3342 28.8295 25.8742 28.8295 24.4342 28.8295C24.1042 28.8295 24.0242 28.9295 24.0342 29.2395C24.0342 31.0095 24.0342 32.7695 24.0342 34.5395H24.0042ZM14.4142 34.5395C14.4142 36.3195 14.4142 38.0895 14.4142 39.8695C14.4142 40.1495 14.4942 40.2295 14.7642 40.2095C15.6242 40.1695 16.5042 40.2495 17.3642 40.0995C18.9642 39.8395 20.3242 39.1295 21.3942 37.8995C22.3642 36.7795 22.7642 35.4495 22.7942 33.9995C22.8342 32.3895 22.7942 30.7895 22.8042 29.1695C22.8042 28.9095 22.7342 28.7995 22.4642 28.8095C21.9742 28.8295 21.4642 28.8395 20.9742 28.8095C20.6442 28.7895 20.5642 28.8995 20.5742 29.2195C20.5842 30.7995 20.5842 32.3895 20.5742 33.9695C20.5642 35.9895 19.0442 37.7295 17.0942 37.9795C16.7808 38.0195 16.6242 37.8895 16.6242 37.5895C16.6242 34.7995 16.6242 31.9995 16.6242 29.2095C16.6242 28.9095 16.5542 28.7995 16.2342 28.8195C15.7642 28.8395 15.2942 28.8395 14.8142 28.8195C14.4842 28.8095 14.3742 28.8895 14.3742 29.2395C14.4042 30.9895 14.3842 32.7595 14.3842 34.5195L14.4142 34.5395Z" fill="#2A2F32"/>
</g>
<defs>
<clipPath id="clip0_4660_88213">
<rect width="47" height="70" fill="white" transform="translate(0.494141 0.539062)"/>
</clipPath>
</defs>
</svg>
