<svg width="230" height="71" viewBox="0 0 230 71" fill="none" xmlns="http://www.w3.org/2000/svg">
<g clip-path="url(#clip0_4660_88340)">
<path d="M70.3182 33.7353C70.1935 44.7188 61.4079 53.2402 50.7152 53.1555C39.5495 53.0665 31.3027 43.8851 31.3973 33.5391C31.4954 22.8485 40.3188 14.196 50.9814 14.2542C61.0281 14.3088 70.2166 22.3818 70.3189 33.736L70.3182 33.7353ZM50.8034 50.6352C60.0031 50.7361 67.7783 43.1396 67.7881 33.7661C67.7979 24.4194 60.2336 16.7773 50.9253 16.7619C41.5568 16.7464 33.9547 24.3044 33.9021 33.6099C33.8489 43.0471 41.6129 50.6934 50.8034 50.6352Z" fill="#545454"/>
<path d="M50.8707 48.4805C42.7305 48.5001 36.0973 41.9139 36.0665 33.7799C36.035 25.5794 42.6716 18.9113 50.8609 18.9141C58.9325 18.9169 65.5509 25.5199 65.6357 33.5242C65.7212 41.6581 59.1147 48.5008 50.8714 48.4805H50.8707ZM50.8224 45.5384C57.3175 45.5545 62.6614 40.2533 62.6901 33.7659C62.7189 27.2484 57.3883 21.8764 50.8742 21.8589C44.3952 21.8414 39.0282 27.172 39.0072 33.644C38.9862 40.1798 44.293 45.5223 50.8224 45.5384Z" fill="#2E2D2D"/>
<path d="M40.7285 33.6245C40.8539 27.5772 45.8615 23.4391 51.155 23.6023C56.6202 23.7712 61.0777 28.3864 60.9593 33.8901C60.8381 39.5073 56.2194 43.9494 50.5742 43.8058C45.1581 43.6678 40.7474 39.2817 40.7292 33.6245H40.7285ZM50.8432 26.9809C47.1255 26.9851 44.1134 29.9986 44.1169 33.7086C44.1211 37.4067 47.1662 40.456 50.8502 40.4511C54.5301 40.4462 57.5955 37.3766 57.5906 33.7016C57.5857 30.0049 54.5455 26.9767 50.8425 26.9816L50.8432 26.9809Z" fill="#2A2F32"/>
<path d="M50.8779 11.8205C53.8445 11.8205 56.7207 12.4006 59.4274 13.5455C62.0429 14.6518 64.3922 16.236 66.4101 18.2539C68.428 20.2718 70.0122 22.6211 71.1186 25.2367C72.2634 27.9433 72.8436 30.8195 72.8436 33.7861C72.8436 36.7527 72.2634 39.6289 71.1186 42.3356C70.0122 44.9511 68.428 47.3004 66.4101 49.3183C64.3922 51.3362 62.0429 52.9204 59.4274 54.0268C56.7207 55.1716 53.8445 55.7518 50.8779 55.7518C47.9113 55.7518 45.0351 55.1716 42.3285 54.0268C39.7129 52.9204 37.3636 51.3362 35.3457 49.3183C33.3278 47.3004 31.7436 44.9511 30.6373 42.3356C29.4924 39.6289 28.9123 36.7527 28.9123 33.7861C28.9123 30.8195 29.4924 27.9433 30.6373 25.2367C31.7436 22.6211 33.3278 20.2718 35.3457 18.2539C37.3636 16.236 39.7129 14.6518 42.3285 13.5455C45.0351 12.4006 47.9113 11.8205 50.8779 11.8205ZM50.8779 9.64844C37.5472 9.64844 26.7402 20.4554 26.7402 33.7861C26.7402 47.1169 37.5472 57.9238 50.8779 57.9238C64.2087 57.9238 75.0156 47.1169 75.0156 33.7861C75.0156 20.4554 64.2087 9.64844 50.8779 9.64844Z" fill="#7B7B7B"/>
<path d="M50.8771 1.80025C55.196 1.80025 59.3845 2.64594 63.3264 4.31351C67.1352 5.92432 70.5558 8.23089 73.4937 11.1688C76.4315 14.1066 78.7381 17.5272 80.3489 21.336C82.0165 25.2786 82.8622 29.4672 82.8622 33.7853C82.8622 38.1035 82.0165 42.2927 80.3489 46.2346C78.7381 50.0434 76.4315 53.464 73.4937 56.4019C70.5558 59.3397 67.1352 61.6463 63.3264 63.2571C59.3838 64.9247 55.1953 65.7704 50.8771 65.7704C46.5589 65.7704 42.3697 64.9247 38.4278 63.2571C34.619 61.6463 31.1984 59.3397 28.2606 56.4019C25.3227 53.464 23.0161 50.0434 21.4053 46.2346C19.7377 42.292 18.892 38.1035 18.892 33.7853C18.892 29.4672 19.7377 25.2779 21.4053 21.336C23.0161 17.5272 25.3227 14.1066 28.2606 11.1688C31.1984 8.23089 34.619 5.92432 38.4278 4.31351C42.3704 2.64594 46.5589 1.80025 50.8771 1.80025ZM50.8771 0.539063C32.5156 0.539062 17.6309 15.4239 17.6309 33.7853C17.6309 52.1468 32.5156 67.0316 50.8771 67.0316C69.2386 67.0316 84.1234 52.1468 84.1234 33.7853C84.1234 15.4239 69.2386 0.539063 50.8771 0.539063Z" fill="#CECECE"/>
<path d="M50.9136 6.92243C54.5508 6.92243 58.0772 7.6343 61.3962 9.03842C64.6031 10.3949 67.4835 12.3371 69.9575 14.8111C72.4316 17.2852 74.3738 20.1656 75.7303 23.3725C77.1344 26.6915 77.8463 30.2186 77.8463 33.855C77.8463 37.4915 77.1344 41.0186 75.7303 44.3376C74.3738 47.5445 72.4316 50.4249 69.9575 52.8989C67.4835 55.373 64.6031 57.3152 61.3962 58.6717C58.0772 60.0758 54.5501 60.7877 50.9136 60.7877C47.2772 60.7877 43.7501 60.0758 40.4311 58.6717C37.2242 57.3152 34.3438 55.373 31.8697 52.8989C29.3957 50.4249 27.4535 47.5445 26.097 44.3376C24.6929 41.0186 23.981 37.4915 23.981 33.855C23.981 30.2186 24.6929 26.6915 26.097 23.3725C27.4535 20.1656 29.3957 17.2852 31.8697 14.8111C34.3438 12.3371 37.2242 10.3949 40.4311 9.03842C43.7501 7.6343 47.2772 6.92243 50.9136 6.92243ZM50.9136 4.88281C34.9127 4.88281 21.9414 17.8541 21.9414 33.855C21.9414 49.856 34.9127 62.8273 50.9136 62.8273C66.9146 62.8273 79.8859 49.856 79.8859 33.855C79.8859 17.8541 66.9146 4.88281 50.9136 4.88281Z" fill="#A3A3A4"/>
<path d="M18.2157 39.813C18.3531 39.4599 18.4484 39.23 18.5324 38.9967C20.2967 34.1026 22.049 29.205 23.8259 24.3151C25.4353 19.8855 27.0728 15.4672 28.6934 11.0418C29.3835 9.15777 30.1157 7.28771 30.7309 5.37911C31.447 3.15803 33.7816 2.84904 35.2691 3.82225C36.2934 4.49208 36.7657 5.79951 36.3313 7.09713C35.8135 8.64418 35.2579 10.1793 34.6875 11.7082C33.9539 13.6742 33.2126 15.6389 32.4398 17.5895C31.3552 20.3263 28.9856 26.6336 23.6115 41.4665C23.3074 42.3746 22.2291 45.5514 21.0611 48.2048C20.8663 48.6476 20.5314 49.3756 19.7719 49.8219C19.1077 50.2122 18.29 50.2934 17.3925 50.0965C16.4403 49.8878 15.7971 49.2551 15.4523 48.3379C15.0418 47.2463 14.6347 46.1532 14.2283 45.0595C9.61375 32.6375 5.00062 20.2142 0.384678 7.79218C0.163971 7.19802 -0.0364178 6.60877 0.00562173 5.95786C0.0882994 4.68056 0.976735 3.65689 2.28206 3.35982C3.55656 3.07044 4.83947 3.63938 5.43012 4.76954C5.55904 5.01687 5.65854 5.28102 5.75383 5.54377C9.54789 16.0053 13.3392 26.4682 17.1332 36.9298C17.4667 37.8483 17.8192 38.7599 18.215 39.8123L18.2157 39.813Z" fill="#2A2F32"/>
<path d="M207.847 25.7821C207.986 25.6245 208.081 25.5271 208.164 25.4206C213.344 18.7706 218.524 12.1193 223.702 5.46791C224.018 5.06293 224.286 4.61241 224.648 4.25507C224.935 3.9706 225.305 3.71697 225.685 3.59015C226.427 3.34281 227.208 3.36804 227.965 3.55862C228.817 3.77302 229.284 4.39731 229.565 5.18344C229.875 6.05366 229.921 6.96662 229.954 7.87608C229.985 8.73929 229.987 9.6039 229.987 10.4678C229.989 22.5892 229.99 34.7099 229.983 46.8313C229.983 47.2944 229.959 47.7709 229.851 48.2186C229.523 49.5737 228.318 50.3731 226.891 50.2309C225.433 50.0858 224.351 49.0468 224.255 47.6882C224.236 47.4325 224.245 47.1746 224.245 46.9182C224.245 35.9648 224.245 25.0114 224.245 14.058V13.3167C224.198 13.2985 224.152 13.281 224.105 13.2627C223.953 13.4533 223.798 13.6432 223.648 13.8352C219.461 19.2162 215.277 24.6008 211.079 29.9741C210.607 30.5781 210.095 31.1653 209.527 31.6781C208.471 32.6317 207.158 32.5995 206.128 31.6193C205.64 31.1548 205.191 30.6405 204.776 30.1087C200.504 24.6449 196.242 19.1735 191.977 13.7042C191.849 13.5402 191.715 13.3804 191.518 13.1394C191.476 13.3643 191.427 13.5073 191.427 13.6502C191.428 18.6249 191.435 23.5989 191.439 28.5735C191.444 34.8325 191.453 41.0915 191.448 47.3505C191.446 48.6229 190.703 49.6704 189.597 50.0634C188.397 50.4894 187.075 50.144 186.283 49.2051C185.858 48.7021 185.667 48.1135 185.627 47.4682C185.612 47.2356 185.622 47.0016 185.622 46.7675C185.622 37.3325 185.624 27.8967 185.62 18.4616C185.619 14.5849 185.608 10.7081 185.583 6.83139C185.58 6.37176 185.465 5.91283 185.397 5.4539C185.38 5.33899 185.335 5.22829 185.32 5.11338C185.177 4.08201 185.522 3.57894 186.553 3.49976C187.411 3.4339 188.281 3.45352 189.141 3.50537C190.042 3.55932 190.677 4.09882 191.218 4.78757C193.138 7.22937 195.071 9.65995 196.998 12.0954C200.448 16.4535 203.895 20.8116 207.345 25.1697C207.489 25.3519 207.64 25.5299 207.847 25.7814V25.7821Z" fill="#2A2F32"/>
<path d="M153.076 9.06586V25.064H153.907C159.698 25.064 165.491 25.0633 171.282 25.0661C171.585 25.0661 171.896 25.0577 172.188 25.1201C173.368 25.3723 174.15 26.0673 174.42 27.2641C174.678 28.4068 174.193 29.5959 173.22 30.2692C172.666 30.6532 172.05 30.815 171.373 30.8129C168.01 30.8038 164.646 30.8087 161.284 30.8087C158.832 30.8087 156.379 30.8087 153.927 30.8087H153.075C153.064 31.1135 153.046 31.3825 153.046 31.6516C153.045 36.6494 153.053 41.6472 153.034 46.645C153.032 47.2188 152.955 47.8221 152.764 48.3588C152.351 49.5184 151.489 50.1875 150.234 50.2366C148.985 50.2849 148.052 49.7272 147.574 48.5697C147.357 48.0442 147.229 47.4479 147.213 46.8797C147.166 45.1764 147.196 43.4703 147.196 41.7656C147.196 30.3918 147.199 19.018 147.187 7.64493C147.186 6.95127 147.099 6.24922 146.968 5.56677C146.673 4.02883 147.099 3.44588 148.65 3.44518C157.945 3.43887 167.24 3.44238 176.535 3.44238C176.628 3.44238 176.722 3.44378 176.816 3.44728C178.037 3.49282 179.525 4.36865 179.465 6.1224C179.411 7.7269 178.308 8.97197 176.764 9.06236C176.554 9.07497 176.343 9.06586 176.133 9.06586C168.753 9.06586 161.373 9.06586 153.993 9.06586H153.078H153.076Z" fill="#2A2F32"/>
<path d="M97.4123 44.3025H98.4184C105.542 44.3025 112.665 44.2976 119.789 44.3123C120.341 44.3137 120.91 44.395 121.439 44.5485C122.309 44.8007 122.897 45.3914 123.044 46.3127C123.202 47.3105 123.023 48.2234 122.198 48.9129C121.603 49.4096 120.911 49.657 120.142 49.6983C119.978 49.7067 119.814 49.7025 119.651 49.7025C110.613 49.7025 101.574 49.7088 92.5357 49.6899C91.8694 49.6885 91.189 49.561 90.5416 49.3921C89.7863 49.1952 89.3393 48.641 89.1221 47.8857C88.7942 46.7485 88.886 45.652 89.4977 44.6459C89.834 44.093 90.2467 43.5682 90.707 43.1128C94.8724 38.9894 99.056 34.8836 103.235 30.7735C106.598 27.4657 109.962 24.1586 113.323 20.8487C113.449 20.7247 113.553 20.5789 113.771 20.3218C113.391 20.3218 113.146 20.3204 112.9 20.3218C106.688 20.3526 100.476 20.3898 94.2649 20.4045C93.7366 20.4059 93.1901 20.3204 92.6835 20.169C91.4406 19.7984 90.8604 19.0508 90.8387 17.9206C90.8156 16.6973 91.4917 15.6407 92.6373 15.2841C93.2069 15.1068 93.8277 15.0402 94.4275 15.0269C95.9914 14.9926 97.5566 15.015 99.1219 15.015C105.358 15.015 111.594 15.0143 117.829 15.0171C118.179 15.0171 118.53 15.0318 118.877 15.0711C120.982 15.3121 122.196 17.3461 121.208 19.4607C120.984 19.9399 120.657 20.3891 120.304 20.7863C119.28 21.9368 118.245 23.0803 117.166 24.1789C110.784 30.6775 104.389 37.1621 98.0001 43.6523C97.8404 43.8149 97.6933 43.9907 97.4123 44.3025Z" fill="#2A2F32"/>
<path d="M82.5582 32.2759C82.5582 37.1784 82.5561 42.0809 82.5603 46.9834C82.5603 47.649 82.477 48.2866 82.1119 48.8612C81.4141 49.9598 80.0842 50.486 78.8258 50.1637C77.6781 49.8701 76.782 48.8289 76.7365 47.5565C76.6706 45.7152 76.6916 43.8704 76.6797 42.0269C76.6776 41.6773 76.707 41.327 76.707 40.9774C76.7091 36.4714 76.7133 31.9655 76.7063 27.4602C76.7035 25.546 76.6636 23.6325 76.6622 21.7183C76.6608 20.2484 76.6783 18.7777 76.7196 17.3084C76.7315 16.8957 76.7995 16.4648 76.9417 16.0794C77.3937 14.8533 78.4734 14.2031 79.8109 14.2935C81.0525 14.3768 82.1666 15.2765 82.4398 16.4592C82.5281 16.8411 82.5533 17.2446 82.554 17.6384C82.561 22.5178 82.5589 27.3965 82.5589 32.2759H82.5582Z" fill="#2A2F32"/>
<path d="M79.5149 8.56845C77.6028 8.56565 76.1693 7.16223 76.1602 5.28306C76.1518 3.40459 77.6456 1.9234 79.5416 1.92971C81.4214 1.93601 82.9643 3.45014 82.9566 5.28096C82.9489 7.16433 81.4761 8.57055 79.5142 8.56775L79.5149 8.56845Z" fill="#2A2F32"/>
<path d="M94.216 68.0396V61.1465C95.1163 60.8824 95.398 61.0646 95.4008 61.9222C95.4085 64.4649 95.4036 67.0075 95.4022 69.5495C95.4022 69.689 95.4043 69.8319 95.377 69.9671C95.274 70.4786 94.8578 70.6559 94.4437 70.3476C94.2412 70.1969 94.0752 69.9924 93.9091 69.799C92.2359 67.8539 90.5656 65.9061 88.8931 63.9604C88.7459 63.7894 88.5876 63.6283 88.3501 63.3711C88.3291 63.6584 88.3052 63.8322 88.3052 64.0059C88.3024 65.8255 88.3045 67.6444 88.3024 69.4641C88.3024 69.6504 88.3122 69.8417 88.2737 70.0211C88.2148 70.2971 88.0278 70.4765 87.7398 70.4947C87.4154 70.515 87.2059 70.3308 87.1274 70.0309C87.0812 69.8543 87.0917 69.6609 87.0917 69.4753C87.0875 66.8394 87.0854 64.2035 87.084 61.5676C87.084 61.0821 87.2683 60.895 87.7125 61.0484C88.0004 61.1479 88.2779 61.37 88.4811 61.6055C90.1893 63.582 91.8786 65.5747 93.5742 67.5618C93.7353 67.7502 93.9014 67.9338 94.0653 68.1202C94.1158 68.0936 94.1662 68.0662 94.2167 68.0396H94.216Z" fill="#2A2F32"/>
<path d="M169.3 65.8055C169.216 66.0171 169.126 66.2266 169.052 66.441C168.65 67.5852 168.251 68.7301 167.855 69.8771C167.743 70.2036 167.596 70.4985 167.198 70.4964C166.801 70.4943 166.65 70.1959 166.538 69.8729C166.491 69.7404 166.441 69.6101 166.393 69.4791C166.182 68.9101 165.973 68.3412 165.761 67.773C165.086 65.9583 164.411 64.145 163.738 62.3296C163.665 62.1334 163.59 61.9351 163.544 61.7312C163.476 61.4243 163.571 61.1742 163.877 61.0446C164.181 60.9156 164.47 61.0277 164.636 61.3479C164.721 61.5126 164.773 61.6948 164.836 61.8699C165.529 63.8016 166.222 65.7334 166.916 67.6644C166.987 67.8606 167.063 68.0546 167.177 68.3552C167.296 68.1163 167.388 67.9678 167.446 67.8059C167.858 66.6652 168.26 65.5211 168.668 64.379C168.731 64.2038 168.783 64.0203 168.876 63.8612C169.115 63.452 169.585 63.4492 169.831 63.857C169.925 64.0146 169.971 64.201 170.036 64.3762C170.509 65.6668 170.98 66.9581 171.514 68.4183C171.661 68.0638 171.76 67.8501 171.839 67.6293C172.542 65.6766 173.234 63.7197 173.95 61.7711C174.039 61.5266 174.204 61.2611 174.412 61.1174C174.797 60.8505 175.237 61.1237 175.216 61.5925C175.207 61.7957 175.127 62.0003 175.055 62.1957C174.123 64.7104 173.187 67.2237 172.251 69.7376C172.243 69.7593 172.235 69.7811 172.227 69.8035C172.104 70.1377 171.981 70.4929 171.545 70.4957C171.111 70.4985 170.98 70.1601 170.861 69.8147C170.587 69.0209 170.304 68.2305 170.023 67.4395C169.829 66.8916 169.63 66.3443 169.433 65.7971L169.301 65.8055H169.3Z" fill="#2A2F32"/>
<path d="M228.621 63.2486C228.065 63.9619 227.509 64.6759 226.952 65.3891C226.68 65.7388 226.415 66.0954 226.133 66.4373C225.637 67.0392 225.361 67.0392 224.864 66.4149C224.151 65.5202 223.456 64.6114 222.751 63.7104C222.613 63.5331 222.463 63.3656 222.225 63.084C222.203 63.3965 222.18 63.5695 222.179 63.7426C222.176 65.6337 222.177 67.5254 222.177 69.4165C222.177 69.6029 222.182 69.7907 222.164 69.9763C222.133 70.3064 221.923 70.4738 221.609 70.4969C221.297 70.5201 221.059 70.2895 221.019 69.935C220.999 69.75 221.01 69.5616 221.01 69.3752C221.01 67.1569 221.013 64.9386 221.007 62.721C221.007 62.302 220.994 61.8802 220.949 61.464C220.914 61.1494 221.052 61.0422 221.33 61.0121C221.744 60.9659 222.035 61.1403 222.286 61.464C223.189 62.625 224.107 63.7741 225.021 64.926C225.164 65.1047 225.316 65.2749 225.498 65.4893C225.675 65.2847 225.831 65.1187 225.971 64.94C226.862 63.7993 227.748 62.6552 228.638 61.5138C228.738 61.3856 228.832 61.2433 228.958 61.1459C229.318 60.8671 229.768 61.0009 229.909 61.436C229.972 61.6308 229.986 61.8487 229.986 62.0561C229.991 64.5778 229.991 67.0994 229.988 69.6211C229.987 70.237 229.813 70.4955 229.426 70.499C229.012 70.5032 228.814 70.223 228.812 69.5868C228.807 67.7419 228.81 65.8978 228.81 64.053C228.81 63.8042 228.81 63.5548 228.81 63.3061L228.621 63.2479L228.621 63.2486Z" fill="#2A2F32"/>
<path d="M101.384 63.4989V64.1771C101.384 65.9273 101.384 67.6776 101.384 69.4278C101.384 69.6142 101.395 69.8034 101.371 69.987C101.331 70.2994 101.1 70.4998 100.812 70.5019C100.525 70.504 100.29 70.3058 100.243 69.9954C100.218 69.8356 100.229 69.6696 100.228 69.5063C100.218 66.7997 100.207 64.093 100.201 61.3871C100.201 61.2988 100.238 61.2105 100.262 61.104C100.787 60.9001 101.167 61.0949 101.496 61.4817C102.176 62.2818 102.859 63.0792 103.541 63.8786C104.615 65.1391 105.69 66.4003 106.766 67.6601C106.9 67.817 107.042 67.9663 107.294 68.2437C107.382 67.5452 107.334 66.979 107.342 66.4185C107.351 65.8356 107.344 65.2519 107.344 64.6683V62.918C107.344 62.3393 107.344 61.7605 107.344 61.1706C108.11 60.8364 108.502 61.0529 108.504 61.8593C108.511 64.4497 108.507 67.04 108.505 69.6303C108.505 69.7698 108.512 69.9148 108.479 70.0479C108.372 70.4648 107.96 70.6379 107.609 70.3842C107.368 70.2098 107.166 69.9722 106.97 69.7431C105.31 67.8163 103.655 65.8846 101.998 63.955C101.848 63.7805 101.687 63.6145 101.532 63.4449C101.483 63.4631 101.434 63.4813 101.385 63.4989H101.384Z" fill="#2A2F32"/>
<path d="M211.92 61.0195C214.528 61.0188 216.69 63.1951 216.671 65.8022C216.653 68.38 214.499 70.5149 211.918 70.5128C209.326 70.5107 207.187 68.3863 207.172 65.7994C207.157 63.1804 209.302 61.0202 211.92 61.0195ZM215.452 65.8345C215.475 63.8334 213.937 62.2387 211.964 62.2177C209.991 62.1966 208.397 63.7689 208.381 65.7483C208.367 67.7178 209.95 69.3286 211.913 69.3392C213.838 69.3497 215.431 67.7732 215.452 65.8338V65.8345Z" fill="#2A2F32"/>
<path d="M82.7344 65.7771C82.7323 68.3758 80.6205 70.5009 78.0273 70.5128C75.4034 70.5254 73.2552 68.3786 73.2657 65.7547C73.2762 63.1216 75.416 61.0042 78.0498 61.0196C80.6352 61.035 82.7372 63.1692 82.7351 65.7771H82.7344ZM78.0273 62.2149C76.0634 62.2044 74.4589 63.8012 74.4568 65.7701C74.4547 67.7326 76.0662 69.349 78.0175 69.3406C79.9401 69.3322 81.5271 67.7522 81.5594 65.8142C81.5916 63.8636 79.9843 62.2261 78.0273 62.2149Z" fill="#2A2F32"/>
<path d="M21.9469 65.831C21.9238 68.4276 19.791 70.5275 17.1923 70.5128C14.5676 70.4981 12.4698 68.3492 12.4944 65.7014C12.5189 63.1019 14.6475 61.0077 17.2511 61.0196C19.9353 61.0315 22.052 63.3374 21.9469 65.831ZM17.214 62.2149C15.2535 62.2226 13.6441 63.8481 13.6631 65.8023C13.6813 67.7543 15.3278 69.3686 17.2686 69.3392C19.1997 69.3091 20.7691 67.7158 20.7726 65.782C20.7768 63.8131 19.1744 62.2079 17.214 62.2156V62.2149Z" fill="#2A2F32"/>
<path d="M195.637 65.6334C195.637 64.2804 195.637 62.9281 195.637 61.5751C195.637 61.07 195.669 61.0188 196.187 61.0118C197.026 61.0006 197.867 60.9901 198.706 61.0167C201.285 61.0987 203.344 63.2273 203.333 65.7819C203.323 68.3162 201.297 70.4097 198.739 70.5071C197.97 70.5366 197.199 70.5233 196.43 70.5085C195.829 70.4973 195.655 70.3173 195.65 69.6923C195.64 68.3393 195.647 66.9863 195.647 65.6341H195.637L195.637 65.6334ZM196.852 62.1672V69.3069C197.512 69.3069 198.135 69.3328 198.755 69.302C200.489 69.2144 201.924 67.8762 202.106 66.2037C202.297 64.4457 201.247 62.809 199.587 62.3122C198.704 62.0481 197.8 62.1329 196.852 62.1672H196.852Z" fill="#2A2F32"/>
<path d="M45.8987 66.3208V69.2516C46.1152 69.267 46.317 69.2937 46.5195 69.2944C47.7562 69.2986 48.9928 69.2944 50.2295 69.2979C50.439 69.2979 50.6527 69.293 50.8559 69.3343C51.1579 69.396 51.3554 69.5767 51.3491 69.9165C51.3428 70.2578 51.1263 70.4147 50.8313 70.4841C50.6975 70.5156 50.5532 70.51 50.4138 70.51C48.8275 70.5114 47.2405 70.5163 45.6542 70.5086C44.8778 70.5051 44.6627 70.2942 44.6529 69.5025C44.6375 68.2896 44.6557 67.0768 44.6445 65.8646C44.6312 64.4423 44.6011 63.0207 44.5794 61.599C44.5766 61.44 44.5794 61.2809 44.5794 61.0707C44.8015 61.0448 44.9794 61.0056 45.1567 61.0056C46.9063 61.0021 48.6565 61.0049 50.406 61.007C50.5462 61.007 50.6884 60.9993 50.825 61.0231C51.1565 61.0805 51.3982 61.3517 51.3744 61.6425C51.3477 61.9627 51.1649 62.1568 50.8433 62.1925C50.6352 62.2156 50.4243 62.2191 50.2148 62.2198C49.0482 62.2226 47.8816 62.2177 46.715 62.224C46.4676 62.2254 46.221 62.2633 45.9183 62.2892V65.1983C46.249 65.1983 46.5692 65.1983 46.8887 65.1983C47.7288 65.1983 48.5689 65.1976 49.4083 65.199C49.5716 65.199 49.739 65.1885 49.8967 65.2207C50.1755 65.2789 50.3528 65.4512 50.3507 65.7546C50.3486 66.0531 50.1825 66.2465 49.9023 66.2969C49.676 66.3383 49.4377 66.3194 49.2044 66.3201C48.1338 66.3215 47.0625 66.3208 45.8994 66.3208H45.8987Z" fill="#2A2F32"/>
<path d="M113.342 61.0712C113.546 61.0473 113.724 61.0081 113.904 61.0074C115.655 61.0025 117.405 61.0032 119.156 61.0067C119.318 61.0067 119.491 61.0032 119.639 61.0565C119.91 61.1545 120.035 61.3739 119.997 61.6653C119.962 61.9246 119.814 62.0969 119.551 62.1313C119.367 62.1558 119.178 62.1481 118.992 62.1481C117.547 62.1495 116.102 62.1481 114.639 62.1481C114.443 62.6533 114.557 63.1437 114.538 63.6209C114.518 64.1078 114.534 64.5962 114.534 65.1315C114.753 65.156 114.93 65.1917 115.107 65.1931C116.065 65.1988 117.022 65.1959 117.979 65.1959C118.096 65.1959 118.213 65.191 118.329 65.198C118.813 65.2261 119.049 65.4279 119.026 65.7894C119.005 66.125 118.791 66.3065 118.334 66.3121C117.331 66.3247 116.327 66.3163 115.323 66.317C115.093 66.317 114.864 66.317 114.585 66.317V69.2486C114.794 69.264 114.995 69.292 115.197 69.2927C116.435 69.2969 117.671 69.2941 118.909 69.2955C119.095 69.2955 119.285 69.2871 119.467 69.3179C119.85 69.3831 120.035 69.5954 120.027 69.9177C120.019 70.2309 119.819 70.4369 119.437 70.4943C119.276 70.5189 119.111 70.5083 118.948 70.5083C117.501 70.509 116.053 70.5097 114.606 70.5083C113.457 70.5083 113.345 70.3934 113.344 69.2086C113.342 66.9448 113.344 64.6803 113.344 62.4164V61.0698L113.342 61.0712Z" fill="#2A2F32"/>
<path d="M31.834 65.3935C31.9174 63.7575 32.7953 62.2483 34.6548 61.453C36.4254 60.6963 38.1217 60.8715 39.626 62.1642C39.7837 62.2994 39.9434 62.4515 40.0443 62.6287C40.1963 62.8943 40.1809 63.1746 39.9196 63.3826C39.694 63.562 39.4494 63.5774 39.2133 63.3946C39.1026 63.3091 39.0045 63.2089 38.898 63.1178C37.7798 62.1649 36.279 61.9533 35.0437 62.5734C33.7552 63.2201 32.9011 64.655 33.0118 65.9863C33.1393 67.5116 34.1048 68.749 35.5503 69.1792C36.7855 69.547 37.901 69.2745 38.8861 68.4519C39.0648 68.3027 39.2301 68.1338 39.4214 68.0035C39.6723 67.8325 39.9147 67.9103 40.1186 68.1058C40.3141 68.2936 40.3204 68.5297 40.197 68.7476C40.1074 68.9066 39.9686 69.0405 39.8411 69.1764C38.3438 70.7739 36.2033 70.7487 34.802 70.1797C32.9683 69.4356 31.8256 67.7232 31.8347 65.3914L31.834 65.3935Z" fill="#2A2F32"/>
<path d="M61.374 65.9846C61.2675 63.6998 62.9127 61.5971 65.063 61.1571C66.6311 60.8362 68.0863 61.0527 69.2719 62.2501C69.4022 62.3812 69.5416 62.5185 69.6229 62.6796C69.7497 62.9305 69.714 63.1855 69.4814 63.3726C69.2585 63.552 69.0154 63.5821 68.7751 63.4006C68.6637 63.3165 68.5649 63.2156 68.4584 63.1253C67.3514 62.1815 65.7784 61.9783 64.5291 62.6012C63.1313 63.299 62.472 64.8986 62.5701 66.0596C62.6934 67.5268 63.6848 68.7572 65.105 69.1797C66.2562 69.5223 67.3205 69.3086 68.2748 68.5778C68.4598 68.4363 68.623 68.2667 68.8059 68.1224C69.1464 67.8519 69.4274 67.8512 69.6733 68.1069C69.8898 68.3326 69.8912 68.6135 69.6264 68.9197C69.0673 69.565 68.4079 70.073 67.5763 70.3266C64.9215 71.1359 62.1434 69.5552 61.5002 66.8591C61.4196 66.5207 61.3993 66.1682 61.374 65.9854V65.9846Z" fill="#2A2F32"/>
<path d="M128.493 70.5217C125.814 70.5448 123.521 68.33 123.717 65.5091C123.918 62.6119 126.425 60.6543 129.239 61.0873C130.229 61.2393 131.046 61.6821 131.737 62.387C131.959 62.6147 132.125 62.8656 131.952 63.1977C131.787 63.5151 131.43 63.6118 131.12 63.4079C130.946 63.2937 130.803 63.1339 130.639 63.0022C129.232 61.8671 127.209 61.9876 125.925 63.2818C124.652 64.5633 124.548 66.6071 125.682 68.007C126.832 69.4251 128.832 69.7523 130.342 68.7588C130.594 68.5927 130.82 68.3875 131.053 68.1934C131.467 67.8493 131.758 67.8276 132.024 68.1296C132.253 68.3896 132.203 68.6495 131.844 69.0454C130.946 70.0347 129.835 70.5392 128.493 70.5217Z" fill="#2A2F32"/>
<path d="M187.921 70.5258C186.996 70.4915 186.143 70.2771 185.483 69.6079C185.244 69.3662 185.058 69.053 184.914 68.7419C184.805 68.5051 184.837 68.2164 185.106 68.0644C185.361 67.9208 185.605 68.0006 185.803 68.2038C185.883 68.2865 185.942 68.3909 186.016 68.4806C186.833 69.4636 188.301 69.6829 189.373 68.983C190.237 68.4196 190.286 67.5291 189.458 66.9244C189.123 66.6799 188.732 66.5089 188.354 66.3289C187.849 66.0878 187.326 65.8853 186.824 65.638C186.534 65.4944 186.249 65.322 185.998 65.1181C184.937 64.2577 184.875 62.8088 185.876 61.8748C187.353 60.4959 189.633 60.959 190.735 62.1761C190.796 62.2447 190.851 62.3239 190.892 62.4059C191.015 62.6511 191.063 62.9082 190.838 63.1149C190.604 63.3286 190.319 63.3335 190.066 63.1584C189.857 63.014 189.688 62.813 189.49 62.6497C188.774 62.0548 187.976 61.9399 187.138 62.3344C186.13 62.8095 186.056 63.7953 186.987 64.4006C187.394 64.6655 187.859 64.8421 188.3 65.0523C188.867 65.3227 189.462 65.5476 190.004 65.8622C192 67.0225 191.468 69.0993 189.983 69.9772C189.343 70.3555 188.644 70.5062 187.922 70.5265L187.921 70.5258Z" fill="#2A2F32"/>
<path d="M150.121 70.5239C149.2 70.4833 148.325 70.2633 147.665 69.5521C147.435 69.3041 147.247 68.9853 147.144 68.6651C147.091 68.4983 147.208 68.1641 147.352 68.0786C147.496 67.9932 147.78 68.0927 147.98 68.169C148.094 68.2125 148.162 68.3729 148.252 68.4794C149.066 69.4449 150.469 69.6733 151.547 69.0161C152.475 68.4507 152.526 67.4852 151.627 66.8777C151.225 66.6066 150.764 66.4223 150.324 66.2086C149.759 65.9339 149.169 65.7027 148.625 65.3916C147.823 64.932 147.33 64.265 147.428 63.2749C147.522 62.3108 148.081 61.6872 148.927 61.3299C150.303 60.7477 151.573 61.0209 152.725 61.9304C152.834 62.0158 152.93 62.123 153.013 62.2345C153.268 62.5743 153.284 62.9134 153.067 63.1215C152.85 63.3282 152.479 63.3142 152.176 63.0703C151.995 62.9246 151.843 62.7417 151.66 62.5988C150.951 62.0439 150.174 61.9528 149.364 62.336C148.499 62.7445 148.165 63.7619 149.225 64.4044C149.641 64.6566 150.099 64.8416 150.539 65.0532C151.126 65.3356 151.738 65.5752 152.3 65.901C154.069 66.9275 153.794 68.9461 152.327 69.9046C151.662 70.339 150.92 70.5043 150.121 70.5253V70.5239Z" fill="#2A2F32"/>
<path d="M5.98678 68.1515C6.24252 67.455 6.50036 66.7593 6.754 66.0614C7.27178 64.637 7.78677 63.2111 8.30455 61.786C8.36831 61.6108 8.42227 61.4279 8.51475 61.2682C8.66259 61.0125 8.91273 60.9452 9.18248 61.0223C9.46064 61.1014 9.61479 61.3074 9.58536 61.6003C9.56714 61.7825 9.50829 61.9639 9.44453 62.137C8.49724 64.6958 7.54644 67.2539 6.59425 69.8113C6.5459 69.9423 6.49966 70.079 6.42399 70.1939C6.15493 70.6017 5.64626 70.5996 5.38981 70.1869C5.30504 70.0502 5.26089 69.8877 5.20414 69.7349C4.26946 67.221 3.33548 64.7063 2.40361 62.1917C2.33915 62.0172 2.26908 61.8399 2.24246 61.6578C2.20182 61.3754 2.31392 61.1442 2.59068 61.0419C2.88706 60.9319 3.15331 61.0012 3.31236 61.2885C3.41326 61.47 3.47491 61.6746 3.54638 61.8715C4.24073 63.778 4.93228 65.6851 5.62664 67.5923C5.6967 67.785 5.77518 67.9749 5.85015 68.1662C5.89569 68.1613 5.94123 68.1564 5.98678 68.1515Z" fill="#2A2F32"/>
<path d="M139.056 62.1961C138.272 62.1961 137.577 62.1982 136.882 62.1947C136.673 62.1933 136.461 62.1947 136.256 62.159C136.001 62.1149 135.848 61.9488 135.821 61.6819C135.791 61.389 135.915 61.1641 136.182 61.0723C136.373 61.0064 136.594 61.0078 136.802 61.0071C138.691 61.0029 140.58 61.0043 142.468 61.005C142.607 61.005 142.749 60.998 142.887 61.019C143.265 61.0758 143.459 61.2811 143.459 61.6048C143.459 61.9397 143.275 62.1401 142.888 62.1835C142.658 62.2095 142.422 62.1954 142.19 62.1954C141.586 62.1968 140.983 62.1954 140.314 62.1954C140.289 62.4379 140.251 62.6355 140.25 62.8337C140.236 65.0247 140.228 67.2164 140.217 69.4073C140.216 69.6168 140.221 69.8291 140.191 70.0351C140.147 70.3287 139.943 70.4758 139.659 70.4983C139.376 70.5207 139.125 70.314 139.075 70.0092C139.045 69.827 139.057 69.6371 139.056 69.4508C139.056 67.3292 139.056 65.2076 139.056 63.086C139.056 62.833 139.056 62.5794 139.056 62.1947V62.1961Z" fill="#2A2F32"/>
<path d="M26.3193 61.1563C27.1874 60.8816 27.5174 61.0946 27.5195 61.9235C27.5265 64.4648 27.5223 67.0054 27.5209 69.5467C27.5209 69.7092 27.5223 69.8767 27.4866 70.0336C27.4235 70.3139 27.2273 70.4834 26.9436 70.4933C26.6577 70.5038 26.4419 70.3482 26.383 70.0651C26.3319 69.8171 26.3221 69.5572 26.3214 69.3021C26.3172 66.9942 26.3186 64.6862 26.3186 62.3782C26.3186 61.9838 26.3186 61.5886 26.3186 61.1563H26.3193Z" fill="#2A2F32"/>
<path d="M179.391 61.1224C180.292 60.9227 180.554 61.0986 180.556 61.8939C180.562 64.4576 180.56 67.0213 180.557 69.585C180.556 70.2289 180.359 70.5162 179.956 70.4993C179.574 70.4832 179.393 70.1869 179.392 69.5422C179.39 67.1418 179.391 64.7413 179.391 62.3409V61.1224Z" fill="#2A2F32"/>
</g>
<defs>
<clipPath id="clip0_4660_88340">
<rect width="229.99" height="70" fill="white" transform="translate(0 0.539062)"/>
</clipPath>
</defs>
</svg>
