<svg width="69" height="71" viewBox="0 0 69 71" fill="none" xmlns="http://www.w3.org/2000/svg">
<g clip-path="url(#clip0_4660_88205)">
<path d="M15.6279 20.5752C16.7318 20.5752 17.8554 20.6245 18.9495 20.5555C20.2998 20.4668 21.177 21.068 21.8571 22.1818C22.754 23.6701 23.7397 25.0993 24.6957 26.5186C25.5434 27.7703 26.0756 27.8393 27.1697 26.7749C28.7763 25.2175 30.3336 23.6405 31.8909 22.0438C32.7385 21.1666 33.7439 20.7427 34.9661 20.7723C36.1587 20.792 37.3316 20.723 38.5242 20.8216C39.0072 20.8709 39.5986 21.0976 39.8746 21.4721C40.0125 21.6594 39.6873 22.3789 39.4113 22.7436C32.6695 31.3679 25.8588 39.9725 19.1367 48.6462C17.7864 50.3809 16.1601 50.8934 14.1198 50.7357C11.3009 50.4992 11.2812 50.4992 11.3009 47.6507C11.3206 42.0424 10.8672 43.2646 14.6225 39.391C15.6279 38.3462 16.6628 37.3015 17.6681 36.2567C18.7228 35.1922 18.8115 34.453 18.0131 33.1716C15.7166 29.5544 13.4003 25.9863 11.1334 22.3691C10.8574 21.9551 10.7884 21.3933 10.6504 20.9103C11.1136 20.792 11.567 20.6343 12.0303 20.6048C13.2426 20.5358 14.4352 20.585 15.6081 20.585L15.6279 20.5752Z" fill="#2A2F32"/>
<path d="M68.6357 43.917C67.1671 50.7081 63.9145 56.4642 58.9173 61.1657C53.3682 66.3797 46.8137 69.3761 39.2932 70.2829C22.7148 72.3034 6.91504 61.8458 2.09527 45.7503C-3.45387 27.1119 7.23044 7.91168 25.2972 2.25412C33.7441 -0.387387 42.0826 0.0462937 50.2535 3.48617C51.2392 3.90014 52.2248 4.58023 52.9148 5.38845C53.9694 6.64021 53.2597 8.05953 51.6039 8.05953C50.8745 8.05953 50.086 7.85255 49.4256 7.52729C33.7441 -0.0916954 14.5044 6.02912 6.41236 22.3611C-0.694088 36.7416 4.09611 54.5422 17.4219 63.5214C23.8877 67.8779 30.9942 69.8492 38.7019 69.2479C53.5357 68.0652 65.2057 57.5878 68.5568 44.1339C68.5371 44.0452 68.6061 43.9959 68.6455 43.9269L68.6357 43.917Z" fill="#2A2F32"/>
<path d="M60.1981 41.8091C60.1981 44.1943 60.1488 46.6092 60.2178 48.9944C60.2375 50.1575 59.7545 50.5221 58.6605 50.6207C56.9652 50.7784 55.7233 50.3152 54.7869 48.817C53.8013 47.2597 52.6777 45.7812 51.5343 44.3422C51.2386 43.9479 50.6669 43.7902 50.2037 43.5044C50.0164 43.9677 49.701 44.4309 49.6715 44.9237C49.6025 46.3135 49.6517 47.7032 49.6517 49.093C49.6517 50.0885 49.2181 50.601 48.2029 50.5813C46.892 50.5616 45.6106 50.5616 44.3096 50.5616C43.4422 50.5616 42.9297 50.118 42.9297 49.2408C42.9297 44.1845 42.9297 39.1085 42.9494 34.0521C42.9494 33.1946 43.5211 32.9186 44.2307 32.8891C45.4431 32.8398 46.7047 32.7314 47.8973 32.9384C48.6957 33.0764 49.5729 33.5396 50.1248 34.1408C51.6624 35.8066 53.0128 37.6399 54.5011 39.3352C54.7968 39.6801 55.3487 39.8181 55.7824 40.0744C55.9894 39.6604 56.3344 39.2366 56.3738 38.8029C56.4625 37.3934 56.4231 35.9544 56.4428 34.5154C56.4625 33.1749 56.837 32.8694 58.3451 32.8891C59.8827 32.9088 60.2276 33.1946 60.2276 34.5351C60.2079 36.9499 60.2079 39.3844 60.1784 41.819L60.1981 41.8091Z" fill="#2A2F32"/>
<path d="M41.2157 41.7177C41.2157 43.9945 41.2354 46.2812 41.2157 48.558C41.1959 50.1153 40.7524 50.549 39.1951 50.5786C37.2928 50.5983 35.3708 50.6278 33.4587 50.5786C32.1774 50.5588 31.7634 49.7211 32.5223 48.6566C33.0546 47.8878 33.577 47.1288 34.2669 46.498C34.6809 46.1235 35.3215 45.9461 35.8932 45.8968C37.3815 45.7785 37.4998 45.7095 37.4998 44.1818C37.4998 43.4425 37.5491 42.723 37.4801 41.9838C37.4604 41.6388 37.2534 41.284 37.1351 40.939C36.7901 41.1263 36.3367 41.215 36.1002 41.491C34.7006 43.1863 33.3503 44.9013 31.9999 46.636C28.6488 50.8841 29.4274 50.5983 23.9079 50.6476C23.3362 50.6476 22.7645 50.6673 22.1928 50.6278C20.9509 50.5391 20.5468 49.6028 21.3255 48.6368C23.1095 46.3403 24.9723 44.0733 26.7859 41.7768C28.6882 39.4113 30.5905 37.0457 32.4928 34.6605C33.4094 33.4974 34.602 32.9258 36.0706 32.9258H38.9388C40.7031 32.9455 41.2058 33.4383 41.2354 35.173C41.2551 37.3316 41.2354 39.5296 41.2354 41.7374L41.2157 41.7177Z" fill="#2A2F32"/>
<path d="M47.3859 17.3226C52.9844 17.2043 51.6242 18.0421 55.1626 13.7053C55.9906 12.6802 56.7692 11.6453 57.6859 10.6892C58.0111 10.364 58.6715 10.0584 59.0362 10.2063C59.3812 10.3245 59.6966 10.9948 59.7458 11.458C59.8346 12.8478 59.7656 14.2375 59.7656 15.6273C59.7656 17.017 60.0415 17.293 61.4609 17.3226C62.4465 17.3423 63.4518 17.2536 64.4375 17.3719C64.9697 17.4408 65.6991 17.6971 65.9061 18.1111C66.3003 18.8996 65.6104 19.3431 64.9697 19.6881C63.7574 20.3189 62.5352 20.9891 61.3032 21.5707C60.2485 22.0832 59.7458 22.8224 59.7656 24.0249C59.8148 25.8779 59.8148 27.7309 59.7458 29.5938C59.7261 30.057 59.4896 30.7568 59.1545 30.9342C58.7898 31.1215 58.0998 30.9342 57.7056 30.6583C56.2173 29.5938 54.7487 28.4504 53.3491 27.2775C52.4817 26.558 51.6735 26.5383 50.7075 27.041C48.7856 28.0857 46.8734 29.1305 44.8824 30.0274C44.3995 30.2344 43.7095 29.9782 43.1181 29.9387C43.1871 29.4065 43.1181 28.7363 43.3941 28.3617C44.3995 26.9523 45.5231 25.6512 46.6073 24.2812C47.6126 23.0294 47.5732 22.7239 46.3313 21.7579C45.3654 20.9891 44.36 20.2992 43.4434 19.4614C43.0984 19.1559 42.7337 18.4166 42.8717 18.1407C43.059 17.7464 43.7194 17.4211 44.2023 17.3719C45.3457 17.2339 46.4989 17.3226 47.3859 17.3226Z" fill="#2A2F32"/>
</g>
<defs>
<clipPath id="clip0_4660_88205">
<rect width="68.009" height="70" fill="white" transform="translate(0.626953 0.539062)"/>
</clipPath>
</defs>
</svg>
